<svg id="svg" version="1.1" xmlns="http://www.w3.org/2000/svg" xmlns:xlink="http://www.w3.org/1999/xlink" width="400" height="156.25" viewBox="0, 0, 400,156.25"><g id="svgg"><path id="path0" d="M29.167 27.750 C 29.167 30.139,29.227 31.500,29.333 31.500 C 29.425 31.500,29.500 31.762,29.500 32.083 C 29.500 32.404,29.575 32.667,29.667 32.667 C 29.758 32.667,29.833 32.817,29.833 33.000 C 29.833 33.185,29.944 33.333,30.083 33.333 C 30.224 33.333,30.333 33.482,30.333 33.675 C 30.333 34.118,31.882 35.667,32.325 35.667 C 32.513 35.667,32.667 35.747,32.667 35.845 C 32.667 36.115,33.107 36.500,33.417 36.500 C 33.726 36.500,34.167 36.885,34.167 37.155 C 34.167 37.253,34.354 37.333,34.583 37.333 C 34.813 37.333,35.000 37.408,35.000 37.500 C 35.000 37.592,35.150 37.667,35.333 37.667 C 35.517 37.667,35.667 37.742,35.667 37.833 C 35.667 37.925,35.779 38.000,35.917 38.000 C 36.054 38.000,36.167 38.112,36.167 38.250 C 36.167 38.387,36.312 38.500,36.490 38.500 C 36.668 38.500,36.860 38.575,36.917 38.667 C 36.973 38.758,37.165 38.833,37.343 38.833 C 37.521 38.833,37.667 38.908,37.667 39.000 C 37.667 39.092,37.779 39.167,37.917 39.167 C 38.054 39.167,38.167 39.279,38.167 39.417 C 38.167 39.556,38.315 39.667,38.500 39.667 C 38.683 39.667,38.833 39.742,38.833 39.833 C 38.833 39.925,39.021 40.000,39.250 40.000 C 39.479 40.000,39.667 40.075,39.667 40.167 C 39.667 40.258,39.854 40.333,40.083 40.333 C 40.313 40.333,40.500 40.414,40.500 40.512 C 40.500 40.806,40.952 41.167,41.321 41.167 C 41.511 41.167,41.667 41.242,41.667 41.333 C 41.667 41.425,41.817 41.500,42.000 41.500 C 42.185 41.500,42.333 41.611,42.333 41.750 C 42.333 41.899,42.486 42.000,42.710 42.000 C 42.918 42.000,43.228 42.187,43.400 42.417 C 43.573 42.646,43.853 42.833,44.023 42.833 C 44.194 42.833,44.333 42.908,44.333 43.000 C 44.333 43.092,44.521 43.167,44.750 43.167 C 44.979 43.167,45.167 43.242,45.167 43.333 C 45.167 43.425,45.283 43.500,45.425 43.500 C 45.567 43.500,45.856 43.688,46.069 43.917 C 46.281 44.146,46.578 44.333,46.727 44.333 C 46.877 44.333,47.000 44.408,47.000 44.500 C 47.000 44.595,47.500 44.667,48.167 44.667 C 48.833 44.667,49.333 44.595,49.333 44.500 C 49.333 44.408,49.521 44.333,49.750 44.333 C 49.979 44.333,50.167 44.258,50.167 44.167 C 50.167 44.075,50.354 44.000,50.583 44.000 C 50.813 44.000,51.000 43.920,51.000 43.821 C 51.000 43.527,51.452 43.167,51.821 43.167 C 52.011 43.167,52.167 43.092,52.167 43.000 C 52.167 42.908,52.319 42.833,52.505 42.833 C 52.691 42.833,52.887 42.721,52.940 42.583 C 52.992 42.446,53.178 42.333,53.351 42.333 C 53.525 42.333,53.667 42.258,53.667 42.167 C 53.667 42.075,53.779 42.000,53.917 42.000 C 54.054 42.000,54.167 41.887,54.167 41.750 C 54.167 41.611,54.315 41.500,54.500 41.500 C 54.683 41.500,54.833 41.425,54.833 41.333 C 54.833 41.242,54.989 41.167,55.179 41.167 C 55.548 41.167,56.000 40.806,56.000 40.512 C 56.000 40.414,56.188 40.333,56.417 40.333 C 56.646 40.333,56.833 40.258,56.833 40.167 C 56.833 40.075,57.021 40.000,57.250 40.000 C 57.479 40.000,57.667 39.925,57.667 39.833 C 57.667 39.742,57.817 39.667,58.000 39.667 C 58.185 39.667,58.333 39.556,58.333 39.417 C 58.333 39.279,58.446 39.167,58.583 39.167 C 58.721 39.167,58.833 39.092,58.833 39.000 C 58.833 38.908,58.983 38.833,59.167 38.833 C 59.350 38.833,59.500 38.758,59.500 38.667 C 59.500 38.575,59.688 38.500,59.917 38.500 C 60.146 38.500,60.333 38.420,60.333 38.321 C 60.333 38.027,60.786 37.667,61.155 37.667 C 61.345 37.667,61.500 37.592,61.500 37.500 C 61.500 37.408,61.688 37.333,61.917 37.333 C 62.146 37.333,62.333 37.253,62.333 37.155 C 62.333 36.885,62.774 36.500,63.083 36.500 C 63.393 36.500,63.833 36.115,63.833 35.845 C 63.833 35.747,63.987 35.667,64.175 35.667 C 64.618 35.667,66.167 34.118,66.167 33.675 C 66.167 33.482,66.276 33.333,66.417 33.333 C 66.591 33.333,66.667 33.157,66.667 32.750 C 66.667 32.429,66.742 32.167,66.833 32.167 C 66.925 32.167,67.000 31.829,67.000 31.417 C 67.000 31.004,67.075 30.667,67.167 30.667 C 67.453 30.667,67.385 24.528,67.095 24.238 C 66.818 23.961,64.667 23.897,64.667 24.167 C 64.667 24.258,64.514 24.333,64.328 24.333 C 64.142 24.333,63.946 24.446,63.894 24.583 C 63.841 24.721,63.656 24.833,63.482 24.833 C 63.309 24.833,63.167 24.908,63.167 25.000 C 63.167 25.092,62.979 25.167,62.750 25.167 C 62.521 25.167,62.333 25.242,62.333 25.333 C 62.333 25.425,62.181 25.500,61.995 25.500 C 61.809 25.500,61.613 25.613,61.560 25.750 C 61.508 25.888,61.285 26.000,61.066 26.000 C 60.846 26.000,60.667 26.075,60.667 26.167 C 60.667 26.258,60.517 26.333,60.333 26.333 C 60.150 26.333,60.000 26.408,60.000 26.500 C 60.000 26.592,59.848 26.667,59.661 26.667 C 59.475 26.667,59.280 26.779,59.227 26.917 C 59.174 27.054,58.952 27.167,58.732 27.167 C 58.513 27.167,58.333 27.242,58.333 27.333 C 58.333 27.425,58.183 27.500,58.000 27.500 C 57.815 27.500,57.667 27.611,57.667 27.750 C 57.667 27.906,57.509 28.000,57.250 28.000 C 57.021 28.000,56.833 28.075,56.833 28.167 C 56.833 28.258,56.678 28.333,56.488 28.333 C 56.119 28.333,55.667 28.694,55.667 28.988 C 55.667 29.086,55.479 29.167,55.250 29.167 C 55.021 29.167,54.833 29.242,54.833 29.333 C 54.833 29.425,54.683 29.500,54.500 29.500 C 54.317 29.500,54.167 29.575,54.167 29.667 C 54.167 29.758,53.979 29.833,53.750 29.833 C 53.491 29.833,53.333 29.928,53.333 30.083 C 53.333 30.239,53.176 30.333,52.917 30.333 C 52.688 30.333,52.500 30.408,52.500 30.500 C 52.500 30.592,52.350 30.667,52.167 30.667 C 51.983 30.667,51.833 30.742,51.833 30.833 C 51.833 30.925,51.646 31.000,51.417 31.000 C 51.157 31.000,51.000 31.094,51.000 31.250 C 51.000 31.406,50.843 31.500,50.583 31.500 C 50.354 31.500,50.167 31.575,50.167 31.667 C 50.167 31.758,50.021 31.833,49.843 31.833 C 49.665 31.833,49.473 31.908,49.417 32.000 C 49.360 32.092,49.168 32.167,48.990 32.167 C 48.812 32.167,48.667 32.279,48.667 32.417 C 48.667 32.554,48.554 32.667,48.417 32.667 C 48.279 32.667,48.167 32.554,48.167 32.417 C 48.167 32.278,48.019 32.167,47.833 32.167 C 47.650 32.167,47.500 32.092,47.500 32.000 C 47.500 31.908,47.313 31.833,47.083 31.833 C 46.854 31.833,46.667 31.758,46.667 31.667 C 46.667 31.575,46.479 31.500,46.250 31.500 C 45.991 31.500,45.833 31.406,45.833 31.250 C 45.833 31.111,45.685 31.000,45.500 31.000 C 45.317 31.000,45.167 30.925,45.167 30.833 C 45.167 30.742,44.979 30.667,44.750 30.667 C 44.521 30.667,44.333 30.592,44.333 30.500 C 44.333 30.408,44.146 30.333,43.917 30.333 C 43.657 30.333,43.500 30.239,43.500 30.083 C 43.500 29.944,43.352 29.833,43.167 29.833 C 42.983 29.833,42.833 29.758,42.833 29.667 C 42.833 29.575,42.646 29.500,42.417 29.500 C 42.188 29.500,42.000 29.425,42.000 29.333 C 42.000 29.242,41.813 29.167,41.583 29.167 C 41.324 29.167,41.167 29.072,41.167 28.917 C 41.167 28.778,41.019 28.667,40.833 28.667 C 40.650 28.667,40.500 28.592,40.500 28.500 C 40.500 28.408,40.313 28.333,40.083 28.333 C 39.854 28.333,39.667 28.258,39.667 28.167 C 39.667 28.075,39.479 28.000,39.250 28.000 C 38.991 28.000,38.833 27.906,38.833 27.750 C 38.833 27.611,38.685 27.500,38.500 27.500 C 38.317 27.500,38.167 27.425,38.167 27.333 C 38.167 27.242,37.987 27.167,37.768 27.167 C 37.548 27.167,37.326 27.054,37.273 26.917 C 37.220 26.779,37.025 26.667,36.839 26.667 C 36.652 26.667,36.500 26.592,36.500 26.500 C 36.500 26.408,36.313 26.333,36.083 26.333 C 35.854 26.333,35.667 26.258,35.667 26.167 C 35.667 26.075,35.525 26.000,35.351 26.000 C 35.178 26.000,34.992 25.887,34.940 25.750 C 34.887 25.613,34.691 25.500,34.505 25.500 C 34.319 25.500,34.167 25.425,34.167 25.333 C 34.167 25.242,33.979 25.167,33.750 25.167 C 33.521 25.167,33.333 25.092,33.333 25.000 C 33.333 24.908,33.191 24.833,33.018 24.833 C 32.844 24.833,32.659 24.721,32.606 24.583 C 32.554 24.446,32.358 24.333,32.172 24.333 C 31.986 24.333,31.833 24.258,31.833 24.167 C 31.833 24.069,31.278 24.000,30.500 24.000 L 29.167 24.000 29.167 27.750 M36.375 56.446 C 35.802 56.484,35.333 56.587,35.333 56.675 C 35.333 56.762,34.883 56.833,34.333 56.833 C 33.778 56.833,33.333 56.907,33.333 57.000 C 33.333 57.092,33.071 57.167,32.750 57.167 C 32.429 57.167,32.167 57.247,32.167 57.345 C 32.167 57.615,31.726 58.000,31.417 58.000 C 31.147 58.000,30.667 58.374,30.667 58.583 C 30.667 58.722,30.222 59.167,30.083 59.167 C 29.944 59.167,29.500 59.611,29.500 59.750 C 29.500 59.923,29.039 60.333,28.845 60.333 C 28.747 60.333,28.667 60.504,28.667 60.713 C 28.667 60.922,28.517 61.201,28.333 61.333 C 28.150 61.465,28.000 61.745,28.000 61.953 C 28.000 62.180,27.899 62.333,27.750 62.333 C 27.611 62.333,27.500 62.481,27.500 62.667 C 27.500 62.850,27.425 63.000,27.333 63.000 C 27.242 63.000,27.167 63.262,27.167 63.583 C 27.167 63.904,27.092 64.167,27.000 64.167 C 26.908 64.167,26.833 64.429,26.833 64.750 C 26.833 65.157,26.758 65.333,26.583 65.333 C 26.372 65.333,26.333 65.731,26.333 67.917 C 26.333 70.102,26.372 70.500,26.583 70.500 C 26.721 70.500,26.833 70.575,26.833 70.667 C 26.833 70.771,27.917 70.833,29.750 70.833 C 31.583 70.833,32.667 70.771,32.667 70.667 C 32.667 70.571,33.167 70.500,33.833 70.500 C 34.759 70.500,35.000 70.448,35.000 70.250 C 35.000 70.042,35.324 70.000,36.917 70.000 C 38.083 70.000,38.833 69.935,38.833 69.833 C 38.833 69.725,40.833 69.667,44.500 69.667 C 48.167 69.667,50.167 69.725,50.167 69.833 C 50.167 69.929,50.667 70.000,51.333 70.000 C 52.259 70.000,52.500 70.052,52.500 70.250 C 52.500 70.425,52.676 70.500,53.083 70.500 C 53.404 70.500,53.667 70.575,53.667 70.667 C 53.667 70.758,53.921 70.833,54.232 70.833 C 54.581 70.833,54.834 70.929,54.894 71.083 C 54.946 71.221,55.142 71.333,55.328 71.333 C 55.514 71.333,55.667 71.408,55.667 71.500 C 55.667 71.592,55.822 71.667,56.012 71.667 C 56.339 71.667,56.833 72.018,56.833 72.250 C 56.833 72.460,57.314 72.833,57.583 72.833 C 57.962 72.833,58.333 73.241,58.333 73.655 C 58.333 73.845,58.414 74.000,58.512 74.000 C 58.806 74.000,59.167 74.452,59.167 74.821 C 59.167 75.011,59.242 75.167,59.333 75.167 C 59.425 75.167,59.500 75.319,59.500 75.505 C 59.500 75.691,59.612 75.887,59.750 75.940 C 59.920 76.005,60.000 76.271,60.000 76.768 C 60.000 77.171,60.075 77.500,60.167 77.500 C 60.273 77.500,60.333 78.972,60.333 81.583 L 60.333 85.667 52.917 85.667 C 46.435 85.667,45.500 85.698,45.500 85.917 C 45.500 86.132,44.954 86.167,41.583 86.167 C 39.083 86.167,37.667 86.227,37.667 86.333 C 37.667 86.429,37.167 86.500,36.500 86.500 C 35.833 86.500,35.333 86.571,35.333 86.667 C 35.333 86.759,34.889 86.833,34.333 86.833 C 33.556 86.833,33.333 86.889,33.333 87.083 C 33.333 87.258,33.157 87.333,32.750 87.333 C 32.429 87.333,32.167 87.408,32.167 87.500 C 32.167 87.592,31.904 87.667,31.583 87.667 C 31.262 87.667,31.000 87.742,31.000 87.833 C 31.000 87.925,30.738 88.000,30.417 88.000 C 30.009 88.000,29.833 88.075,29.833 88.250 C 29.833 88.425,29.657 88.500,29.250 88.500 C 28.929 88.500,28.667 88.575,28.667 88.667 C 28.667 88.758,28.517 88.833,28.333 88.833 C 28.150 88.833,28.000 88.908,28.000 89.000 C 28.000 89.092,27.813 89.167,27.583 89.167 C 27.324 89.167,27.167 89.261,27.167 89.417 C 27.167 89.566,27.013 89.667,26.787 89.667 C 26.578 89.667,26.299 89.817,26.167 90.000 C 26.035 90.183,25.755 90.333,25.547 90.333 C 25.338 90.333,25.167 90.412,25.167 90.508 C 25.167 90.734,24.400 91.500,24.174 91.500 C 24.078 91.500,24.000 91.585,24.000 91.689 C 24.000 91.888,23.171 92.666,22.958 92.666 C 22.890 92.667,22.833 92.747,22.833 92.845 C 22.833 93.039,22.423 93.500,22.250 93.500 C 22.030 93.500,21.667 93.987,21.667 94.282 C 21.667 94.450,21.479 94.728,21.250 94.900 C 21.021 95.073,20.833 95.353,20.833 95.523 C 20.833 95.694,20.758 95.833,20.667 95.833 C 20.575 95.833,20.500 96.021,20.500 96.250 C 20.500 96.479,20.425 96.667,20.333 96.667 C 20.242 96.667,20.167 96.809,20.167 96.982 C 20.167 97.156,20.054 97.341,19.917 97.394 C 19.760 97.454,19.667 97.709,19.667 98.078 C 19.667 98.402,19.592 98.667,19.500 98.667 C 19.408 98.667,19.333 98.929,19.333 99.250 C 19.333 99.571,19.258 99.833,19.167 99.833 C 19.075 99.833,19.000 100.171,19.000 100.583 C 19.000 101.139,18.935 101.333,18.750 101.333 C 18.552 101.333,18.500 101.574,18.500 102.500 C 18.500 103.167,18.429 103.667,18.333 103.667 C 18.228 103.667,18.167 104.889,18.167 107.000 C 18.167 109.111,18.228 110.333,18.333 110.333 C 18.431 110.333,18.500 110.889,18.500 111.667 C 18.500 112.741,18.549 113.000,18.750 113.000 C 18.944 113.000,19.000 113.222,19.000 114.000 C 19.000 114.556,19.074 115.000,19.167 115.000 C 19.258 115.000,19.333 115.263,19.333 115.583 C 19.333 115.904,19.408 116.167,19.500 116.167 C 19.592 116.167,19.667 116.429,19.667 116.750 C 19.667 117.157,19.742 117.333,19.917 117.333 C 20.072 117.333,20.167 117.491,20.167 117.750 C 20.167 117.979,20.242 118.167,20.333 118.167 C 20.425 118.167,20.500 118.289,20.500 118.439 C 20.500 118.589,20.687 118.886,20.917 119.098 C 21.146 119.310,21.333 119.600,21.333 119.742 C 21.333 119.884,21.408 120.000,21.500 120.000 C 21.592 120.000,21.667 120.112,21.667 120.250 C 21.667 120.388,21.742 120.500,21.833 120.500 C 21.925 120.500,22.000 120.650,22.000 120.833 C 22.000 121.019,22.111 121.167,22.250 121.167 C 22.387 121.167,22.500 121.245,22.500 121.341 C 22.500 121.567,23.266 122.333,23.492 122.333 C 23.588 122.333,23.667 122.418,23.667 122.522 C 23.667 122.722,24.495 123.499,24.708 123.500 C 24.777 123.500,24.833 123.612,24.833 123.750 C 24.833 123.891,24.982 124.000,25.174 124.000 C 25.529 124.000,26.333 124.689,26.333 124.992 C 26.333 125.088,26.521 125.167,26.750 125.167 C 26.979 125.167,27.167 125.242,27.167 125.333 C 27.167 125.425,27.354 125.500,27.583 125.500 C 27.813 125.500,28.000 125.575,28.000 125.667 C 28.000 125.758,28.150 125.833,28.333 125.833 C 28.519 125.833,28.667 125.944,28.667 126.083 C 28.667 126.239,28.824 126.333,29.083 126.333 C 29.313 126.333,29.500 126.408,29.500 126.500 C 29.500 126.592,29.762 126.667,30.083 126.667 C 30.404 126.667,30.667 126.742,30.667 126.833 C 30.667 126.925,30.929 127.000,31.250 127.000 C 31.657 127.000,31.833 127.075,31.833 127.250 C 31.833 127.425,32.009 127.500,32.417 127.500 C 32.737 127.500,33.000 127.575,33.000 127.667 C 33.000 127.758,33.329 127.833,33.732 127.833 C 34.229 127.833,34.495 127.914,34.560 128.083 C 34.630 128.264,34.912 128.333,35.578 128.333 C 36.085 128.333,36.500 128.408,36.500 128.500 C 36.500 128.595,37.000 128.667,37.667 128.667 C 38.333 128.667,38.833 128.738,38.833 128.833 C 38.833 128.942,41.417 129.000,46.250 129.000 C 51.083 129.000,53.667 128.942,53.667 128.833 C 53.667 128.735,54.250 128.667,55.083 128.667 C 55.917 128.667,56.500 128.598,56.500 128.500 C 56.500 128.408,56.913 128.333,57.417 128.333 C 58.120 128.333,58.333 128.275,58.333 128.083 C 58.333 127.889,58.556 127.833,59.333 127.833 C 59.889 127.833,60.333 127.759,60.333 127.667 C 60.333 127.575,60.596 127.500,60.917 127.500 C 61.324 127.500,61.500 127.425,61.500 127.250 C 61.500 127.075,61.676 127.000,62.083 127.000 C 62.404 127.000,62.667 126.925,62.667 126.833 C 62.667 126.742,62.854 126.667,63.083 126.667 C 63.313 126.667,63.500 126.592,63.500 126.500 C 63.500 126.408,63.762 126.333,64.083 126.333 C 64.491 126.333,64.667 126.258,64.667 126.083 C 64.667 125.928,64.824 125.833,65.083 125.833 C 65.313 125.833,65.500 125.758,65.500 125.667 C 65.500 125.575,65.650 125.500,65.833 125.500 C 66.017 125.500,66.167 125.425,66.167 125.333 C 66.167 125.242,66.279 125.167,66.417 125.167 C 66.554 125.167,66.667 125.054,66.667 124.917 C 66.667 124.778,66.815 124.667,67.000 124.667 C 67.183 124.667,67.333 124.592,67.333 124.500 C 67.333 124.408,67.446 124.333,67.583 124.333 C 67.721 124.333,67.833 124.258,67.833 124.167 C 67.833 124.075,67.983 124.000,68.167 124.000 C 68.352 124.000,68.500 123.889,68.500 123.750 C 68.500 123.612,68.578 123.500,68.674 123.500 C 68.770 123.500,69.033 123.316,69.258 123.091 C 69.483 122.866,69.667 122.603,69.667 122.508 C 69.667 122.412,69.745 122.333,69.841 122.333 C 70.145 122.333,70.833 121.529,70.833 121.174 C 70.833 120.987,70.914 120.833,71.012 120.833 C 71.243 120.833,71.667 120.409,71.667 120.179 C 71.667 120.080,71.742 120.000,71.833 120.000 C 71.925 120.000,72.000 119.850,72.000 119.667 C 72.000 119.481,72.111 119.333,72.250 119.333 C 72.406 119.333,72.500 119.176,72.500 118.917 C 72.500 118.688,72.575 118.500,72.667 118.500 C 72.758 118.500,72.833 118.313,72.833 118.083 C 72.833 117.854,72.908 117.667,73.000 117.667 C 73.092 117.667,73.167 117.517,73.167 117.333 C 73.167 117.148,73.278 117.000,73.417 117.000 C 73.591 117.000,73.667 116.824,73.667 116.417 C 73.667 116.096,73.742 115.833,73.833 115.833 C 73.925 115.833,74.000 115.571,74.000 115.250 C 74.000 114.929,74.075 114.667,74.167 114.667 C 74.258 114.667,74.333 114.292,74.333 113.833 C 74.333 113.204,74.394 113.000,74.583 113.000 C 74.782 113.000,74.833 112.759,74.833 111.833 C 74.833 111.167,74.905 110.667,75.000 110.667 C 75.110 110.667,75.167 104.778,75.167 93.333 C 75.167 81.889,75.110 76.000,75.000 76.000 C 74.902 76.000,74.833 75.417,74.833 74.583 C 74.833 73.435,74.786 73.167,74.583 73.167 C 74.398 73.167,74.333 72.972,74.333 72.417 C 74.333 72.004,74.258 71.667,74.167 71.667 C 74.075 71.667,74.000 71.334,74.000 70.927 C 74.000 70.519,73.925 70.140,73.833 70.083 C 73.742 70.027,73.667 69.835,73.667 69.657 C 73.667 69.479,73.554 69.333,73.417 69.333 C 73.242 69.333,73.167 69.157,73.167 68.750 C 73.167 68.429,73.092 68.167,73.000 68.167 C 72.908 68.167,72.833 68.011,72.833 67.821 C 72.833 67.452,72.473 67.000,72.179 67.000 C 72.080 67.000,72.000 66.829,72.000 66.620 C 72.000 66.411,71.850 66.132,71.667 66.000 C 71.483 65.868,71.333 65.589,71.333 65.380 C 71.333 65.171,71.253 65.000,71.155 65.000 C 70.961 65.000,70.500 64.590,70.500 64.417 C 70.500 64.278,70.056 63.833,69.917 63.833 C 69.778 63.833,69.333 63.389,69.333 63.250 C 69.333 63.111,68.889 62.667,68.750 62.667 C 68.577 62.667,68.167 62.206,68.167 62.012 C 68.167 61.914,67.998 61.832,67.792 61.830 C 67.573 61.828,67.209 61.584,66.918 61.246 C 66.644 60.928,66.288 60.667,66.127 60.667 C 65.965 60.667,65.833 60.592,65.833 60.500 C 65.833 60.408,65.646 60.333,65.417 60.333 C 65.188 60.333,65.000 60.258,65.000 60.167 C 65.000 60.075,64.858 60.000,64.684 60.000 C 64.511 60.000,64.326 59.887,64.273 59.750 C 64.220 59.612,64.025 59.500,63.839 59.500 C 63.652 59.500,63.500 59.425,63.500 59.333 C 63.500 59.242,63.237 59.167,62.917 59.167 C 62.596 59.167,62.333 59.092,62.333 59.000 C 62.333 58.908,62.146 58.833,61.917 58.833 C 61.657 58.833,61.500 58.739,61.500 58.583 C 61.500 58.409,61.324 58.333,60.917 58.333 C 60.596 58.333,60.333 58.258,60.333 58.167 C 60.333 58.075,59.996 58.000,59.583 58.000 C 59.171 58.000,58.833 57.925,58.833 57.833 C 58.833 57.742,58.458 57.667,58.000 57.667 C 57.370 57.667,57.167 57.606,57.167 57.417 C 57.167 57.225,56.954 57.167,56.250 57.167 C 55.746 57.167,55.333 57.092,55.333 57.000 C 55.333 56.902,54.755 56.833,53.931 56.833 C 53.007 56.833,52.506 56.767,52.463 56.638 C 52.398 56.443,38.825 56.281,36.375 56.446 M116.125 56.446 C 115.506 56.484,115.000 56.587,115.000 56.674 C 115.000 56.762,114.475 56.833,113.833 56.833 C 113.167 56.833,112.667 56.905,112.667 57.000 C 112.667 57.092,112.252 57.167,111.745 57.167 C 111.079 57.167,110.796 57.236,110.727 57.417 C 110.662 57.586,110.396 57.667,109.899 57.667 C 109.496 57.667,109.167 57.742,109.167 57.833 C 109.167 57.925,108.904 58.000,108.583 58.000 C 108.263 58.000,108.000 58.075,108.000 58.167 C 108.000 58.258,107.737 58.333,107.417 58.333 C 107.009 58.333,106.833 58.409,106.833 58.583 C 106.833 58.758,106.657 58.833,106.250 58.833 C 105.929 58.833,105.667 58.908,105.667 59.000 C 105.667 59.092,105.479 59.167,105.250 59.167 C 105.021 59.167,104.833 59.242,104.833 59.333 C 104.833 59.425,104.683 59.500,104.500 59.500 C 104.315 59.500,104.167 59.611,104.167 59.750 C 104.167 59.906,104.009 60.000,103.750 60.000 C 103.521 60.000,103.333 60.075,103.333 60.167 C 103.333 60.258,103.178 60.333,102.988 60.333 C 102.619 60.333,102.167 60.694,102.167 60.988 C 102.167 61.086,101.996 61.167,101.787 61.167 C 101.578 61.167,101.299 61.317,101.167 61.500 C 101.035 61.683,100.755 61.833,100.547 61.833 C 100.338 61.833,100.167 61.912,100.167 62.008 C 100.167 62.234,99.400 63.000,99.174 63.000 C 99.078 63.000,99.000 63.085,99.000 63.189 C 99.000 63.388,98.171 64.166,97.958 64.166 C 97.890 64.167,97.833 64.247,97.833 64.345 C 97.833 64.539,97.423 65.000,97.250 65.000 C 97.030 65.000,96.667 65.487,96.667 65.782 C 96.667 65.950,96.479 66.228,96.250 66.400 C 96.021 66.573,95.833 66.836,95.833 66.987 C 95.833 67.137,95.683 67.368,95.500 67.500 C 95.317 67.632,95.167 67.911,95.167 68.120 C 95.167 68.347,95.066 68.500,94.917 68.500 C 94.761 68.500,94.667 68.657,94.667 68.917 C 94.667 69.146,94.592 69.333,94.500 69.333 C 94.408 69.333,94.333 69.521,94.333 69.750 C 94.333 69.979,94.258 70.167,94.167 70.167 C 94.075 70.167,94.000 70.429,94.000 70.750 C 94.000 71.157,93.925 71.333,93.750 71.333 C 93.575 71.333,93.500 71.509,93.500 71.917 C 93.500 72.237,93.425 72.500,93.333 72.500 C 93.242 72.500,93.167 72.762,93.167 73.083 C 93.167 73.404,93.092 73.667,93.000 73.667 C 92.908 73.667,92.833 74.004,92.833 74.417 C 92.833 74.972,92.769 75.167,92.583 75.167 C 92.389 75.167,92.333 75.389,92.333 76.167 C 92.333 76.722,92.259 77.167,92.167 77.167 C 92.060 77.167,92.000 78.778,92.000 81.667 C 92.000 84.556,91.940 86.167,91.833 86.167 C 91.724 86.167,91.667 91.028,91.667 100.417 C 91.667 109.806,91.724 114.667,91.833 114.667 C 91.938 114.667,92.000 115.806,92.000 117.750 C 92.000 119.694,92.062 120.833,92.167 120.833 C 92.258 120.833,92.333 121.021,92.333 121.250 C 92.333 121.509,92.428 121.667,92.583 121.667 C 92.755 121.667,92.833 121.839,92.833 122.213 C 92.833 122.569,92.950 122.844,93.167 123.000 C 93.350 123.132,93.500 123.411,93.500 123.620 C 93.500 123.829,93.578 124.000,93.674 124.000 C 93.900 124.000,94.667 124.766,94.667 124.992 C 94.667 125.088,94.763 125.167,94.880 125.167 C 94.997 125.167,95.201 125.317,95.333 125.500 C 95.465 125.683,95.745 125.833,95.953 125.833 C 96.162 125.833,96.333 125.914,96.333 126.012 C 96.333 126.350,96.811 126.667,97.321 126.667 C 97.603 126.667,97.833 126.742,97.833 126.833 C 97.833 126.925,98.021 127.000,98.250 127.000 C 98.509 127.000,98.667 127.094,98.667 127.250 C 98.667 127.465,99.185 127.500,102.333 127.500 C 105.481 127.500,106.000 127.465,106.000 127.250 C 106.000 127.112,106.112 127.000,106.250 127.000 C 106.389 127.000,106.500 126.852,106.500 126.667 C 106.500 126.483,106.575 126.333,106.667 126.333 C 106.777 126.333,106.833 118.722,106.833 103.833 C 106.833 88.944,106.890 81.333,107.000 81.333 C 107.097 81.333,107.167 80.778,107.167 80.000 C 107.167 78.926,107.215 78.667,107.417 78.667 C 107.591 78.667,107.667 78.491,107.667 78.083 C 107.667 77.762,107.742 77.500,107.833 77.500 C 107.925 77.500,108.000 77.313,108.000 77.083 C 108.000 76.854,108.075 76.667,108.167 76.667 C 108.258 76.667,108.333 76.525,108.333 76.351 C 108.333 76.178,108.446 75.992,108.583 75.940 C 108.721 75.887,108.833 75.708,108.833 75.542 C 108.833 75.376,108.983 75.132,109.167 75.000 C 109.350 74.868,109.500 74.664,109.500 74.547 C 109.500 74.429,109.578 74.333,109.674 74.333 C 109.900 74.333,110.667 73.567,110.667 73.341 C 110.667 73.245,110.838 73.167,111.047 73.167 C 111.255 73.167,111.535 73.017,111.667 72.833 C 111.799 72.650,112.078 72.500,112.287 72.500 C 112.513 72.500,112.667 72.399,112.667 72.250 C 112.667 72.075,112.843 72.000,113.250 72.000 C 113.571 72.000,113.833 71.925,113.833 71.833 C 113.833 71.742,114.096 71.667,114.417 71.667 C 114.737 71.667,115.000 71.592,115.000 71.500 C 115.000 71.407,115.444 71.333,116.000 71.333 C 116.778 71.333,117.000 71.278,117.000 71.083 C 117.000 70.867,117.657 70.833,121.917 70.833 C 126.176 70.833,126.833 70.867,126.833 71.083 C 126.833 71.275,127.046 71.333,127.750 71.333 C 128.254 71.333,128.667 71.408,128.667 71.500 C 128.667 71.592,128.929 71.667,129.250 71.667 C 129.571 71.667,129.833 71.742,129.833 71.833 C 129.833 71.925,130.013 72.000,130.232 72.000 C 130.452 72.000,130.674 72.112,130.727 72.250 C 130.780 72.387,130.975 72.500,131.161 72.500 C 131.348 72.500,131.500 72.575,131.500 72.667 C 131.500 72.758,131.650 72.833,131.833 72.833 C 132.017 72.833,132.167 72.908,132.167 73.000 C 132.167 73.092,132.279 73.167,132.417 73.167 C 132.554 73.167,132.667 73.279,132.667 73.417 C 132.667 73.556,132.815 73.667,133.000 73.667 C 133.183 73.667,133.333 73.742,133.333 73.833 C 133.333 73.925,133.414 74.000,133.512 74.000 C 133.610 74.000,133.798 74.107,133.929 74.238 C 134.060 74.369,134.167 74.557,134.167 74.655 C 134.167 74.753,134.242 74.833,134.333 74.833 C 134.425 74.833,134.500 74.983,134.500 75.167 C 134.500 75.352,134.611 75.500,134.750 75.500 C 134.906 75.500,135.000 75.657,135.000 75.917 C 135.000 76.146,135.075 76.333,135.167 76.333 C 135.258 76.333,135.333 76.521,135.333 76.750 C 135.333 76.979,135.408 77.167,135.500 77.167 C 135.592 77.167,135.667 77.317,135.667 77.500 C 135.667 77.685,135.778 77.833,135.917 77.833 C 136.111 77.833,136.167 78.056,136.167 78.833 C 136.167 79.389,136.241 79.833,136.333 79.833 C 136.442 79.833,136.500 82.222,136.500 86.667 C 136.500 91.111,136.558 93.500,136.667 93.500 C 136.776 93.500,136.833 98.052,136.833 106.821 C 136.833 118.440,136.865 120.175,137.083 120.393 C 137.221 120.530,137.333 120.873,137.333 121.155 C 137.333 121.436,137.408 121.667,137.500 121.667 C 137.592 121.667,137.667 121.817,137.667 122.000 C 137.667 122.185,137.778 122.333,137.917 122.333 C 138.072 122.333,138.167 122.491,138.167 122.750 C 138.167 122.979,138.242 123.167,138.333 123.167 C 138.425 123.167,138.500 123.322,138.500 123.512 C 138.500 123.839,138.851 124.333,139.083 124.333 C 139.222 124.333,139.667 124.778,139.667 124.917 C 139.667 125.090,140.127 125.500,140.321 125.500 C 140.420 125.500,140.500 125.575,140.500 125.667 C 140.500 125.758,140.650 125.833,140.833 125.833 C 141.019 125.833,141.167 125.944,141.167 126.083 C 141.167 126.221,141.279 126.333,141.417 126.333 C 141.554 126.333,141.667 126.408,141.667 126.500 C 141.667 126.592,141.929 126.667,142.250 126.667 C 142.571 126.667,142.833 126.742,142.833 126.833 C 142.833 126.925,142.983 127.000,143.167 127.000 C 143.352 127.000,143.500 127.111,143.500 127.250 C 143.500 127.465,144.028 127.500,147.250 127.500 C 149.806 127.500,151.000 127.443,151.000 127.321 C 151.000 127.091,151.424 126.667,151.655 126.667 C 151.971 126.667,151.900 78.848,151.583 78.727 C 151.390 78.653,151.333 78.331,151.333 77.316 C 151.333 76.550,151.264 76.000,151.167 76.000 C 151.075 76.000,151.000 75.625,151.000 75.167 C 151.000 74.708,150.925 74.333,150.833 74.333 C 150.742 74.333,150.667 73.996,150.667 73.583 C 150.667 73.028,150.602 72.833,150.417 72.833 C 150.242 72.833,150.167 72.657,150.167 72.250 C 150.167 71.929,150.092 71.667,150.000 71.667 C 149.908 71.667,149.833 71.404,149.833 71.083 C 149.833 70.676,149.758 70.500,149.583 70.500 C 149.428 70.500,149.333 70.343,149.333 70.083 C 149.333 69.854,149.258 69.667,149.167 69.667 C 149.075 69.667,149.000 69.521,149.000 69.343 C 149.000 69.165,148.925 68.973,148.833 68.917 C 148.742 68.860,148.667 68.668,148.667 68.490 C 148.667 68.312,148.554 68.167,148.417 68.167 C 148.268 68.167,148.167 68.013,148.167 67.787 C 148.167 67.578,148.017 67.299,147.833 67.167 C 147.650 67.035,147.500 66.755,147.500 66.547 C 147.500 66.338,147.420 66.167,147.321 66.167 C 147.127 66.167,146.667 65.756,146.667 65.583 C 146.667 65.410,146.206 65.000,146.012 65.000 C 145.914 65.000,145.833 64.847,145.833 64.659 C 145.833 64.304,145.145 63.500,144.841 63.500 C 144.745 63.500,144.667 63.420,144.667 63.321 C 144.667 63.051,144.226 62.667,143.917 62.667 C 143.647 62.667,143.167 62.293,143.167 62.083 C 143.167 61.863,142.680 61.500,142.385 61.500 C 142.217 61.500,141.938 61.313,141.766 61.083 C 141.594 60.854,141.330 60.667,141.180 60.667 C 141.030 60.667,140.799 60.517,140.667 60.333 C 140.535 60.150,140.255 60.000,140.047 60.000 C 139.820 60.000,139.667 59.899,139.667 59.750 C 139.667 59.594,139.509 59.500,139.250 59.500 C 139.021 59.500,138.833 59.425,138.833 59.333 C 138.833 59.242,138.571 59.167,138.250 59.167 C 137.929 59.167,137.667 59.092,137.667 59.000 C 137.667 58.908,137.479 58.833,137.250 58.833 C 136.991 58.833,136.833 58.739,136.833 58.583 C 136.833 58.409,136.657 58.333,136.250 58.333 C 135.929 58.333,135.667 58.258,135.667 58.167 C 135.667 58.075,135.329 58.000,134.917 58.000 C 134.504 58.000,134.167 57.925,134.167 57.833 C 134.167 57.742,133.904 57.667,133.583 57.667 C 133.176 57.667,133.000 57.591,133.000 57.417 C 133.000 57.222,132.778 57.167,132.000 57.167 C 131.444 57.167,131.000 57.093,131.000 57.000 C 131.000 56.905,130.505 56.833,129.847 56.833 C 129.106 56.833,128.671 56.763,128.629 56.636 C 128.562 56.436,118.726 56.287,116.125 56.446 M224.792 56.446 C 224.356 56.486,224.000 56.589,224.000 56.676 C 224.000 56.762,223.550 56.833,223.000 56.833 C 222.444 56.833,222.000 56.907,222.000 57.000 C 222.000 57.092,221.588 57.167,221.083 57.167 C 220.380 57.167,220.167 57.225,220.167 57.417 C 220.167 57.606,219.963 57.667,219.333 57.667 C 218.875 57.667,218.500 57.742,218.500 57.833 C 218.500 57.925,218.237 58.000,217.917 58.000 C 217.596 58.000,217.333 58.075,217.333 58.167 C 217.333 58.258,217.071 58.333,216.750 58.333 C 216.343 58.333,216.167 58.409,216.167 58.583 C 216.167 58.758,215.991 58.833,215.583 58.833 C 215.262 58.833,215.000 58.908,215.000 59.000 C 215.000 59.092,214.850 59.167,214.667 59.167 C 214.483 59.167,214.333 59.242,214.333 59.333 C 214.333 59.425,214.146 59.500,213.917 59.500 C 213.657 59.500,213.500 59.594,213.500 59.750 C 213.500 59.899,213.347 60.000,213.120 60.000 C 212.911 60.000,212.632 60.150,212.500 60.333 C 212.368 60.517,212.089 60.667,211.880 60.667 C 211.671 60.667,211.500 60.752,211.500 60.856 C 211.500 61.131,210.632 61.833,210.292 61.833 C 210.131 61.833,210.000 61.946,210.000 62.083 C 210.000 62.221,209.922 62.333,209.826 62.333 C 209.600 62.333,208.833 63.100,208.833 63.326 C 208.833 63.422,208.755 63.500,208.659 63.500 C 208.433 63.500,207.667 64.266,207.667 64.492 C 207.667 64.588,207.554 64.667,207.417 64.667 C 207.278 64.667,207.167 64.815,207.167 65.000 C 207.167 65.183,207.092 65.333,207.000 65.333 C 206.908 65.333,206.833 65.446,206.833 65.583 C 206.833 65.721,206.758 65.833,206.667 65.833 C 206.575 65.833,206.500 65.949,206.500 66.091 C 206.500 66.233,206.313 66.523,206.083 66.735 C 205.854 66.948,205.667 67.244,205.667 67.394 C 205.667 67.544,205.592 67.667,205.500 67.667 C 205.408 67.667,205.333 67.854,205.333 68.083 C 205.333 68.343,205.239 68.500,205.083 68.500 C 204.928 68.500,204.833 68.657,204.833 68.917 C 204.833 69.146,204.758 69.333,204.667 69.333 C 204.575 69.333,204.500 69.479,204.500 69.657 C 204.500 69.835,204.425 70.027,204.333 70.083 C 204.242 70.140,204.167 70.444,204.167 70.760 C 204.167 71.159,204.090 71.333,203.917 71.333 C 203.742 71.333,203.667 71.509,203.667 71.917 C 203.667 72.237,203.592 72.500,203.500 72.500 C 203.408 72.500,203.333 72.837,203.333 73.250 C 203.333 73.662,203.258 74.000,203.167 74.000 C 203.075 74.000,203.000 74.337,203.000 74.750 C 203.000 75.306,202.935 75.500,202.750 75.500 C 202.552 75.500,202.500 75.741,202.500 76.667 C 202.500 77.333,202.429 77.833,202.333 77.833 C 202.223 77.833,202.167 84.778,202.167 98.333 C 202.167 111.889,202.223 118.833,202.333 118.833 C 202.425 118.833,202.500 119.208,202.500 119.667 C 202.500 120.296,202.561 120.500,202.750 120.500 C 202.925 120.500,203.000 120.676,203.000 121.083 C 203.000 121.404,203.075 121.667,203.167 121.667 C 203.258 121.667,203.333 121.817,203.333 122.000 C 203.333 122.183,203.408 122.333,203.500 122.333 C 203.592 122.333,203.667 122.521,203.667 122.750 C 203.667 122.979,203.747 123.167,203.845 123.167 C 204.115 123.167,204.500 123.607,204.500 123.917 C 204.500 124.226,204.885 124.667,205.155 124.667 C 205.253 124.667,205.333 124.747,205.333 124.845 C 205.333 125.115,205.774 125.500,206.083 125.500 C 206.393 125.500,206.833 125.885,206.833 126.155 C 206.833 126.253,207.021 126.333,207.250 126.333 C 207.479 126.333,207.667 126.408,207.667 126.500 C 207.667 126.592,207.817 126.667,208.000 126.667 C 208.183 126.667,208.333 126.742,208.333 126.833 C 208.333 126.925,208.521 127.000,208.750 127.000 C 209.009 127.000,209.167 127.094,209.167 127.250 C 209.167 127.464,209.667 127.500,212.667 127.500 C 215.667 127.500,216.167 127.464,216.167 127.250 C 216.167 127.112,216.247 127.000,216.345 127.000 C 217.009 127.000,217.000 127.240,217.000 110.429 C 217.000 99.810,217.057 94.333,217.167 94.333 C 217.275 94.333,217.333 91.667,217.333 86.667 C 217.333 79.963,217.365 79.000,217.583 79.000 C 217.769 79.000,217.833 78.806,217.833 78.250 C 217.833 77.837,217.908 77.500,218.000 77.500 C 218.092 77.500,218.167 77.237,218.167 76.917 C 218.167 76.596,218.242 76.333,218.333 76.333 C 218.425 76.333,218.500 76.146,218.500 75.917 C 218.500 75.688,218.580 75.500,218.679 75.500 C 218.949 75.500,219.333 75.059,219.333 74.750 C 219.333 74.481,219.707 74.000,219.917 74.000 C 220.056 74.000,220.500 73.556,220.500 73.417 C 220.500 73.185,220.995 72.833,221.321 72.833 C 221.511 72.833,221.667 72.758,221.667 72.667 C 221.667 72.575,221.819 72.500,222.005 72.500 C 222.191 72.500,222.387 72.387,222.440 72.250 C 222.492 72.112,222.678 72.000,222.851 72.000 C 223.025 72.000,223.167 71.925,223.167 71.833 C 223.167 71.742,223.429 71.667,223.750 71.667 C 224.071 71.667,224.333 71.592,224.333 71.500 C 224.333 71.408,224.708 71.333,225.167 71.333 C 225.796 71.333,226.000 71.272,226.000 71.083 C 226.000 70.877,226.306 70.833,227.750 70.833 C 228.806 70.833,229.500 70.767,229.500 70.667 C 229.500 70.575,229.762 70.500,230.083 70.500 C 230.404 70.500,230.667 70.575,230.667 70.667 C 230.667 70.767,231.355 70.833,232.399 70.833 C 233.785 70.833,234.150 70.883,234.227 71.083 C 234.296 71.264,234.579 71.333,235.245 71.333 C 235.752 71.333,236.167 71.408,236.167 71.500 C 236.167 71.592,236.354 71.667,236.583 71.667 C 236.813 71.667,237.000 71.742,237.000 71.833 C 237.000 71.925,237.262 72.000,237.583 72.000 C 237.904 72.000,238.167 72.080,238.167 72.179 C 238.167 72.449,238.607 72.833,238.917 72.833 C 239.186 72.833,239.667 73.207,239.667 73.417 C 239.667 73.556,240.111 74.000,240.250 74.000 C 240.460 74.000,240.833 74.481,240.833 74.750 C 240.833 75.059,241.218 75.500,241.488 75.500 C 241.586 75.500,241.667 75.688,241.667 75.917 C 241.667 76.146,241.742 76.333,241.833 76.333 C 241.925 76.333,242.000 76.596,242.000 76.917 C 242.000 77.237,242.075 77.500,242.167 77.500 C 242.259 77.500,242.333 77.944,242.333 78.500 C 242.333 79.278,242.389 79.500,242.583 79.500 C 242.800 79.500,242.833 80.194,242.833 84.750 C 242.833 88.139,242.892 90.000,243.000 90.000 C 243.110 90.000,243.167 95.056,243.167 104.833 C 243.167 114.611,243.223 119.667,243.333 119.667 C 243.425 119.667,243.500 119.929,243.500 120.250 C 243.500 120.657,243.575 120.833,243.750 120.833 C 243.925 120.833,244.000 121.009,244.000 121.417 C 244.000 121.737,244.075 122.000,244.167 122.000 C 244.258 122.000,244.333 122.188,244.333 122.417 C 244.333 122.646,244.408 122.833,244.500 122.833 C 244.592 122.833,244.667 122.983,244.667 123.167 C 244.667 123.352,244.778 123.500,244.917 123.500 C 245.054 123.500,245.167 123.578,245.167 123.674 C 245.167 123.900,245.933 124.667,246.159 124.667 C 246.255 124.667,246.333 124.745,246.333 124.841 C 246.333 125.067,247.100 125.833,247.326 125.833 C 247.422 125.833,247.500 125.946,247.500 126.083 C 247.500 126.221,247.646 126.333,247.823 126.333 C 248.001 126.333,248.193 126.408,248.250 126.500 C 248.307 126.592,248.499 126.667,248.677 126.667 C 248.854 126.667,249.000 126.742,249.000 126.833 C 249.000 126.925,249.262 127.000,249.583 127.000 C 249.991 127.000,250.167 127.075,250.167 127.250 C 250.167 127.464,250.648 127.500,253.500 127.500 C 256.352 127.500,256.833 127.464,256.833 127.250 C 256.833 127.112,256.908 127.000,257.000 127.000 C 257.092 127.000,257.167 126.850,257.167 126.667 C 257.167 126.481,257.278 126.333,257.417 126.333 C 257.638 126.333,257.667 123.704,257.667 103.667 C 257.667 88.667,257.723 81.000,257.833 81.000 C 257.929 81.000,258.000 80.500,258.000 79.833 C 258.000 79.167,258.071 78.667,258.167 78.667 C 258.258 78.667,258.333 78.329,258.333 77.917 C 258.333 77.361,258.398 77.167,258.583 77.167 C 258.739 77.167,258.833 77.009,258.833 76.750 C 258.833 76.521,258.908 76.333,259.000 76.333 C 259.092 76.333,259.167 76.146,259.167 75.917 C 259.167 75.688,259.242 75.500,259.333 75.500 C 259.425 75.500,259.500 75.391,259.500 75.257 C 259.500 74.978,260.732 73.667,260.993 73.667 C 261.089 73.667,261.167 73.586,261.167 73.488 C 261.167 73.218,261.607 72.833,261.917 72.833 C 262.226 72.833,262.667 72.449,262.667 72.179 C 262.667 72.080,262.929 72.000,263.250 72.000 C 263.571 72.000,263.833 71.925,263.833 71.833 C 263.833 71.742,264.096 71.667,264.417 71.667 C 264.737 71.667,265.000 71.592,265.000 71.500 C 265.000 71.408,265.340 71.333,265.755 71.333 C 266.273 71.333,266.541 71.255,266.606 71.083 C 266.683 70.883,267.049 70.833,268.434 70.833 C 269.478 70.833,270.167 70.767,270.167 70.667 C 270.167 70.575,270.429 70.500,270.750 70.500 C 271.071 70.500,271.333 70.575,271.333 70.667 C 271.333 70.767,272.028 70.833,273.083 70.833 C 274.528 70.833,274.833 70.877,274.833 71.083 C 274.833 71.269,275.028 71.333,275.583 71.333 C 275.996 71.333,276.333 71.408,276.333 71.500 C 276.333 71.592,276.596 71.667,276.917 71.667 C 277.237 71.667,277.500 71.742,277.500 71.833 C 277.500 71.925,277.688 72.000,277.917 72.000 C 278.176 72.000,278.333 72.094,278.333 72.250 C 278.333 72.406,278.491 72.500,278.750 72.500 C 278.979 72.500,279.167 72.575,279.167 72.667 C 279.167 72.758,279.317 72.833,279.500 72.833 C 279.683 72.833,279.833 72.908,279.833 73.000 C 279.833 73.092,279.946 73.167,280.083 73.167 C 280.221 73.167,280.333 73.245,280.333 73.341 C 280.333 73.567,281.100 74.333,281.326 74.333 C 281.422 74.333,281.500 74.504,281.500 74.713 C 281.500 74.922,281.650 75.201,281.833 75.333 C 282.050 75.490,282.167 75.765,282.167 76.120 C 282.167 76.495,282.245 76.667,282.417 76.667 C 282.572 76.667,282.667 76.824,282.667 77.083 C 282.667 77.313,282.742 77.500,282.833 77.500 C 282.926 77.500,283.000 77.944,283.000 78.500 C 283.000 79.056,283.074 79.500,283.167 79.500 C 283.277 79.500,283.333 85.250,283.333 96.417 C 283.333 111.343,283.363 113.333,283.583 113.333 C 283.797 113.333,283.833 113.796,283.833 116.500 C 283.833 118.500,283.895 119.667,284.000 119.667 C 284.092 119.667,284.167 119.929,284.167 120.250 C 284.167 120.571,284.242 120.833,284.333 120.833 C 284.425 120.833,284.500 121.096,284.500 121.417 C 284.500 121.824,284.575 122.000,284.750 122.000 C 284.899 122.000,285.000 122.153,285.000 122.380 C 285.000 122.589,285.150 122.868,285.333 123.000 C 285.517 123.132,285.667 123.341,285.667 123.464 C 285.667 123.718,287.755 125.833,288.005 125.833 C 288.094 125.833,288.167 125.946,288.167 126.083 C 288.167 126.222,288.315 126.333,288.500 126.333 C 288.683 126.333,288.833 126.408,288.833 126.500 C 288.833 126.592,289.021 126.667,289.250 126.667 C 289.479 126.667,289.667 126.742,289.667 126.833 C 289.667 126.925,289.929 127.000,290.250 127.000 C 290.657 127.000,290.833 127.075,290.833 127.250 C 290.833 127.464,291.333 127.500,294.333 127.500 C 297.333 127.500,297.833 127.464,297.833 127.250 C 297.833 127.112,297.908 127.000,298.000 127.000 C 298.092 127.000,298.167 126.850,298.167 126.667 C 298.167 126.481,298.278 126.333,298.417 126.333 C 298.638 126.333,298.667 123.556,298.667 102.333 C 298.667 81.111,298.638 78.333,298.417 78.333 C 298.214 78.333,298.167 78.065,298.167 76.917 C 298.167 76.083,298.098 75.500,298.000 75.500 C 297.908 75.500,297.833 75.087,297.833 74.583 C 297.833 74.079,297.758 73.667,297.667 73.667 C 297.575 73.667,297.500 73.292,297.500 72.833 C 297.500 72.204,297.439 72.000,297.250 72.000 C 297.075 72.000,297.000 71.824,297.000 71.417 C 297.000 71.096,296.925 70.833,296.833 70.833 C 296.742 70.833,296.667 70.571,296.667 70.250 C 296.667 69.929,296.592 69.667,296.500 69.667 C 296.408 69.667,296.333 69.514,296.333 69.328 C 296.333 69.142,296.221 68.946,296.083 68.894 C 295.946 68.841,295.833 68.656,295.833 68.482 C 295.833 68.309,295.758 68.167,295.667 68.167 C 295.575 68.167,295.500 67.979,295.500 67.750 C 295.500 67.521,295.425 67.333,295.333 67.333 C 295.242 67.333,295.167 67.194,295.167 67.023 C 295.167 66.853,294.979 66.573,294.750 66.400 C 294.521 66.228,294.333 65.950,294.333 65.782 C 294.333 65.446,293.960 65.000,293.679 65.000 C 293.580 65.000,293.500 64.847,293.500 64.659 C 293.500 64.304,292.811 63.500,292.508 63.500 C 292.412 63.500,292.333 63.422,292.333 63.326 C 292.333 63.100,291.567 62.333,291.341 62.333 C 291.245 62.333,291.167 62.253,291.167 62.155 C 291.167 61.885,290.726 61.500,290.417 61.500 C 290.107 61.500,289.667 61.115,289.667 60.845 C 289.667 60.747,289.496 60.667,289.287 60.667 C 289.078 60.667,288.799 60.517,288.667 60.333 C 288.535 60.150,288.255 60.000,288.047 60.000 C 287.820 60.000,287.667 59.899,287.667 59.750 C 287.667 59.594,287.509 59.500,287.250 59.500 C 287.021 59.500,286.833 59.425,286.833 59.333 C 286.833 59.242,286.683 59.167,286.500 59.167 C 286.317 59.167,286.167 59.092,286.167 59.000 C 286.167 58.908,285.904 58.833,285.583 58.833 C 285.176 58.833,285.000 58.758,285.000 58.583 C 285.000 58.428,284.843 58.333,284.583 58.333 C 284.354 58.333,284.167 58.258,284.167 58.167 C 284.167 58.075,283.829 58.000,283.417 58.000 C 283.004 58.000,282.667 57.925,282.667 57.833 C 282.667 57.742,282.404 57.667,282.083 57.667 C 281.676 57.667,281.500 57.591,281.500 57.417 C 281.500 57.222,281.278 57.167,280.500 57.167 C 279.944 57.167,279.500 57.093,279.500 57.000 C 279.500 56.908,279.060 56.833,278.514 56.833 C 277.873 56.833,277.503 56.760,277.458 56.625 C 277.404 56.463,276.013 56.417,271.250 56.417 C 266.487 56.417,265.096 56.463,265.042 56.625 C 264.998 56.757,264.644 56.833,264.069 56.833 C 263.573 56.833,263.167 56.908,263.167 57.000 C 263.167 57.092,262.792 57.167,262.333 57.167 C 261.704 57.167,261.500 57.228,261.500 57.417 C 261.500 57.591,261.324 57.667,260.917 57.667 C 260.596 57.667,260.333 57.742,260.333 57.833 C 260.333 57.925,260.071 58.000,259.750 58.000 C 259.429 58.000,259.167 58.075,259.167 58.167 C 259.167 58.258,258.979 58.333,258.750 58.333 C 258.491 58.333,258.333 58.428,258.333 58.583 C 258.333 58.722,258.185 58.833,258.000 58.833 C 257.817 58.833,257.667 58.908,257.667 59.000 C 257.667 59.092,257.479 59.167,257.250 59.167 C 257.021 59.167,256.833 59.242,256.833 59.333 C 256.833 59.425,256.646 59.500,256.417 59.500 C 256.188 59.500,256.000 59.580,256.000 59.679 C 256.000 59.949,255.559 60.333,255.250 60.333 C 254.981 60.333,254.500 60.707,254.500 60.917 C 254.500 61.056,254.056 61.500,253.917 61.500 C 253.778 61.500,253.333 61.944,253.333 62.083 C 253.333 62.222,252.889 62.667,252.750 62.667 C 252.611 62.667,252.167 63.111,252.167 63.250 C 252.167 63.389,251.722 63.833,251.583 63.833 C 251.374 63.833,251.000 64.314,251.000 64.583 C 251.000 64.893,250.615 65.333,250.345 65.333 C 250.247 65.333,250.167 65.183,250.167 65.000 C 250.167 64.817,250.092 64.667,250.000 64.667 C 249.908 64.667,249.833 64.554,249.833 64.417 C 249.833 64.279,249.753 64.167,249.655 64.167 C 249.385 64.167,249.000 63.726,249.000 63.417 C 249.000 63.147,248.626 62.667,248.417 62.667 C 248.278 62.667,247.833 62.222,247.833 62.083 C 247.833 61.944,247.389 61.500,247.250 61.500 C 247.077 61.500,246.667 61.039,246.667 60.845 C 246.667 60.747,246.496 60.667,246.287 60.667 C 246.078 60.667,245.799 60.517,245.667 60.333 C 245.535 60.150,245.255 60.000,245.047 60.000 C 244.838 60.000,244.667 59.920,244.667 59.821 C 244.667 59.527,244.214 59.167,243.845 59.167 C 243.655 59.167,243.500 59.092,243.500 59.000 C 243.500 58.908,243.350 58.833,243.167 58.833 C 242.981 58.833,242.833 58.722,242.833 58.583 C 242.833 58.409,242.657 58.333,242.250 58.333 C 241.929 58.333,241.667 58.258,241.667 58.167 C 241.667 58.075,241.404 58.000,241.083 58.000 C 240.762 58.000,240.500 57.925,240.500 57.833 C 240.500 57.742,240.246 57.667,239.934 57.667 C 239.586 57.667,239.332 57.571,239.273 57.417 C 239.207 57.245,238.939 57.167,238.422 57.167 C 238.007 57.167,237.667 57.092,237.667 57.000 C 237.667 56.908,237.227 56.833,236.681 56.833 C 236.051 56.833,235.670 56.760,235.626 56.629 C 235.558 56.425,226.679 56.275,224.792 56.446 M332.125 56.448 C 331.506 56.485,331.000 56.587,331.000 56.674 C 331.000 56.762,330.587 56.833,330.083 56.833 C 329.579 56.833,329.167 56.908,329.167 57.000 C 329.167 57.092,328.904 57.167,328.583 57.167 C 328.176 57.167,328.000 57.242,328.000 57.417 C 328.000 57.554,327.887 57.667,327.750 57.667 C 327.612 57.667,327.500 57.742,327.500 57.833 C 327.500 57.925,327.350 58.000,327.167 58.000 C 326.983 58.000,326.833 58.075,326.833 58.167 C 326.833 58.258,326.721 58.333,326.583 58.333 C 326.446 58.333,326.333 58.412,326.333 58.508 C 326.333 58.734,325.567 59.500,325.341 59.500 C 325.245 59.500,325.167 59.612,325.167 59.750 C 325.167 59.887,325.092 60.000,325.000 60.000 C 324.908 60.000,324.833 60.123,324.833 60.273 C 324.833 60.422,324.646 60.719,324.417 60.931 C 324.188 61.144,324.000 61.433,324.000 61.575 C 324.000 61.717,323.925 61.833,323.833 61.833 C 323.742 61.833,323.667 61.946,323.667 62.083 C 323.667 62.221,323.554 62.333,323.417 62.333 C 323.242 62.333,323.167 62.509,323.167 62.917 C 323.167 63.237,323.092 63.500,323.000 63.500 C 322.908 63.500,322.833 63.650,322.833 63.833 C 322.833 64.017,322.758 64.167,322.667 64.167 C 322.575 64.167,322.500 64.542,322.500 65.000 C 322.500 65.630,322.439 65.833,322.250 65.833 C 321.811 65.833,321.889 70.165,322.335 70.546 C 322.724 70.879,328.333 70.991,328.333 70.667 C 328.333 70.571,328.833 70.500,329.500 70.500 C 330.426 70.500,330.667 70.448,330.667 70.250 C 330.667 70.042,330.991 70.000,332.583 70.000 C 333.750 70.000,334.500 69.935,334.500 69.833 C 334.500 69.725,336.583 69.667,340.417 69.667 C 344.250 69.667,346.333 69.725,346.333 69.833 C 346.333 69.925,346.738 70.000,347.232 70.000 C 347.877 70.000,348.158 70.071,348.227 70.250 C 348.282 70.395,348.532 70.500,348.818 70.500 C 349.091 70.500,349.360 70.575,349.417 70.667 C 349.473 70.758,349.778 70.833,350.093 70.833 C 350.492 70.833,350.667 70.910,350.667 71.083 C 350.667 71.222,350.815 71.333,351.000 71.333 C 351.183 71.333,351.333 71.408,351.333 71.500 C 351.333 71.592,351.503 71.667,351.710 71.667 C 351.918 71.667,352.228 71.854,352.400 72.083 C 352.573 72.313,352.836 72.500,352.987 72.500 C 353.137 72.500,353.368 72.650,353.500 72.833 C 353.632 73.017,353.836 73.167,353.953 73.167 C 354.071 73.167,354.167 73.279,354.167 73.417 C 354.167 73.554,354.242 73.667,354.333 73.667 C 354.425 73.667,354.500 73.817,354.500 74.000 C 354.500 74.183,354.575 74.333,354.667 74.333 C 354.758 74.333,354.833 74.521,354.833 74.750 C 354.833 75.009,354.928 75.167,355.083 75.167 C 355.239 75.167,355.333 75.324,355.333 75.583 C 355.333 75.813,355.408 76.000,355.500 76.000 C 355.592 76.000,355.667 76.337,355.667 76.750 C 355.667 77.162,355.742 77.500,355.833 77.500 C 355.940 77.500,356.000 78.972,356.000 81.583 L 356.000 85.667 347.083 85.667 C 339.269 85.667,338.167 85.698,338.167 85.917 C 338.167 86.127,337.787 86.167,335.750 86.167 C 334.250 86.167,333.333 86.230,333.333 86.333 C 333.333 86.429,332.833 86.500,332.167 86.500 C 331.500 86.500,331.000 86.571,331.000 86.667 C 331.000 86.758,330.662 86.833,330.250 86.833 C 329.694 86.833,329.500 86.898,329.500 87.083 C 329.500 87.269,329.306 87.333,328.750 87.333 C 328.337 87.333,328.000 87.408,328.000 87.500 C 328.000 87.592,327.737 87.667,327.417 87.667 C 327.096 87.667,326.833 87.742,326.833 87.833 C 326.833 87.925,326.571 88.000,326.250 88.000 C 325.843 88.000,325.667 88.075,325.667 88.250 C 325.667 88.406,325.509 88.500,325.250 88.500 C 325.021 88.500,324.833 88.575,324.833 88.667 C 324.833 88.758,324.571 88.833,324.250 88.833 C 323.929 88.833,323.667 88.908,323.667 89.000 C 323.667 89.092,323.479 89.167,323.250 89.167 C 323.021 89.167,322.833 89.247,322.833 89.345 C 322.833 89.615,322.393 90.000,322.083 90.000 C 321.774 90.000,321.333 90.385,321.333 90.655 C 321.333 90.753,321.181 90.833,320.995 90.833 C 320.616 90.833,317.333 94.002,317.333 94.368 C 317.333 94.492,317.183 94.701,317.000 94.833 C 316.817 94.965,316.667 95.245,316.667 95.453 C 316.667 95.680,316.566 95.833,316.417 95.833 C 316.261 95.833,316.167 95.991,316.167 96.250 C 316.167 96.479,316.092 96.667,316.000 96.667 C 315.908 96.667,315.833 96.817,315.833 97.000 C 315.833 97.183,315.758 97.333,315.667 97.333 C 315.575 97.333,315.500 97.598,315.500 97.922 C 315.500 98.291,315.407 98.546,315.250 98.606 C 315.096 98.666,315.000 98.919,315.000 99.268 C 315.000 99.579,314.925 99.833,314.833 99.833 C 314.742 99.833,314.667 100.171,314.667 100.583 C 314.667 100.996,314.592 101.333,314.500 101.333 C 314.403 101.333,314.333 101.889,314.333 102.667 C 314.333 103.741,314.285 104.000,314.083 104.000 C 313.869 104.000,313.833 104.481,313.833 107.333 C 313.833 110.185,313.869 110.667,314.083 110.667 C 314.282 110.667,314.333 110.907,314.333 111.833 C 314.333 112.500,314.405 113.000,314.500 113.000 C 314.592 113.000,314.667 113.375,314.667 113.833 C 314.667 114.292,314.742 114.667,314.833 114.667 C 314.925 114.667,315.000 114.894,315.000 115.172 C 315.000 115.467,315.104 115.717,315.250 115.773 C 315.404 115.832,315.500 116.086,315.500 116.434 C 315.500 116.746,315.575 117.000,315.667 117.000 C 315.758 117.000,315.833 117.150,315.833 117.333 C 315.833 117.517,315.908 117.667,316.000 117.667 C 316.092 117.667,316.167 117.854,316.167 118.083 C 316.167 118.343,316.261 118.500,316.417 118.500 C 316.572 118.500,316.667 118.657,316.667 118.917 C 316.667 119.146,316.742 119.333,316.833 119.333 C 316.925 119.333,317.000 119.483,317.000 119.667 C 317.000 119.850,317.075 120.000,317.167 120.000 C 317.258 120.000,317.333 120.112,317.333 120.250 C 317.333 120.388,317.446 120.500,317.583 120.500 C 317.722 120.500,317.833 120.648,317.833 120.833 C 317.833 121.017,317.908 121.167,318.000 121.167 C 318.092 121.167,318.167 121.247,318.167 121.345 C 318.167 121.539,318.577 122.000,318.750 122.000 C 318.889 122.000,319.333 122.444,319.333 122.583 C 319.333 122.756,319.794 123.167,319.988 123.167 C 320.086 123.167,320.167 123.242,320.167 123.333 C 320.167 123.425,320.280 123.500,320.420 123.500 C 320.559 123.500,320.927 123.762,321.239 124.083 C 321.551 124.404,321.962 124.667,322.153 124.667 C 322.344 124.667,322.500 124.747,322.500 124.845 C 322.500 125.139,322.952 125.500,323.321 125.500 C 323.511 125.500,323.667 125.575,323.667 125.667 C 323.667 125.758,323.819 125.833,324.005 125.833 C 324.191 125.833,324.387 125.946,324.440 126.083 C 324.492 126.221,324.678 126.333,324.851 126.333 C 325.025 126.333,325.167 126.408,325.167 126.500 C 325.167 126.592,325.429 126.667,325.750 126.667 C 326.071 126.667,326.333 126.742,326.333 126.833 C 326.333 126.925,326.521 127.000,326.750 127.000 C 327.009 127.000,327.167 127.094,327.167 127.250 C 327.167 127.435,327.361 127.500,327.917 127.500 C 328.329 127.500,328.667 127.575,328.667 127.667 C 328.667 127.758,329.042 127.833,329.500 127.833 C 330.130 127.833,330.333 127.894,330.333 128.083 C 330.333 128.275,330.546 128.333,331.250 128.333 C 331.754 128.333,332.167 128.408,332.167 128.500 C 332.167 128.595,332.667 128.667,333.333 128.667 C 334.000 128.667,334.500 128.738,334.500 128.833 C 334.500 128.942,337.167 129.000,342.167 129.000 C 347.167 129.000,349.833 128.942,349.833 128.833 C 349.833 128.736,350.389 128.667,351.167 128.667 C 351.944 128.667,352.500 128.597,352.500 128.500 C 352.500 128.407,352.944 128.333,353.500 128.333 C 354.278 128.333,354.500 128.278,354.500 128.083 C 354.500 127.898,354.694 127.833,355.250 127.833 C 355.662 127.833,356.000 127.758,356.000 127.667 C 356.000 127.575,356.262 127.500,356.583 127.500 C 356.991 127.500,357.167 127.425,357.167 127.250 C 357.167 127.075,357.343 127.000,357.750 127.000 C 358.071 127.000,358.333 126.925,358.333 126.833 C 358.333 126.742,358.596 126.667,358.917 126.667 C 359.238 126.667,359.500 126.592,359.500 126.500 C 359.500 126.408,359.688 126.333,359.917 126.333 C 360.176 126.333,360.333 126.239,360.333 126.083 C 360.333 125.928,360.491 125.833,360.750 125.833 C 360.979 125.833,361.167 125.758,361.167 125.667 C 361.167 125.575,361.317 125.500,361.500 125.500 C 361.683 125.500,361.833 125.425,361.833 125.333 C 361.833 125.242,362.021 125.167,362.250 125.167 C 362.509 125.167,362.667 125.072,362.667 124.917 C 362.667 124.779,362.763 124.667,362.880 124.667 C 362.997 124.667,363.201 124.517,363.333 124.333 C 363.465 124.150,363.675 124.000,363.798 124.000 C 364.110 124.000,367.000 121.073,367.000 120.757 C 367.000 120.616,367.075 120.500,367.167 120.500 C 367.258 120.500,367.333 120.388,367.333 120.250 C 367.333 120.112,367.446 120.000,367.583 120.000 C 367.722 120.000,367.833 119.852,367.833 119.667 C 367.833 119.483,367.908 119.333,368.000 119.333 C 368.092 119.333,368.167 119.221,368.167 119.083 C 368.167 118.946,368.242 118.833,368.333 118.833 C 368.425 118.833,368.500 118.691,368.500 118.518 C 368.500 118.344,368.613 118.159,368.750 118.106 C 368.896 118.050,369.000 117.801,369.000 117.505 C 369.000 117.227,369.075 117.000,369.167 117.000 C 369.258 117.000,369.333 116.813,369.333 116.583 C 369.333 116.354,369.408 116.167,369.500 116.167 C 369.592 116.167,369.667 115.904,369.667 115.583 C 369.667 115.176,369.742 115.000,369.917 115.000 C 370.106 115.000,370.167 114.796,370.167 114.167 C 370.167 113.708,370.242 113.333,370.333 113.333 C 370.429 113.333,370.500 112.833,370.500 112.167 C 370.500 111.500,370.571 111.000,370.667 111.000 C 370.777 111.000,370.833 104.972,370.833 93.250 C 370.833 81.528,370.777 75.500,370.667 75.500 C 370.571 75.500,370.500 75.000,370.500 74.333 C 370.500 73.667,370.429 73.167,370.333 73.167 C 370.242 73.167,370.167 72.754,370.167 72.250 C 370.167 71.546,370.109 71.333,369.917 71.333 C 369.743 71.333,369.667 71.159,369.667 70.760 C 369.667 70.444,369.592 70.140,369.500 70.083 C 369.408 70.027,369.333 69.764,369.333 69.500 C 369.333 69.236,369.258 68.973,369.167 68.917 C 369.075 68.860,369.000 68.668,369.000 68.490 C 369.000 68.312,368.887 68.167,368.750 68.167 C 368.594 68.167,368.500 68.009,368.500 67.750 C 368.500 67.521,368.425 67.333,368.333 67.333 C 368.242 67.333,368.167 67.178,368.167 66.988 C 368.167 66.619,367.806 66.167,367.512 66.167 C 367.414 66.167,367.333 66.013,367.333 65.826 C 367.333 65.471,366.645 64.667,366.341 64.667 C 366.245 64.667,366.167 64.588,366.167 64.492 C 366.167 64.266,365.400 63.500,365.174 63.500 C 365.078 63.500,365.000 63.422,365.000 63.326 C 365.000 63.100,364.234 62.333,364.008 62.333 C 363.912 62.333,363.833 62.253,363.833 62.155 C 363.833 61.885,363.393 61.500,363.083 61.500 C 362.774 61.500,362.333 61.115,362.333 60.845 C 362.333 60.747,362.146 60.667,361.917 60.667 C 361.688 60.667,361.500 60.592,361.500 60.500 C 361.500 60.408,361.313 60.333,361.083 60.333 C 360.854 60.333,360.667 60.258,360.667 60.167 C 360.667 60.075,360.517 60.000,360.333 60.000 C 360.148 60.000,360.000 59.889,360.000 59.750 C 360.000 59.594,359.843 59.500,359.583 59.500 C 359.354 59.500,359.167 59.425,359.167 59.333 C 359.167 59.242,358.979 59.167,358.750 59.167 C 358.521 59.167,358.333 59.092,358.333 59.000 C 358.333 58.908,358.071 58.833,357.750 58.833 C 357.343 58.833,357.167 58.758,357.167 58.583 C 357.167 58.409,356.991 58.333,356.583 58.333 C 356.262 58.333,356.000 58.258,356.000 58.167 C 356.000 58.075,355.662 58.000,355.250 58.000 C 354.837 58.000,354.500 57.925,354.500 57.833 C 354.500 57.742,354.171 57.667,353.768 57.667 C 353.271 57.667,353.005 57.586,352.940 57.417 C 352.868 57.230,352.569 57.167,351.755 57.167 C 351.141 57.167,350.667 57.094,350.667 57.000 C 350.667 56.904,350.144 56.833,349.431 56.833 C 348.590 56.833,348.172 56.767,348.125 56.625 C 348.056 56.419,335.019 56.275,332.125 56.448 M169.208 58.249 C 169.094 58.379,169.000 58.564,169.000 58.660 C 169.000 58.755,168.887 58.833,168.750 58.833 C 168.529 58.833,168.500 62.324,168.500 89.250 C 168.500 116.176,168.529 119.667,168.750 119.667 C 168.925 119.667,169.000 119.843,169.000 120.250 C 169.000 120.571,169.075 120.833,169.167 120.833 C 169.258 120.833,169.333 121.021,169.333 121.250 C 169.333 121.479,169.408 121.667,169.500 121.667 C 169.592 121.667,169.667 121.817,169.667 122.000 C 169.667 122.185,169.778 122.333,169.917 122.333 C 170.057 122.333,170.167 122.482,170.167 122.674 C 170.167 123.129,172.871 125.833,173.326 125.833 C 173.518 125.833,173.667 125.943,173.667 126.083 C 173.667 126.239,173.824 126.333,174.083 126.333 C 174.313 126.333,174.500 126.408,174.500 126.500 C 174.500 126.592,174.650 126.667,174.833 126.667 C 175.017 126.667,175.167 126.742,175.167 126.833 C 175.167 126.925,175.429 127.000,175.750 127.000 C 176.157 127.000,176.333 127.075,176.333 127.250 C 176.333 127.465,176.880 127.500,180.250 127.500 C 183.620 127.500,184.167 127.465,184.167 127.250 C 184.167 127.112,184.242 127.000,184.333 127.000 C 184.425 127.000,184.500 126.850,184.500 126.667 C 184.500 126.481,184.611 126.333,184.750 126.333 C 184.971 126.333,185.000 122.880,185.000 96.250 C 185.000 69.620,184.971 66.167,184.750 66.167 C 184.575 66.167,184.500 65.991,184.500 65.583 C 184.500 65.262,184.425 65.000,184.333 65.000 C 184.242 65.000,184.167 64.737,184.167 64.417 C 184.167 64.096,184.092 63.833,184.000 63.833 C 183.908 63.833,183.833 63.694,183.833 63.523 C 183.833 63.353,183.646 63.073,183.417 62.900 C 183.188 62.728,183.000 62.450,183.000 62.282 C 183.000 61.987,182.637 61.500,182.417 61.500 C 182.278 61.500,181.833 61.056,181.833 60.917 C 181.833 60.744,181.373 60.333,181.179 60.333 C 181.080 60.333,181.000 60.258,181.000 60.167 C 181.000 60.075,180.884 60.000,180.742 60.000 C 180.600 60.000,180.310 59.813,180.098 59.583 C 179.886 59.354,179.589 59.167,179.439 59.167 C 179.289 59.167,179.167 59.092,179.167 59.000 C 179.167 58.908,178.912 58.833,178.601 58.833 C 178.252 58.833,177.999 58.738,177.940 58.583 C 177.884 58.439,177.635 58.333,177.348 58.333 C 177.076 58.333,176.807 58.258,176.750 58.167 C 176.574 57.882,169.463 57.960,169.208 58.249 M60.333 102.917 C 60.333 106.194,60.274 108.000,60.167 108.000 C 60.075 108.000,60.000 108.337,60.000 108.750 C 60.000 109.306,59.935 109.500,59.750 109.500 C 59.594 109.500,59.500 109.657,59.500 109.917 C 59.500 110.146,59.425 110.333,59.333 110.333 C 59.242 110.333,59.167 110.483,59.167 110.667 C 59.167 110.850,59.092 111.000,59.000 111.000 C 58.908 111.000,58.833 111.188,58.833 111.417 C 58.833 111.676,58.739 111.833,58.583 111.833 C 58.446 111.833,58.333 111.890,58.333 111.958 C 58.333 112.171,57.555 113.000,57.356 113.000 C 57.252 113.000,57.167 113.080,57.167 113.179 C 57.167 113.473,56.714 113.833,56.345 113.833 C 56.155 113.833,56.000 113.908,56.000 114.000 C 56.000 114.092,55.850 114.167,55.667 114.167 C 55.481 114.167,55.333 114.278,55.333 114.417 C 55.333 114.572,55.176 114.667,54.917 114.667 C 54.688 114.667,54.500 114.742,54.500 114.833 C 54.500 114.925,54.237 115.000,53.917 115.000 C 53.596 115.000,53.333 115.075,53.333 115.167 C 53.333 115.258,52.996 115.333,52.583 115.333 C 52.028 115.333,51.833 115.398,51.833 115.583 C 51.833 115.800,51.130 115.833,46.500 115.833 C 41.870 115.833,41.167 115.800,41.167 115.583 C 41.167 115.391,40.954 115.333,40.250 115.333 C 39.746 115.333,39.333 115.258,39.333 115.167 C 39.333 115.075,39.146 115.000,38.917 115.000 C 38.688 115.000,38.500 114.925,38.500 114.833 C 38.500 114.742,38.237 114.667,37.917 114.667 C 37.509 114.667,37.333 114.591,37.333 114.417 C 37.333 114.279,37.221 114.167,37.083 114.167 C 36.946 114.167,36.833 114.092,36.833 114.000 C 36.833 113.908,36.683 113.833,36.500 113.833 C 36.317 113.833,36.167 113.758,36.167 113.667 C 36.167 113.575,36.054 113.500,35.917 113.500 C 35.779 113.500,35.667 113.419,35.667 113.319 C 35.667 113.220,35.404 112.884,35.083 112.572 C 34.762 112.261,34.500 111.892,34.500 111.753 C 34.500 111.614,34.425 111.500,34.333 111.500 C 34.242 111.500,34.167 111.313,34.167 111.083 C 34.167 110.854,34.092 110.667,34.000 110.667 C 33.908 110.667,33.833 110.514,33.833 110.328 C 33.833 110.142,33.721 109.946,33.583 109.894 C 33.395 109.821,33.333 109.516,33.333 108.649 C 33.333 107.994,33.262 107.500,33.167 107.500 C 33.075 107.500,33.000 107.237,33.000 106.917 C 33.000 106.596,33.075 106.333,33.167 106.333 C 33.262 106.333,33.333 105.833,33.333 105.167 C 33.333 104.241,33.385 104.000,33.583 104.000 C 33.722 104.000,33.833 103.852,33.833 103.667 C 33.833 103.483,33.908 103.333,34.000 103.333 C 34.092 103.333,34.167 103.146,34.167 102.917 C 34.167 102.688,34.242 102.500,34.333 102.500 C 34.425 102.500,34.500 102.313,34.500 102.083 C 34.500 101.854,34.578 101.667,34.674 101.667 C 34.900 101.667,35.667 100.900,35.667 100.674 C 35.667 100.578,35.763 100.500,35.880 100.500 C 35.997 100.500,36.201 100.350,36.333 100.167 C 36.465 99.983,36.745 99.833,36.953 99.833 C 37.180 99.833,37.333 99.732,37.333 99.583 C 37.333 99.428,37.491 99.333,37.750 99.333 C 37.979 99.333,38.167 99.258,38.167 99.167 C 38.167 99.075,38.317 99.000,38.500 99.000 C 38.685 99.000,38.833 98.889,38.833 98.750 C 38.833 98.575,39.009 98.500,39.417 98.500 C 39.737 98.500,40.000 98.425,40.000 98.333 C 40.000 98.241,40.444 98.167,41.000 98.167 C 41.556 98.167,42.000 98.093,42.000 98.000 C 42.000 97.891,45.167 97.833,51.167 97.833 L 60.333 97.833 60.333 102.917 M356.000 103.083 C 356.000 106.472,355.941 108.333,355.833 108.333 C 355.742 108.333,355.667 108.596,355.667 108.917 C 355.667 109.237,355.592 109.500,355.500 109.500 C 355.408 109.500,355.333 109.763,355.333 110.083 C 355.333 110.491,355.258 110.667,355.083 110.667 C 354.943 110.667,354.833 110.816,354.833 111.007 C 354.833 111.201,354.437 111.735,353.917 112.243 C 353.412 112.735,353.000 113.219,353.000 113.319 C 353.000 113.419,352.887 113.500,352.750 113.500 C 352.613 113.500,352.500 113.575,352.500 113.667 C 352.500 113.758,352.350 113.833,352.167 113.833 C 351.983 113.833,351.833 113.908,351.833 114.000 C 351.833 114.092,351.646 114.167,351.417 114.167 C 351.157 114.167,351.000 114.261,351.000 114.417 C 351.000 114.572,350.843 114.667,350.583 114.667 C 350.354 114.667,350.167 114.742,350.167 114.833 C 350.167 114.925,349.904 115.000,349.583 115.000 C 349.262 115.000,349.000 115.075,349.000 115.167 C 349.000 115.258,348.585 115.333,348.078 115.333 C 347.412 115.333,347.130 115.403,347.060 115.583 C 346.978 115.798,346.248 115.833,341.899 115.833 C 337.507 115.833,336.833 115.800,336.833 115.583 C 336.833 115.391,336.620 115.333,335.917 115.333 C 335.412 115.333,335.000 115.258,335.000 115.167 C 335.000 115.075,334.813 115.000,334.583 115.000 C 334.354 115.000,334.167 114.925,334.167 114.833 C 334.167 114.742,333.979 114.667,333.750 114.667 C 333.491 114.667,333.333 114.572,333.333 114.417 C 333.333 114.278,333.185 114.167,333.000 114.167 C 332.817 114.167,332.667 114.092,332.667 114.000 C 332.667 113.908,332.511 113.833,332.321 113.833 C 331.952 113.833,331.500 113.473,331.500 113.179 C 331.500 113.080,331.415 113.000,331.311 113.000 C 331.036 113.000,330.334 112.132,330.334 111.792 C 330.333 111.631,330.221 111.500,330.083 111.500 C 329.928 111.500,329.833 111.343,329.833 111.083 C 329.833 110.854,329.758 110.667,329.667 110.667 C 329.575 110.667,329.500 110.404,329.500 110.083 C 329.500 109.763,329.425 109.500,329.333 109.500 C 329.230 109.500,329.167 108.556,329.167 107.000 C 329.167 105.444,329.230 104.500,329.333 104.500 C 329.425 104.500,329.500 104.237,329.500 103.917 C 329.500 103.596,329.575 103.333,329.667 103.333 C 329.758 103.333,329.833 103.146,329.833 102.917 C 329.833 102.657,329.928 102.500,330.083 102.500 C 330.222 102.500,330.333 102.352,330.333 102.167 C 330.333 101.732,332.232 99.833,332.667 99.833 C 332.852 99.833,333.000 99.722,333.000 99.583 C 333.000 99.428,333.157 99.333,333.417 99.333 C 333.646 99.333,333.833 99.258,333.833 99.167 C 333.833 99.075,333.983 99.000,334.167 99.000 C 334.352 99.000,334.500 98.889,334.500 98.750 C 334.500 98.575,334.676 98.500,335.083 98.500 C 335.404 98.500,335.667 98.425,335.667 98.333 C 335.667 98.241,336.111 98.167,336.667 98.167 C 337.222 98.167,337.667 98.093,337.667 98.000 C 337.667 97.891,340.833 97.833,346.833 97.833 L 356.000 97.833 356.000 103.083 " stroke="none" fill="#fcfcfc" fill-rule="evenodd"></path><path id="path1" d="M289.333 21.500 C 289.333 21.592,289.178 21.667,288.988 21.667 C 288.619 21.667,288.167 22.027,288.167 22.321 C 288.167 22.420,288.054 22.500,287.917 22.500 C 287.778 22.500,287.667 22.648,287.667 22.833 C 287.667 23.017,287.592 23.167,287.500 23.167 C 287.408 23.167,287.333 23.279,287.333 23.417 C 287.333 23.554,287.277 23.667,287.208 23.667 C 287.039 23.667,286.167 24.426,286.167 24.573 C 286.167 24.638,286.054 24.803,285.917 24.940 C 285.445 25.412,285.588 26.805,286.165 27.357 C 286.682 27.851,289.167 28.107,289.167 27.667 C 289.167 27.575,289.247 27.500,289.345 27.500 C 289.576 27.500,290.000 27.076,290.000 26.845 C 290.000 26.747,290.096 26.667,290.213 26.667 C 290.330 26.667,290.535 26.517,290.667 26.333 C 290.799 26.150,291.000 26.000,291.114 26.000 C 291.452 26.000,292.333 25.040,292.333 24.672 C 292.333 24.482,292.443 24.333,292.583 24.333 C 292.764 24.333,292.833 24.148,292.833 23.661 C 292.833 23.218,292.748 22.957,292.583 22.894 C 292.446 22.841,292.331 22.674,292.328 22.524 C 292.320 22.097,291.916 21.667,291.523 21.667 C 291.327 21.667,291.167 21.592,291.167 21.500 C 291.167 21.408,290.754 21.333,290.250 21.333 C 289.746 21.333,289.333 21.408,289.333 21.500 M321.667 21.500 C 321.667 21.592,321.511 21.667,321.321 21.667 C 320.975 21.667,320.500 22.022,320.500 22.282 C 320.500 22.358,320.313 22.562,320.083 22.734 C 319.573 23.117,319.429 25.500,319.917 25.500 C 320.058 25.500,320.167 25.649,320.167 25.845 C 320.167 26.287,320.546 26.667,320.988 26.667 C 321.184 26.667,321.333 26.775,321.333 26.917 C 321.333 27.118,321.593 27.167,322.667 27.167 C 323.741 27.167,324.000 27.118,324.000 26.917 C 324.000 26.777,324.148 26.667,324.335 26.667 C 325.453 26.667,326.299 23.490,325.417 22.607 C 325.279 22.470,325.167 22.309,325.167 22.250 C 325.167 22.018,324.672 21.667,324.345 21.667 C 324.155 21.667,324.000 21.592,324.000 21.500 C 324.000 21.405,323.500 21.333,322.833 21.333 C 322.167 21.333,321.667 21.405,321.667 21.500 M271.667 25.000 C 271.667 25.092,271.361 25.167,270.987 25.167 C 269.757 25.167,269.333 25.803,269.333 27.654 L 269.333 29.167 268.409 29.167 C 267.014 29.167,266.667 29.582,266.667 31.250 C 266.667 32.851,267.032 33.333,268.242 33.333 L 269.000 33.333 269.000 35.917 C 269.000 37.528,269.063 38.500,269.167 38.500 C 269.258 38.500,269.333 38.837,269.333 39.250 C 269.333 39.662,269.408 40.000,269.500 40.000 C 269.592 40.000,269.667 40.132,269.667 40.293 C 269.667 40.455,269.928 40.811,270.246 41.085 C 270.565 41.359,270.828 41.677,270.830 41.792 C 270.832 41.906,270.946 42.000,271.083 42.000 C 271.221 42.000,271.333 42.075,271.333 42.167 C 271.333 42.258,271.588 42.333,271.899 42.333 C 272.248 42.333,272.501 42.429,272.560 42.583 C 272.636 42.780,272.976 42.833,274.150 42.833 C 275.255 42.833,275.708 42.768,275.893 42.583 C 276.030 42.446,276.298 42.333,276.488 42.333 C 276.678 42.333,276.833 42.258,276.833 42.167 C 276.833 42.075,276.983 42.000,277.167 42.000 C 277.435 42.000,277.500 41.889,277.500 41.434 C 277.500 41.086,277.596 40.832,277.750 40.773 C 277.915 40.710,278.000 40.448,278.000 40.000 C 278.000 39.552,277.915 39.290,277.750 39.227 C 277.612 39.174,277.500 38.989,277.500 38.816 C 277.500 38.642,277.425 38.500,277.333 38.500 C 277.242 38.500,277.167 38.415,277.167 38.310 C 277.167 37.904,276.560 37.677,275.458 37.672 C 274.371 37.667,274.333 37.653,274.333 37.250 C 274.333 37.021,274.258 36.833,274.167 36.833 C 274.066 36.833,274.000 36.139,274.000 35.083 L 274.000 33.333 275.341 33.333 C 277.244 33.333,277.500 33.066,277.500 31.079 C 277.500 29.548,277.336 29.167,276.679 29.167 C 276.483 29.167,276.333 29.058,276.333 28.917 C 276.333 28.722,276.111 28.667,275.333 28.667 L 274.333 28.667 274.333 27.500 C 274.333 26.833,274.262 26.333,274.167 26.333 C 274.075 26.333,274.000 26.178,274.000 25.988 C 274.000 25.495,273.605 25.167,273.012 25.167 C 272.730 25.167,272.500 25.092,272.500 25.000 C 272.500 24.908,272.313 24.833,272.083 24.833 C 271.854 24.833,271.667 24.908,271.667 25.000 M224.000 28.917 C 224.000 29.054,223.869 29.169,223.708 29.172 C 222.826 29.188,222.833 29.135,222.833 35.750 C 222.833 42.567,222.791 42.317,223.958 42.328 C 224.326 42.332,224.500 42.413,224.500 42.583 C 224.500 42.772,224.704 42.833,225.339 42.833 C 225.930 42.833,226.205 42.760,226.273 42.583 C 226.326 42.446,226.516 42.333,226.696 42.333 C 227.050 42.333,227.500 41.967,227.500 41.679 C 227.500 41.580,227.612 41.500,227.750 41.500 C 227.964 41.500,228.000 41.029,228.000 38.260 C 228.000 36.280,228.065 34.980,228.167 34.917 C 228.258 34.860,228.333 34.593,228.333 34.323 C 228.333 34.054,228.408 33.833,228.500 33.833 C 228.592 33.833,228.667 33.721,228.667 33.583 C 228.667 33.389,228.889 33.333,229.667 33.333 C 230.622 33.333,230.667 33.352,230.667 33.750 C 230.667 33.979,230.742 34.167,230.833 34.167 C 230.939 34.167,231.000 35.500,231.000 37.833 C 231.000 40.981,231.035 41.500,231.250 41.500 C 231.387 41.500,231.500 41.580,231.500 41.679 C 231.500 41.949,231.941 42.333,232.250 42.333 C 232.401 42.333,232.636 42.446,232.774 42.583 C 232.912 42.721,233.319 42.833,233.684 42.833 C 234.117 42.833,234.377 42.747,234.440 42.583 C 234.499 42.429,234.752 42.333,235.101 42.333 C 235.412 42.333,235.667 42.258,235.667 42.167 C 235.667 42.075,235.779 42.000,235.917 42.000 C 236.072 42.000,236.167 41.843,236.167 41.583 C 236.167 41.354,236.242 41.167,236.333 41.167 C 236.440 41.167,236.500 39.694,236.500 37.083 C 236.500 34.472,236.440 33.000,236.333 33.000 C 236.242 33.000,236.167 32.662,236.167 32.250 C 236.167 31.694,236.102 31.500,235.917 31.500 C 235.768 31.500,235.667 31.347,235.667 31.120 C 235.667 30.911,235.517 30.632,235.333 30.500 C 235.150 30.368,235.000 30.164,235.000 30.047 C 235.000 29.929,234.904 29.833,234.787 29.833 C 234.670 29.833,234.465 29.683,234.333 29.500 C 234.177 29.283,233.902 29.167,233.547 29.167 C 233.172 29.167,233.000 29.088,233.000 28.917 C 233.000 28.709,232.676 28.667,231.083 28.667 C 229.491 28.667,229.167 28.709,229.167 28.917 C 229.167 29.066,229.013 29.167,228.787 29.167 C 228.578 29.167,228.299 29.317,228.167 29.500 C 228.035 29.683,227.830 29.833,227.713 29.833 C 227.596 29.833,227.500 29.683,227.500 29.500 C 227.500 29.284,227.389 29.167,227.184 29.167 C 227.011 29.167,226.826 29.054,226.773 28.917 C 226.699 28.723,226.375 28.667,225.339 28.667 C 224.260 28.667,224.000 28.715,224.000 28.917 M250.167 28.917 C 250.167 29.091,249.991 29.167,249.583 29.167 C 249.262 29.167,249.000 29.242,249.000 29.333 C 249.000 29.425,248.850 29.500,248.667 29.500 C 248.483 29.500,248.333 29.575,248.333 29.667 C 248.333 29.758,248.221 29.833,248.083 29.833 C 247.946 29.833,247.833 29.946,247.833 30.083 C 247.833 30.222,247.685 30.333,247.500 30.333 C 247.317 30.333,247.167 30.408,247.167 30.500 C 247.167 30.592,247.086 30.667,246.988 30.667 C 246.694 30.667,246.333 31.119,246.333 31.488 C 246.333 31.684,246.225 31.833,246.083 31.833 C 245.928 31.833,245.833 31.991,245.833 32.250 C 245.833 32.479,245.758 32.667,245.667 32.667 C 245.575 32.667,245.500 32.929,245.500 33.250 C 245.500 33.571,245.425 33.833,245.333 33.833 C 245.231 33.833,245.167 34.639,245.167 35.917 C 245.167 37.194,245.231 38.000,245.333 38.000 C 245.425 38.000,245.500 38.262,245.500 38.583 C 245.500 38.904,245.575 39.167,245.667 39.167 C 245.758 39.167,245.833 39.306,245.833 39.477 C 245.833 39.647,246.021 39.927,246.250 40.100 C 246.479 40.272,246.667 40.494,246.667 40.595 C 246.667 40.695,246.854 40.877,247.083 41.000 C 247.313 41.123,247.500 41.285,247.500 41.361 C 247.500 41.438,247.642 41.500,247.816 41.500 C 247.989 41.500,248.174 41.612,248.227 41.750 C 248.280 41.887,248.475 42.000,248.661 42.000 C 248.848 42.000,249.000 42.075,249.000 42.167 C 249.000 42.258,249.254 42.333,249.566 42.333 C 249.914 42.333,250.168 42.429,250.227 42.583 C 250.304 42.785,250.681 42.833,252.167 42.833 C 253.652 42.833,254.029 42.785,254.106 42.583 C 254.172 42.414,254.437 42.333,254.934 42.333 C 255.337 42.333,255.667 42.258,255.667 42.167 C 255.667 42.075,255.799 42.000,255.960 42.000 C 256.121 42.000,256.477 41.739,256.752 41.420 C 257.026 41.101,257.344 40.839,257.458 40.837 C 257.573 40.835,257.668 40.740,257.670 40.625 C 257.672 40.510,257.935 40.192,258.254 39.918 C 258.572 39.644,258.833 39.288,258.833 39.127 C 258.833 38.965,258.908 38.833,259.000 38.833 C 259.092 38.833,259.167 38.571,259.167 38.250 C 259.167 37.929,259.242 37.667,259.333 37.667 C 259.436 37.667,259.500 36.833,259.500 35.500 C 259.500 34.167,259.436 33.333,259.333 33.333 C 259.242 33.333,259.167 33.113,259.167 32.843 C 259.167 32.574,259.092 32.307,259.000 32.250 C 258.908 32.193,258.833 32.001,258.833 31.823 C 258.833 31.646,258.721 31.500,258.583 31.500 C 258.446 31.500,258.333 31.422,258.333 31.326 C 258.333 31.100,257.567 30.333,257.341 30.333 C 257.245 30.333,257.167 30.253,257.167 30.155 C 257.167 29.861,256.714 29.500,256.345 29.500 C 256.155 29.500,256.000 29.425,256.000 29.333 C 256.000 29.242,255.737 29.167,255.417 29.167 C 255.009 29.167,254.833 29.091,254.833 28.917 C 254.833 28.706,254.463 28.667,252.500 28.667 C 250.537 28.667,250.167 28.706,250.167 28.917 M287.333 28.917 C 287.333 29.058,287.184 29.167,286.988 29.167 C 286.174 29.167,286.167 29.222,286.167 35.750 C 286.167 42.186,286.183 42.333,286.917 42.333 C 287.067 42.333,287.303 42.446,287.440 42.583 C 287.602 42.745,288.014 42.833,288.600 42.833 C 289.256 42.833,289.537 42.763,289.606 42.583 C 289.662 42.439,289.911 42.333,290.196 42.333 C 291.181 42.333,291.167 42.428,291.167 35.756 L 291.167 29.655 290.661 29.161 C 290.065 28.578,287.333 28.378,287.333 28.917 M304.833 28.917 C 304.833 29.091,304.657 29.167,304.250 29.167 C 303.929 29.167,303.667 29.242,303.667 29.333 C 303.667 29.425,303.517 29.500,303.333 29.500 C 303.150 29.500,303.000 29.575,303.000 29.667 C 303.000 29.758,302.887 29.833,302.750 29.833 C 302.612 29.833,302.500 29.912,302.500 30.008 C 302.500 30.234,301.734 31.000,301.508 31.000 C 301.412 31.000,301.333 31.096,301.333 31.213 C 301.333 31.330,301.183 31.535,301.000 31.667 C 300.817 31.799,300.667 32.078,300.667 32.287 C 300.667 32.513,300.566 32.667,300.417 32.667 C 300.242 32.667,300.167 32.843,300.167 33.250 C 300.167 33.571,300.092 33.833,300.000 33.833 C 299.897 33.833,299.833 34.722,299.833 36.167 C 299.833 37.611,299.897 38.500,300.000 38.500 C 300.092 38.500,300.167 38.650,300.167 38.833 C 300.167 39.019,300.278 39.167,300.417 39.167 C 300.566 39.167,300.667 39.320,300.667 39.547 C 300.667 39.755,300.817 40.035,301.000 40.167 C 301.183 40.299,301.333 40.503,301.333 40.620 C 301.333 40.737,301.412 40.833,301.508 40.833 C 301.734 40.833,302.500 41.600,302.500 41.826 C 302.500 41.922,302.688 42.000,302.917 42.000 C 303.146 42.000,303.333 42.075,303.333 42.167 C 303.333 42.258,303.588 42.333,303.899 42.333 C 304.248 42.333,304.501 42.429,304.560 42.583 C 304.639 42.788,305.052 42.833,306.833 42.833 C 308.615 42.833,309.028 42.788,309.106 42.583 C 309.166 42.429,309.419 42.333,309.768 42.333 C 310.079 42.333,310.333 42.258,310.333 42.167 C 310.333 42.075,310.456 42.000,310.607 42.000 C 311.328 42.000,311.833 41.073,311.833 39.752 C 311.833 39.028,311.763 38.500,311.667 38.500 C 311.575 38.500,311.500 38.420,311.500 38.321 C 311.500 38.091,311.076 37.667,310.845 37.667 C 310.747 37.667,310.667 37.592,310.667 37.500 C 310.667 37.406,310.198 37.333,309.593 37.333 C 309.003 37.333,308.473 37.408,308.417 37.500 C 308.360 37.592,308.168 37.667,307.990 37.667 C 307.812 37.667,307.667 37.742,307.667 37.833 C 307.667 37.925,307.404 38.000,307.083 38.000 C 306.762 38.000,306.500 37.925,306.500 37.833 C 306.500 37.742,306.345 37.667,306.155 37.667 C 305.713 37.667,305.333 37.287,305.333 36.845 C 305.333 36.649,305.225 36.500,305.083 36.500 C 304.910 36.500,304.833 36.326,304.833 35.934 C 304.833 35.586,304.929 35.332,305.083 35.273 C 305.221 35.220,305.333 35.059,305.333 34.915 C 305.333 34.070,307.460 32.887,307.727 33.583 C 307.802 33.779,308.135 33.833,309.245 33.833 C 310.398 33.833,310.667 33.786,310.667 33.583 C 310.667 33.446,310.747 33.333,310.845 33.333 C 311.330 33.333,311.500 32.834,311.500 31.417 C 311.500 29.881,311.337 29.500,310.679 29.500 C 310.489 29.500,310.333 29.425,310.333 29.333 C 310.333 29.242,310.146 29.167,309.917 29.167 C 309.657 29.167,309.500 29.072,309.500 28.917 C 309.500 28.706,309.130 28.667,307.167 28.667 C 305.204 28.667,304.833 28.706,304.833 28.917 M321.333 28.917 C 321.333 29.058,321.184 29.167,320.988 29.167 C 320.174 29.167,320.167 29.222,320.167 35.750 C 320.167 42.429,320.153 42.333,321.137 42.333 C 321.422 42.333,321.672 42.439,321.727 42.583 C 321.795 42.760,322.070 42.833,322.667 42.833 C 323.263 42.833,323.539 42.760,323.606 42.583 C 323.662 42.439,323.911 42.333,324.196 42.333 C 325.181 42.333,325.167 42.429,325.167 35.750 C 325.167 29.466,325.137 29.167,324.512 29.167 C 324.414 29.167,324.333 29.054,324.333 28.917 C 324.333 28.713,324.056 28.667,322.833 28.667 C 321.611 28.667,321.333 28.713,321.333 28.917 M338.894 28.917 C 338.836 29.066,338.585 29.167,338.269 29.167 C 337.931 29.167,337.653 29.287,337.500 29.500 C 337.368 29.683,337.089 29.833,336.880 29.833 C 336.671 29.833,336.500 29.914,336.500 30.012 C 336.500 30.206,336.090 30.667,335.917 30.667 C 335.744 30.667,335.333 31.127,335.333 31.321 C 335.333 31.420,335.258 31.500,335.167 31.500 C 335.075 31.500,335.000 31.642,335.000 31.816 C 335.000 31.989,334.887 32.174,334.750 32.227 C 334.604 32.283,334.500 32.533,334.500 32.828 C 334.500 33.106,334.425 33.333,334.333 33.333 C 334.229 33.333,334.167 34.306,334.167 35.917 C 334.167 37.528,334.229 38.500,334.333 38.500 C 334.425 38.500,334.500 38.684,334.500 38.909 C 334.500 39.134,334.688 39.506,334.917 39.735 C 335.146 39.964,335.333 40.241,335.333 40.349 C 335.333 40.631,336.280 41.500,336.587 41.500 C 336.728 41.500,336.887 41.612,336.940 41.750 C 336.992 41.887,337.178 42.000,337.351 42.000 C 337.525 42.000,337.667 42.075,337.667 42.167 C 337.667 42.258,337.921 42.333,338.232 42.333 C 338.581 42.333,338.834 42.429,338.894 42.583 C 338.969 42.780,339.309 42.833,340.483 42.833 C 341.588 42.833,342.041 42.768,342.226 42.583 C 342.364 42.446,342.599 42.333,342.750 42.333 C 343.059 42.333,343.500 41.949,343.500 41.679 C 343.500 41.580,343.688 41.500,343.917 41.500 C 344.250 41.500,344.333 41.583,344.333 41.917 C 344.333 42.227,344.421 42.333,344.679 42.333 C 344.868 42.333,345.136 42.446,345.274 42.583 C 345.421 42.730,345.828 42.833,346.262 42.833 C 346.807 42.833,347.000 42.768,347.000 42.583 C 347.000 42.409,347.176 42.333,347.583 42.333 C 347.904 42.333,348.167 42.258,348.167 42.167 C 348.167 42.075,348.279 42.000,348.417 42.000 C 348.634 42.000,348.667 41.194,348.667 35.750 C 348.667 30.306,348.634 29.500,348.417 29.500 C 348.279 29.500,348.167 29.425,348.167 29.333 C 348.167 29.242,348.017 29.167,347.833 29.167 C 347.648 29.167,347.500 29.056,347.500 28.917 C 347.500 28.718,347.259 28.667,346.333 28.667 C 345.407 28.667,345.167 28.718,345.167 28.917 C 345.167 29.072,345.009 29.167,344.750 29.167 C 344.521 29.167,344.333 29.242,344.333 29.333 C 344.333 29.425,344.146 29.500,343.917 29.500 C 343.688 29.500,343.500 29.425,343.500 29.333 C 343.500 29.242,343.358 29.167,343.184 29.167 C 343.011 29.167,342.826 29.054,342.773 28.917 C 342.696 28.715,342.319 28.667,340.833 28.667 C 339.348 28.667,338.971 28.715,338.894 28.917 M361.167 28.917 C 361.167 29.091,360.991 29.167,360.583 29.167 C 360.262 29.167,360.000 29.242,360.000 29.333 C 360.000 29.425,359.845 29.500,359.655 29.500 C 359.286 29.500,358.833 29.861,358.833 30.155 C 358.833 30.253,358.753 30.333,358.655 30.333 C 358.361 30.333,358.000 30.786,358.000 31.155 C 358.000 31.345,357.925 31.500,357.833 31.500 C 357.474 31.500,357.629 35.233,358.000 35.500 C 358.183 35.632,358.333 35.836,358.333 35.953 C 358.333 36.071,358.429 36.167,358.547 36.167 C 358.664 36.167,358.868 36.317,359.000 36.500 C 359.156 36.717,359.431 36.833,359.787 36.833 C 360.161 36.833,360.333 36.912,360.333 37.083 C 360.333 37.272,360.537 37.333,361.167 37.333 C 361.625 37.333,362.000 37.408,362.000 37.500 C 362.000 37.592,362.404 37.667,362.899 37.667 C 363.787 37.667,364.040 37.828,363.878 38.292 C 363.765 38.615,361.833 38.576,361.833 38.250 C 361.833 38.065,361.639 38.000,361.083 38.000 C 360.671 38.000,360.333 37.925,360.333 37.833 C 360.333 37.742,359.996 37.667,359.583 37.667 C 359.171 37.667,358.833 37.742,358.833 37.833 C 358.833 37.925,358.646 38.000,358.417 38.000 C 358.157 38.000,358.000 38.094,358.000 38.250 C 358.000 38.387,357.925 38.500,357.833 38.500 C 357.742 38.500,357.667 38.642,357.667 38.816 C 357.667 38.989,357.554 39.174,357.417 39.227 C 357.251 39.290,357.167 39.552,357.167 40.000 C 357.167 40.448,357.251 40.710,357.417 40.773 C 357.554 40.826,357.667 40.973,357.667 41.099 C 357.667 41.447,358.201 42.000,358.537 42.000 C 358.700 42.000,358.833 42.075,358.833 42.167 C 358.833 42.258,359.163 42.333,359.566 42.333 C 360.063 42.333,360.328 42.414,360.394 42.583 C 360.473 42.790,360.913 42.833,362.917 42.833 C 364.920 42.833,365.361 42.790,365.440 42.583 C 365.494 42.442,365.742 42.333,366.008 42.333 C 366.268 42.333,366.527 42.258,366.583 42.167 C 366.640 42.075,366.832 42.000,367.010 42.000 C 367.188 42.000,367.333 41.887,367.333 41.750 C 367.333 41.612,367.412 41.500,367.508 41.500 C 367.804 41.500,368.500 40.700,368.500 40.359 C 368.500 40.181,368.613 39.992,368.750 39.940 C 368.951 39.862,369.000 39.486,369.000 38.005 C 369.000 36.482,368.957 36.167,368.750 36.167 C 368.608 36.167,368.500 36.017,368.500 35.821 C 368.500 35.379,368.121 35.000,367.679 35.000 C 367.489 35.000,367.333 34.920,367.333 34.821 C 367.333 34.483,366.856 34.167,366.345 34.167 C 366.064 34.167,365.833 34.092,365.833 34.000 C 365.833 33.907,365.389 33.833,364.833 33.833 C 364.056 33.833,363.833 33.778,363.833 33.583 C 363.833 33.398,363.639 33.333,363.083 33.333 C 362.671 33.333,362.333 33.258,362.333 33.167 C 362.333 33.075,362.468 33.000,362.633 33.000 C 362.798 33.000,363.033 32.906,363.154 32.792 C 363.331 32.625,363.390 32.625,363.451 32.792 C 363.501 32.926,363.877 33.000,364.514 33.000 C 365.060 33.000,365.500 33.074,365.500 33.167 C 365.500 33.575,367.603 33.351,368.061 32.894 C 369.141 31.813,368.473 29.167,367.120 29.167 C 366.862 29.167,366.614 29.056,366.560 28.917 C 366.481 28.709,366.016 28.667,363.816 28.667 C 361.572 28.667,361.167 28.705,361.167 28.917 M253.333 33.583 C 253.333 33.721,253.408 33.833,253.500 33.833 C 253.592 33.833,253.667 33.983,253.667 34.167 C 253.667 34.352,253.778 34.500,253.917 34.500 C 254.070 34.500,254.167 34.656,254.167 34.903 C 254.167 35.124,254.260 35.349,254.375 35.403 C 254.542 35.481,254.542 35.519,254.375 35.597 C 254.260 35.651,254.167 35.910,254.167 36.174 C 254.167 36.961,253.028 38.000,252.166 38.000 C 251.441 38.000,250.667 37.442,250.667 36.919 C 250.667 36.774,250.554 36.613,250.417 36.560 C 250.265 36.502,250.167 36.250,250.167 35.917 C 250.167 35.584,250.265 35.331,250.417 35.273 C 250.557 35.219,250.667 34.971,250.667 34.709 C 250.667 34.431,250.803 34.142,251.000 34.000 C 251.183 33.868,251.333 33.664,251.333 33.547 C 251.333 33.397,251.632 33.333,252.333 33.333 C 253.111 33.333,253.333 33.389,253.333 33.583 M342.661 33.828 C 342.939 34.100,343.167 34.433,343.167 34.568 C 343.167 34.703,343.242 34.860,343.333 34.917 C 343.425 34.973,343.500 35.353,343.500 35.760 C 343.500 36.167,343.425 36.500,343.333 36.500 C 343.242 36.500,343.167 36.655,343.167 36.845 C 343.167 37.214,342.806 37.667,342.512 37.667 C 342.414 37.667,342.333 37.742,342.333 37.833 C 342.333 37.925,341.921 38.000,341.417 38.000 C 340.912 38.000,340.500 37.925,340.500 37.833 C 340.500 37.742,340.420 37.667,340.321 37.667 C 339.983 37.667,339.667 37.189,339.667 36.679 C 339.667 36.397,339.592 36.167,339.500 36.167 C 339.408 36.167,339.333 36.054,339.333 35.917 C 339.333 35.779,339.408 35.667,339.500 35.667 C 339.592 35.667,339.667 35.404,339.667 35.083 C 339.667 34.762,339.742 34.500,339.833 34.500 C 339.925 34.500,340.000 34.350,340.000 34.167 C 340.000 33.943,340.111 33.833,340.339 33.833 C 340.525 33.833,340.720 33.721,340.773 33.583 C 340.951 33.120,342.087 33.267,342.661 33.828 " stroke="none" fill="#14bcac" fill-rule="evenodd"></path><path id="path2" d="" stroke="none" fill="#100dcd4" fill-rule="evenodd"></path><path id="path3" d="" stroke="none" fill="#100dcd4" fill-rule="evenodd"></path><path id="path4" d="" stroke="none" fill="#100dcd4" fill-rule="evenodd"></path></g></svg>