<svg version="1.1" viewBox="0.0 0.0 876.0 371.0" fill="none" stroke="none" stroke-linecap="square" stroke-miterlimit="10" width="876" height="371" xmlns:xlink="http://www.w3.org/1999/xlink" xmlns="http://www.w3.org/2000/svg"><path fill="#ffffff" fill-opacity="0.0" d="M0 0L876.0 0L876.0 371.0L0 371.0L0 0Z" fill-rule="nonzero"/><path stroke="#cccccc" stroke-width="1.0" stroke-linecap="butt" d="M85.5 320.5L848.5 320.5" fill-rule="nonzero"/><path stroke="#cccccc" stroke-width="1.0" stroke-linecap="butt" d="M85.5 270.5L848.5 270.5" fill-rule="nonzero"/><path stroke="#cccccc" stroke-width="1.0" stroke-linecap="butt" d="M85.5 220.5L848.5 220.5" fill-rule="nonzero"/><path stroke="#cccccc" stroke-width="1.0" stroke-linecap="butt" d="M85.5 170.5L848.5 170.5" fill-rule="nonzero"/><path stroke="#cccccc" stroke-width="1.0" stroke-linecap="butt" d="M85.5 120.5L848.5 120.5" fill-rule="nonzero"/><path stroke="#cccccc" stroke-width="1.0" stroke-linecap="butt" d="M85.5 69.5L848.5 69.5" fill-rule="nonzero"/><clipPath id="id_0"><path d="M85.5 69.90818L848.917 69.90818L848.917 320.5L85.5 320.5L85.5 69.90818Z" clip-rule="nonzero"/></clipPath><path stroke="#000000" stroke-width="2.0" stroke-linecap="butt" stroke-opacity="0.0" clip-path="url(#id_0)" d="M166.0 320.0L129.0 320.0L129.0 210.0C129.0 208.89543 129.89543 208.0 131.0 208.0L164.0 208.0C165.10457 208.0 166.0 208.89543 166.0 210.0Z" fill-rule="nonzero"/><path fill="#12bbad" clip-path="url(#id_0)" d="M166.0 320.0L129.0 320.0L129.0 210.0C129.0 208.89543 129.89543 208.0 131.0 208.0L164.0 208.0C165.10457 208.0 166.0 208.89543 166.0 210.0Z" fill-rule="nonzero"/><path stroke="#000000" stroke-width="2.0" stroke-linecap="butt" stroke-opacity="0.0" clip-path="url(#id_0)" d="M286.0 320.0L249.0 320.0L249.0 198.0C249.0 196.89543 249.89543 196.0 251.0 196.0L284.0 196.0C285.10458 196.0 286.0 196.89543 286.0 198.0Z" fill-rule="nonzero"/><path fill="#12bbad" clip-path="url(#id_0)" d="M286.0 320.0L249.0 320.0L249.0 198.0C249.0 196.89543 249.89543 196.0 251.0 196.0L284.0 196.0C285.10458 196.0 286.0 196.89543 286.0 198.0Z" fill-rule="nonzero"/><path stroke="#000000" stroke-width="2.0" stroke-linecap="butt" stroke-opacity="0.0" clip-path="url(#id_0)" d="M406.0 320.0L369.0 320.0L369.0 161.0C369.0 159.89543 369.89542 159.0 371.0 159.0L404.0 159.0C405.10458 159.0 406.0 159.89543 406.0 161.0Z" fill-rule="nonzero"/><path fill="#12bbad" clip-path="url(#id_0)" d="M406.0 320.0L369.0 320.0L369.0 161.0C369.0 159.89543 369.89542 159.0 371.0 159.0L404.0 159.0C405.10458 159.0 406.0 159.89543 406.0 161.0Z" fill-rule="nonzero"/><path stroke="#000000" stroke-width="2.0" stroke-linecap="butt" stroke-opacity="0.0" clip-path="url(#id_0)" d="M526.0 320.0L489.0 320.0L489.0 167.0C489.0 165.89543 489.89542 165.0 491.0 165.0L524.0 165.0C525.10455 165.0 526.0 165.89543 526.0 167.0Z" fill-rule="nonzero"/><path fill="#12bbad" clip-path="url(#id_0)" d="M526.0 320.0L489.0 320.0L489.0 167.0C489.0 165.89543 489.89542 165.0 491.0 165.0L524.0 165.0C525.10455 165.0 526.0 165.89543 526.0 167.0Z" fill-rule="nonzero"/><path stroke="#000000" stroke-width="2.0" stroke-linecap="butt" stroke-opacity="0.0" clip-path="url(#id_0)" d="M647.0 320.0L610.0 320.0L610.0 140.0C610.0 138.89543 610.89545 138.0 612.0 138.0L645.0 138.0C646.10455 138.0 647.0 138.89543 647.0 140.0Z" fill-rule="nonzero"/><path fill="#12bbad" clip-path="url(#id_0)" d="M647.0 320.0L610.0 320.0L610.0 140.0C610.0 138.89543 610.89545 138.0 612.0 138.0L645.0 138.0C646.10455 138.0 647.0 138.89543 647.0 140.0Z" fill-rule="nonzero"/><path stroke="#000000" stroke-width="2.0" stroke-linecap="butt" stroke-opacity="0.0" clip-path="url(#id_0)" d="M767.0 320.0L730.0 320.0L730.0 87.0C730.0 85.89543 730.89545 85.0 732.0 85.0L765.0 85.0C766.10455 85.0 767.0 85.89543 767.0 87.0Z" fill-rule="nonzero"/><path fill="#12bbad" clip-path="url(#id_0)" d="M767.0 320.0L730.0 320.0L730.0 87.0C730.0 85.89543 730.89545 85.0 732.0 85.0L765.0 85.0C766.10455 85.0 767.0 85.89543 767.0 87.0Z" fill-rule="nonzero"/><path stroke="#000000" stroke-width="2.0" stroke-linecap="butt" stroke-opacity="0.0" clip-path="url(#id_0)" d="M205.0 320.0L168.0 320.0L168.0 210.0C168.0 208.89543 168.89543 208.0 170.0 208.0L203.0 208.0C204.10457 208.0 205.0 208.89543 205.0 210.0Z" fill-rule="nonzero"/><path fill="#0a403c" clip-path="url(#id_0)" d="M205.0 320.0L168.0 320.0L168.0 210.0C168.0 208.89543 168.89543 208.0 170.0 208.0L203.0 208.0C204.10457 208.0 205.0 208.89543 205.0 210.0Z" fill-rule="nonzero"/><path stroke="#000000" stroke-width="2.0" stroke-linecap="butt" stroke-opacity="0.0" clip-path="url(#id_0)" d="M325.0 320.0L288.0 320.0L288.0 218.0C288.0 216.89543 288.89542 216.0 290.0 216.0L323.0 216.0C324.10458 216.0 325.0 216.89543 325.0 218.0Z" fill-rule="nonzero"/><path fill="#0a403c" clip-path="url(#id_0)" d="M325.0 320.0L288.0 320.0L288.0 218.0C288.0 216.89543 288.89542 216.0 290.0 216.0L323.0 216.0C324.10458 216.0 325.0 216.89543 325.0 218.0Z" fill-rule="nonzero"/><path stroke="#000000" stroke-width="2.0" stroke-linecap="butt" stroke-opacity="0.0" clip-path="url(#id_0)" d="M445.0 320.0L408.0 320.0L408.0 232.0C408.0 230.89543 408.89542 230.0 410.0 230.0L443.0 230.0C444.10458 230.0 445.0 230.89543 445.0 232.0Z" fill-rule="nonzero"/><path fill="#0a403c" clip-path="url(#id_0)" d="M445.0 320.0L408.0 320.0L408.0 232.0C408.0 230.89543 408.89542 230.0 410.0 230.0L443.0 230.0C444.10458 230.0 445.0 230.89543 445.0 232.0Z" fill-rule="nonzero"/><path stroke="#000000" stroke-width="2.0" stroke-linecap="butt" stroke-opacity="0.0" clip-path="url(#id_0)" d="M565.0 320.0L528.0 320.0L528.0 235.0C528.0 233.89543 528.89545 233.0 530.0 233.0L563.0 233.0C564.10455 233.0 565.0 233.89543 565.0 235.0Z" fill-rule="nonzero"/><path fill="#0a403c" clip-path="url(#id_0)" d="M565.0 320.0L528.0 320.0L528.0 235.0C528.0 233.89543 528.89545 233.0 530.0 233.0L563.0 233.0C564.10455 233.0 565.0 233.89543 565.0 235.0Z" fill-rule="nonzero"/><path stroke="#000000" stroke-width="2.0" stroke-linecap="butt" stroke-opacity="0.0" clip-path="url(#id_0)" d="M686.0 320.0L649.0 320.0L649.0 235.0C649.0 233.89543 649.89545 233.0 651.0 233.0L684.0 233.0C685.10455 233.0 686.0 233.89543 686.0 235.0Z" fill-rule="nonzero"/><path fill="#0a403c" clip-path="url(#id_0)" d="M686.0 320.0L649.0 320.0L649.0 235.0C649.0 233.89543 649.89545 233.0 651.0 233.0L684.0 233.0C685.10455 233.0 686.0 233.89543 686.0 235.0Z" fill-rule="nonzero"/><path stroke="#000000" stroke-width="2.0" stroke-linecap="butt" stroke-opacity="0.0" clip-path="url(#id_0)" d="M806.0 320.0L769.0 320.0L769.0 208.0C769.0 206.89543 769.89545 206.0 771.0 206.0L804.0 206.0C805.10455 206.0 806.0 206.89543 806.0 208.0Z" fill-rule="nonzero"/><path fill="#0a403c" clip-path="url(#id_0)" d="M806.0 320.0L769.0 320.0L769.0 208.0C769.0 206.89543 769.89545 206.0 771.0 206.0L804.0 206.0C805.10455 206.0 806.0 206.89543 806.0 208.0Z" fill-rule="nonzero"/><path fill="#000000" d="M22.9375 321.125L21.265625 321.125L21.265625 324.0L20.328125 324.0L20.328125 316.89062L22.671875 316.89062Q23.875 316.89062 24.515625 317.4375Q25.171875 317.98438 25.171875 319.03125Q25.171875 319.6875 24.8125 320.1875Q24.453125 320.67188 23.8125 320.92188L25.484375 323.9375L25.484375 324.0L24.46875 324.0L22.9375 321.125ZM21.265625 320.35938L22.703125 320.35938Q23.40625 320.35938 23.8125 320.0Q24.234375 319.64062 24.234375 319.03125Q24.234375 318.375 23.828125 318.03125Q23.4375 317.67188 22.703125 317.65625L21.265625 317.65625L21.265625 320.35938ZM29.6875 322.17188Q29.6875 321.71875 29.359375 321.42188Q29.046875 321.10938 28.296875 320.85938Q27.265625 320.53125 26.78125 320.03125Q26.3125 319.51562 26.3125 318.73438Q26.3125 317.9375 26.78125 317.42188Q27.25 316.90625 28.0625 316.8125L28.0625 315.73438L28.78125 315.73438L28.78125 316.8125Q29.609375 316.92188 30.0625 317.5Q30.515625 318.07812 30.515625 319.07812L29.625 319.07812Q29.625 318.39062 29.296875 317.98438Q28.96875 317.57812 28.40625 317.57812Q27.828125 317.57812 27.515625 317.875Q27.21875 318.17188 27.21875 318.71875Q27.21875 319.21875 27.53125 319.51562Q27.859375 319.8125 28.609375 320.04688Q29.359375 320.28125 29.765625 320.57812Q30.1875 320.875 30.375 321.26562Q30.578125 321.64062 30.578125 322.15625Q30.578125 322.98438 30.078125 323.48438Q29.59375 323.98438 28.703125 324.07812L28.703125 325.01562L27.96875 325.01562L27.96875 324.07812Q27.0625 324.0 26.546875 323.4375Q26.03125 322.875 26.03125 321.90625L26.9375 321.90625Q26.9375 322.57812 27.296875 322.95312Q27.65625 323.3125 28.3125 323.3125Q28.953125 323.3125 29.3125 323.01562Q29.6875 322.70312 29.6875 322.17188ZM37.0625 324.0L36.15625 324.0L36.15625 317.98438L34.328125 318.64062L34.328125 317.82812L36.921875 316.85938L37.0625 316.85938L37.0625 324.0ZM44.546875 320.96875Q44.546875 322.54688 44.0 323.32812Q43.46875 324.09375 42.3125 324.09375Q41.171875 324.09375 40.625 323.34375Q40.078125 322.59375 40.0625 321.09375L40.0625 319.89062Q40.0625 318.3125 40.59375 317.5625Q41.140625 316.79688 42.296875 316.79688Q43.453125 316.79688 43.984375 317.53125Q44.53125 318.26562 44.546875 319.79688L44.546875 320.96875ZM43.640625 319.73438Q43.640625 318.57812 43.3125 318.0625Q43.0 317.53125 42.296875 317.53125Q41.609375 317.53125 41.28125 318.0625Q40.96875 318.57812 40.96875 319.65625L40.96875 321.10938Q40.96875 322.26562 41.296875 322.8125Q41.640625 323.35938 42.3125 323.35938Q42.984375 323.35938 43.296875 322.84375Q43.625 322.32812 43.640625 321.21875L43.640625 319.73438ZM46.203125 323.53125Q46.203125 323.29688 46.34375 323.14062Q46.484375 322.98438 46.75 322.98438Q47.03125 322.98438 47.171875 323.14062Q47.328125 323.29688 47.328125 323.53125Q47.328125 323.75 47.171875 323.90625Q47.03125 324.04688 46.75 324.04688Q46.484375 324.04688 46.34375 323.90625Q46.203125 323.75 46.203125 323.53125ZM53.546875 320.96875Q53.546875 322.54688 53.0 323.32812Q52.46875 324.09375 51.3125 324.09375Q50.171875 324.09375 49.625 323.34375Q49.078125 322.59375 49.0625 321.09375L49.0625 319.89062Q49.0625 318.3125 49.59375 317.5625Q50.140625 316.79688 51.296875 316.79688Q52.453125 316.79688 52.984375 317.53125Q53.53125 318.26562 53.546875 319.79688L53.546875 320.96875ZM52.640625 319.73438Q52.640625 318.57812 52.3125 318.0625Q52.0 317.53125 51.296875 317.53125Q50.609375 317.53125 50.28125 318.0625Q49.96875 318.57812 49.96875 319.65625L49.96875 321.10938Q49.96875 322.26562 50.296875 322.8125Q50.640625 323.35938 51.3125 323.35938Q51.984375 323.35938 52.296875 322.84375Q52.625 322.32812 52.640625 321.21875L52.640625 319.73438ZM59.546875 320.96875Q59.546875 322.54688 59.0 323.32812Q58.46875 324.09375 57.3125 324.09375Q56.171875 324.09375 55.625 323.34375Q55.078125 322.59375 55.0625 321.09375L55.0625 319.89062Q55.0625 318.3125 55.59375 317.5625Q56.140625 316.79688 57.296875 316.79688Q58.453125 316.79688 58.984375 317.53125Q59.53125 318.26562 59.546875 319.79688L59.546875 320.96875ZM58.640625 319.73438Q58.640625 318.57812 58.3125 318.0625Q58.0 317.53125 57.296875 317.53125Q56.609375 317.53125 56.28125 318.0625Q55.96875 318.57812 55.96875 319.65625L55.96875 321.10938Q55.96875 322.26562 56.296875 322.8125Q56.640625 323.35938 57.3125 323.35938Q57.984375 323.35938 58.296875 322.84375Q58.625 322.32812 58.640625 321.21875L58.640625 319.73438ZM65.546875 320.96875Q65.546875 322.54688 65.0 323.32812Q64.46875 324.09375 63.3125 324.09375Q62.171875 324.09375 61.625 323.34375Q61.078125 322.59375 61.0625 321.09375L61.0625 319.89062Q61.0625 318.3125 61.59375 317.5625Q62.140625 316.79688 63.296875 316.79688Q64.453125 316.79688 64.984375 317.53125Q65.53125 318.26562 65.546875 319.79688L65.546875 320.96875ZM64.640625 319.73438Q64.640625 318.57812 64.3125 318.0625Q64.0 317.53125 63.296875 317.53125Q62.609375 317.53125 62.28125 318.0625Q61.96875 318.57812 61.96875 319.65625L61.96875 321.10938Q61.96875 322.26562 62.296875 322.8125Q62.640625 323.35938 63.3125 323.35938Q63.984375 323.35938 64.296875 322.84375Q64.625 322.32812 64.640625 321.21875L64.640625 319.73438ZM67.15625 325.42188L66.640625 325.0625Q67.09375 324.42188 67.125 323.75L67.125 322.9375L68.0 322.9375L68.0 323.64062Q68.0 324.125 67.75 324.625Q67.515625 325.125 67.15625 325.42188ZM73.546875 320.96875Q73.546875 322.54688 73.0 323.32812Q72.46875 324.09375 71.3125 324.09375Q70.171875 324.09375 69.625 323.34375Q69.078125 322.59375 69.0625 321.09375L69.0625 319.89062Q69.0625 318.3125 69.59375 317.5625Q70.140625 316.79688 71.296875 316.79688Q72.453125 316.79688 72.984375 317.53125Q73.53125 318.26562 73.546875 319.79688L73.546875 320.96875ZM72.640625 319.73438Q72.640625 318.57812 72.3125 318.0625Q72.0 317.53125 71.296875 317.53125Q70.609375 317.53125 70.28125 318.0625Q69.96875 318.57812 69.96875 319.65625L69.96875 321.10938Q69.96875 322.26562 70.296875 322.8125Q70.640625 323.35938 71.3125 323.35938Q71.984375 323.35938 72.296875 322.84375Q72.625 322.32812 72.640625 321.21875L72.640625 319.73438ZM79.546875 320.96875Q79.546875 322.54688 79.0 323.32812Q78.46875 324.09375 77.3125 324.09375Q76.171875 324.09375 75.625 323.34375Q75.078125 322.59375 75.0625 321.09375L75.0625 319.89062Q75.0625 318.3125 75.59375 317.5625Q76.140625 316.79688 77.296875 316.79688Q78.453125 316.79688 78.984375 317.53125Q79.53125 318.26562 79.546875 319.79688L79.546875 320.96875ZM78.640625 319.73438Q78.640625 318.57812 78.3125 318.0625Q78.0 317.53125 77.296875 317.53125Q76.609375 317.53125 76.28125 318.0625Q75.96875 318.57812 75.96875 319.65625L75.96875 321.10938Q75.96875 322.26562 76.296875 322.8125Q76.640625 323.35938 77.3125 323.35938Q77.984375 323.35938 78.296875 322.84375Q78.625 322.32812 78.640625 321.21875L78.640625 319.73438Z" fill-rule="nonzero"/><path fill="#000000" d="M22.9375 271.00662L21.265625 271.00662L21.265625 273.88162L20.328125 273.88162L20.328125 266.77225L22.671875 266.77225Q23.875 266.77225 24.515625 267.31912Q25.171875 267.866 25.171875 268.91287Q25.171875 269.56912 24.8125 270.06912Q24.453125 270.5535 23.8125 270.8035L25.484375 273.81912L25.484375 273.88162L24.46875 273.88162L22.9375 271.00662ZM21.265625 270.241L22.703125 270.241Q23.40625 270.241 23.8125 269.88162Q24.234375 269.52225 24.234375 268.91287Q24.234375 268.25662 23.828125 267.91287Q23.4375 267.5535 22.703125 267.53787L21.265625 267.53787L21.265625 270.241ZM29.6875 272.0535Q29.6875 271.60037 29.359375 271.3035Q29.046875 270.991 28.296875 270.741Q27.265625 270.41287 26.78125 269.91287Q26.3125 269.39725 26.3125 268.616Q26.3125 267.81912 26.78125 267.3035Q27.25 266.78787 28.0625 266.69412L28.0625 265.616L28.78125 265.616L28.78125 266.69412Q29.609375 266.8035 30.0625 267.38162Q30.515625 267.95975 30.515625 268.95975L29.625 268.95975Q29.625 268.27225 29.296875 267.866Q28.96875 267.45975 28.40625 267.45975Q27.828125 267.45975 27.515625 267.75662Q27.21875 268.0535 27.21875 268.60037Q27.21875 269.10037 27.53125 269.39725Q27.859375 269.69412 28.609375 269.9285Q29.359375 270.16287 29.765625 270.45975Q30.1875 270.75662 30.375 271.14725Q30.578125 271.52225 30.578125 272.03787Q30.578125 272.866 30.078125 273.366Q29.59375 273.866 28.703125 273.95975L28.703125 274.89725L27.96875 274.89725L27.96875 273.95975Q27.0625 273.88162 26.546875 273.31912Q26.03125 272.75662 26.03125 271.78787L26.9375 271.78787Q26.9375 272.45975 27.296875 272.83475Q27.65625 273.19412 28.3125 273.19412Q28.953125 273.19412 29.3125 272.89725Q29.6875 272.58475 29.6875 272.0535ZM38.75 273.88162L34.09375 273.88162L34.09375 273.22537L36.546875 270.491Q37.09375 269.88162 37.296875 269.491Q37.515625 269.10037 37.515625 268.6785Q37.515625 268.13162 37.171875 267.77225Q36.84375 267.41287 36.28125 267.41287Q35.609375 267.41287 35.234375 267.8035Q34.859375 268.1785 34.859375 268.866L33.953125 268.866Q33.953125 267.88162 34.578125 267.28787Q35.21875 266.6785 36.28125 266.6785Q37.265625 266.6785 37.84375 267.19412Q38.421875 267.70975 38.421875 268.58475Q38.421875 269.63162 37.078125 271.08475L35.1875 273.14725L38.75 273.14725L38.75 273.88162ZM44.546875 270.85037Q44.546875 272.4285 44.0 273.20975Q43.46875 273.97537 42.3125 273.97537Q41.171875 273.97537 40.625 273.22537Q40.078125 272.47537 40.0625 270.97537L40.0625 269.77225Q40.0625 268.19412 40.59375 267.44412Q41.140625 266.6785 42.296875 266.6785Q43.453125 266.6785 43.984375 267.41287Q44.53125 268.14725 44.546875 269.6785L44.546875 270.85037ZM43.640625 269.616Q43.640625 268.45975 43.3125 267.94412Q43.0 267.41287 42.296875 267.41287Q41.609375 267.41287 41.28125 267.94412Q40.96875 268.45975 40.96875 269.53787L40.96875 270.991Q40.96875 272.14725 41.296875 272.69412Q41.640625 273.241 42.3125 273.241Q42.984375 273.241 43.296875 272.72537Q43.625 272.20975 43.640625 271.10037L43.640625 269.616ZM46.203125 273.41287Q46.203125 273.1785 46.34375 273.02225Q46.484375 272.866 46.75 272.866Q47.03125 272.866 47.171875 273.02225Q47.328125 273.1785 47.328125 273.41287Q47.328125 273.63162 47.171875 273.78787Q47.03125 273.9285 46.75 273.9285Q46.484375 273.9285 46.34375 273.78787Q46.203125 273.63162 46.203125 273.41287ZM53.546875 270.85037Q53.546875 272.4285 53.0 273.20975Q52.46875 273.97537 51.3125 273.97537Q50.171875 273.97537 49.625 273.22537Q49.078125 272.47537 49.0625 270.97537L49.0625 269.77225Q49.0625 268.19412 49.59375 267.44412Q50.140625 266.6785 51.296875 266.6785Q52.453125 266.6785 52.984375 267.41287Q53.53125 268.14725 53.546875 269.6785L53.546875 270.85037ZM52.640625 269.616Q52.640625 268.45975 52.3125 267.94412Q52.0 267.41287 51.296875 267.41287Q50.609375 267.41287 50.28125 267.94412Q49.96875 268.45975 49.96875 269.53787L49.96875 270.991Q49.96875 272.14725 50.296875 272.69412Q50.640625 273.241 51.3125 273.241Q51.984375 273.241 52.296875 272.72537Q52.625 272.20975 52.640625 271.10037L52.640625 269.616ZM59.546875 270.85037Q59.546875 272.4285 59.0 273.20975Q58.46875 273.97537 57.3125 273.97537Q56.171875 273.97537 55.625 273.22537Q55.078125 272.47537 55.0625 270.97537L55.0625 269.77225Q55.0625 268.19412 55.59375 267.44412Q56.140625 266.6785 57.296875 266.6785Q58.453125 266.6785 58.984375 267.41287Q59.53125 268.14725 59.546875 269.6785L59.546875 270.85037ZM58.640625 269.616Q58.640625 268.45975 58.3125 267.94412Q58.0 267.41287 57.296875 267.41287Q56.609375 267.41287 56.28125 267.94412Q55.96875 268.45975 55.96875 269.53787L55.96875 270.991Q55.96875 272.14725 56.296875 272.69412Q56.640625 273.241 57.3125 273.241Q57.984375 273.241 58.296875 272.72537Q58.625 272.20975 58.640625 271.10037L58.640625 269.616ZM65.546875 270.85037Q65.546875 272.4285 65.0 273.20975Q64.46875 273.97537 63.3125 273.97537Q62.171875 273.97537 61.625 273.22537Q61.078125 272.47537 61.0625 270.97537L61.0625 269.77225Q61.0625 268.19412 61.59375 267.44412Q62.140625 266.6785 63.296875 266.6785Q64.453125 266.6785 64.984375 267.41287Q65.53125 268.14725 65.546875 269.6785L65.546875 270.85037ZM64.640625 269.616Q64.640625 268.45975 64.3125 267.94412Q64.0 267.41287 63.296875 267.41287Q62.609375 267.41287 62.28125 267.94412Q61.96875 268.45975 61.96875 269.53787L61.96875 270.991Q61.96875 272.14725 62.296875 272.69412Q62.640625 273.241 63.3125 273.241Q63.984375 273.241 64.296875 272.72537Q64.625 272.20975 64.640625 271.10037L64.640625 269.616ZM67.15625 275.3035L66.640625 274.94412Q67.09375 274.3035 67.125 273.63162L67.125 272.81912L68.0 272.81912L68.0 273.52225Q68.0 274.00662 67.75 274.50662Q67.515625 275.00662 67.15625 275.3035ZM73.546875 270.85037Q73.546875 272.4285 73.0 273.20975Q72.46875 273.97537 71.3125 273.97537Q70.171875 273.97537 69.625 273.22537Q69.078125 272.47537 69.0625 270.97537L69.0625 269.77225Q69.0625 268.19412 69.59375 267.44412Q70.140625 266.6785 71.296875 266.6785Q72.453125 266.6785 72.984375 267.41287Q73.53125 268.14725 73.546875 269.6785L73.546875 270.85037ZM72.640625 269.616Q72.640625 268.45975 72.3125 267.94412Q72.0 267.41287 71.296875 267.41287Q70.609375 267.41287 70.28125 267.94412Q69.96875 268.45975 69.96875 269.53787L69.96875 270.991Q69.96875 272.14725 70.296875 272.69412Q70.640625 273.241 71.3125 273.241Q71.984375 273.241 72.296875 272.72537Q72.625 272.20975 72.640625 271.10037L72.640625 269.616ZM79.546875 270.85037Q79.546875 272.4285 79.0 273.20975Q78.46875 273.97537 77.3125 273.97537Q76.171875 273.97537 75.625 273.22537Q75.078125 272.47537 75.0625 270.97537L75.0625 269.77225Q75.0625 268.19412 75.59375 267.44412Q76.140625 266.6785 77.296875 266.6785Q78.453125 266.6785 78.984375 267.41287Q79.53125 268.14725 79.546875 269.6785L79.546875 270.85037ZM78.640625 269.616Q78.640625 268.45975 78.3125 267.94412Q78.0 267.41287 77.296875 267.41287Q76.609375 267.41287 76.28125 267.94412Q75.96875 268.45975 75.96875 269.53787L75.96875 270.991Q75.96875 272.14725 76.296875 272.69412Q76.640625 273.241 77.3125 273.241Q77.984375 273.241 78.296875 272.72537Q78.625 272.20975 78.640625 271.10037L78.640625 269.616Z" fill-rule="nonzero"/><path fill="#000000" d="M22.9375 220.88828L21.265625 220.88828L21.265625 223.76328L20.328125 223.76328L20.328125 216.6539L22.671875 216.6539Q23.875 216.6539 24.515625 217.20078Q25.171875 217.74765 25.171875 218.79453Q25.171875 219.45078 24.8125 219.95078Q24.453125 220.43515 23.8125 220.68515L25.484375 223.70078L25.484375 223.76328L24.46875 223.76328L22.9375 220.88828ZM21.265625 220.12265L22.703125 220.12265Q23.40625 220.12265 23.8125 219.76328Q24.234375 219.4039 24.234375 218.79453Q24.234375 218.13828 23.828125 217.79453Q23.4375 217.43515 22.703125 217.41953L21.265625 217.41953L21.265625 220.12265ZM29.6875 221.93515Q29.6875 221.48203 29.359375 221.18515Q29.046875 220.87265 28.296875 220.62265Q27.265625 220.29453 26.78125 219.79453Q26.3125 219.2789 26.3125 218.49765Q26.3125 217.70078 26.78125 217.18515Q27.25 216.66953 28.0625 216.57578L28.0625 215.49765L28.78125 215.49765L28.78125 216.57578Q29.609375 216.68515 30.0625 217.26328Q30.515625 217.8414 30.515625 218.8414L29.625 218.8414Q29.625 218.1539 29.296875 217.74765Q28.96875 217.3414 28.40625 217.3414Q27.828125 217.3414 27.515625 217.63828Q27.21875 217.93515 27.21875 218.48203Q27.21875 218.98203 27.53125 219.2789Q27.859375 219.57578 28.609375 219.81015Q29.359375 220.04453 29.765625 220.3414Q30.1875 220.63828 30.375 221.0289Q30.578125 221.4039 30.578125 221.91953Q30.578125 222.74765 30.078125 223.24765Q29.59375 223.74765 28.703125 223.8414L28.703125 224.7789L27.96875 224.7789L27.96875 223.8414Q27.0625 223.76328 26.546875 223.20078Q26.03125 222.63828 26.03125 221.66953L26.9375 221.66953Q26.9375 222.3414 27.296875 222.7164Q27.65625 223.07578 28.3125 223.07578Q28.953125 223.07578 29.3125 222.7789Q29.6875 222.4664 29.6875 221.93515ZM35.40625 219.76328L36.078125 219.76328Q36.71875 219.76328 37.078125 219.43515Q37.453125 219.10703 37.453125 218.54453Q37.453125 217.29453 36.203125 217.29453Q35.625 217.29453 35.265625 217.63828Q34.921875 217.9664 34.921875 218.51328L34.015625 218.51328Q34.015625 217.66953 34.640625 217.12265Q35.265625 216.56015 36.203125 216.56015Q37.21875 216.56015 37.78125 217.0914Q38.359375 217.62265 38.359375 218.56015Q38.359375 219.0289 38.0625 219.4664Q37.765625 219.9039 37.234375 220.12265Q37.828125 220.29453 38.140625 220.73203Q38.46875 221.1539 38.46875 221.7789Q38.46875 222.73203 37.84375 223.29453Q37.21875 223.85703 36.21875 223.85703Q35.21875 223.85703 34.578125 223.32578Q33.953125 222.7789 33.953125 221.88828L34.875 221.88828Q34.875 222.45078 35.234375 222.79453Q35.59375 223.12265 36.21875 223.12265Q36.875 223.12265 37.21875 222.7789Q37.5625 222.43515 37.5625 221.79453Q37.5625 221.18515 37.171875 220.85703Q36.796875 220.51328 36.078125 220.51328L35.40625 220.51328L35.40625 219.76328ZM44.546875 220.73203Q44.546875 222.31015 44.0 223.0914Q43.46875 223.85703 42.3125 223.85703Q41.171875 223.85703 40.625 223.10703Q40.078125 222.35703 40.0625 220.85703L40.0625 219.6539Q40.0625 218.07578 40.59375 217.32578Q41.140625 216.56015 42.296875 216.56015Q43.453125 216.56015 43.984375 217.29453Q44.53125 218.0289 44.546875 219.56015L44.546875 220.73203ZM43.640625 219.49765Q43.640625 218.3414 43.3125 217.82578Q43.0 217.29453 42.296875 217.29453Q41.609375 217.29453 41.28125 217.82578Q40.96875 218.3414 40.96875 219.41953L40.96875 220.87265Q40.96875 222.0289 41.296875 222.57578Q41.640625 223.12265 42.3125 223.12265Q42.984375 223.12265 43.296875 222.60703Q43.625 222.0914 43.640625 220.98203L43.640625 219.49765ZM46.203125 223.29453Q46.203125 223.06015 46.34375 222.9039Q46.484375 222.74765 46.75 222.74765Q47.03125 222.74765 47.171875 222.9039Q47.328125 223.06015 47.328125 223.29453Q47.328125 223.51328 47.171875 223.66953Q47.03125 223.81015 46.75 223.81015Q46.484375 223.81015 46.34375 223.66953Q46.203125 223.51328 46.203125 223.29453ZM53.546875 220.73203Q53.546875 222.31015 53.0 223.0914Q52.46875 223.85703 51.3125 223.85703Q50.171875 223.85703 49.625 223.10703Q49.078125 222.35703 49.0625 220.85703L49.0625 219.6539Q49.0625 218.07578 49.59375 217.32578Q50.140625 216.56015 51.296875 216.56015Q52.453125 216.56015 52.984375 217.29453Q53.53125 218.0289 53.546875 219.56015L53.546875 220.73203ZM52.640625 219.49765Q52.640625 218.3414 52.3125 217.82578Q52.0 217.29453 51.296875 217.29453Q50.609375 217.29453 50.28125 217.82578Q49.96875 218.3414 49.96875 219.41953L49.96875 220.87265Q49.96875 222.0289 50.296875 222.57578Q50.640625 223.12265 51.3125 223.12265Q51.984375 223.12265 52.296875 222.60703Q52.625 222.0914 52.640625 220.98203L52.640625 219.49765ZM59.546875 220.73203Q59.546875 222.31015 59.0 223.0914Q58.46875 223.85703 57.3125 223.85703Q56.171875 223.85703 55.625 223.10703Q55.078125 222.35703 55.0625 220.85703L55.0625 219.6539Q55.0625 218.07578 55.59375 217.32578Q56.140625 216.56015 57.296875 216.56015Q58.453125 216.56015 58.984375 217.29453Q59.53125 218.0289 59.546875 219.56015L59.546875 220.73203ZM58.640625 219.49765Q58.640625 218.3414 58.3125 217.82578Q58.0 217.29453 57.296875 217.29453Q56.609375 217.29453 56.28125 217.82578Q55.96875 218.3414 55.96875 219.41953L55.96875 220.87265Q55.96875 222.0289 56.296875 222.57578Q56.640625 223.12265 57.3125 223.12265Q57.984375 223.12265 58.296875 222.60703Q58.625 222.0914 58.640625 220.98203L58.640625 219.49765ZM65.546875 220.73203Q65.546875 222.31015 65.0 223.0914Q64.46875 223.85703 63.3125 223.85703Q62.171875 223.85703 61.625 223.10703Q61.078125 222.35703 61.0625 220.85703L61.0625 219.6539Q61.0625 218.07578 61.59375 217.32578Q62.140625 216.56015 63.296875 216.56015Q64.453125 216.56015 64.984375 217.29453Q65.53125 218.0289 65.546875 219.56015L65.546875 220.73203ZM64.640625 219.49765Q64.640625 218.3414 64.3125 217.82578Q64.0 217.29453 63.296875 217.29453Q62.609375 217.29453 62.28125 217.82578Q61.96875 218.3414 61.96875 219.41953L61.96875 220.87265Q61.96875 222.0289 62.296875 222.57578Q62.640625 223.12265 63.3125 223.12265Q63.984375 223.12265 64.296875 222.60703Q64.625 222.0914 64.640625 220.98203L64.640625 219.49765ZM67.15625 225.18515L66.640625 224.82578Q67.09375 224.18515 67.125 223.51328L67.125 222.70078L68.0 222.70078L68.0 223.4039Q68.0 223.88828 67.75 224.38828Q67.515625 224.88828 67.15625 225.18515ZM73.546875 220.73203Q73.546875 222.31015 73.0 223.0914Q72.46875 223.85703 71.3125 223.85703Q70.171875 223.85703 69.625 223.10703Q69.078125 222.35703 69.0625 220.85703L69.0625 219.6539Q69.0625 218.07578 69.59375 217.32578Q70.140625 216.56015 71.296875 216.56015Q72.453125 216.56015 72.984375 217.29453Q73.53125 218.0289 73.546875 219.56015L73.546875 220.73203ZM72.640625 219.49765Q72.640625 218.3414 72.3125 217.82578Q72.0 217.29453 71.296875 217.29453Q70.609375 217.29453 70.28125 217.82578Q69.96875 218.3414 69.96875 219.41953L69.96875 220.87265Q69.96875 222.0289 70.296875 222.57578Q70.640625 223.12265 71.3125 223.12265Q71.984375 223.12265 72.296875 222.60703Q72.625 222.0914 72.640625 220.98203L72.640625 219.49765ZM79.546875 220.73203Q79.546875 222.31015 79.0 223.0914Q78.46875 223.85703 77.3125 223.85703Q76.171875 223.85703 75.625 223.10703Q75.078125 222.35703 75.0625 220.85703L75.0625 219.6539Q75.0625 218.07578 75.59375 217.32578Q76.140625 216.56015 77.296875 216.56015Q78.453125 216.56015 78.984375 217.29453Q79.53125 218.0289 79.546875 219.56015L79.546875 220.73203ZM78.640625 219.49765Q78.640625 218.3414 78.3125 217.82578Q78.0 217.29453 77.296875 217.29453Q76.609375 217.29453 76.28125 217.82578Q75.96875 218.3414 75.96875 219.41953L75.96875 220.87265Q75.96875 222.0289 76.296875 222.57578Q76.640625 223.12265 77.3125 223.12265Q77.984375 223.12265 78.296875 222.60703Q78.625 222.0914 78.640625 220.98203L78.640625 219.49765Z" fill-rule="nonzero"/><path fill="#000000" d="M22.9375 170.76991L21.265625 170.76991L21.265625 173.64491L20.328125 173.64491L20.328125 166.53554L22.671875 166.53554Q23.875 166.53554 24.515625 167.08241Q25.171875 167.62929 25.171875 168.67616Q25.171875 169.33241 24.8125 169.83241Q24.453125 170.31679 23.8125 170.56679L25.484375 173.58241L25.484375 173.64491L24.46875 173.64491L22.9375 170.76991ZM21.265625 170.00429L22.703125 170.00429Q23.40625 170.00429 23.8125 169.64491Q24.234375 169.28554 24.234375 168.67616Q24.234375 168.01991 23.828125 167.67616Q23.4375 167.31679 22.703125 167.30116L21.265625 167.30116L21.265625 170.00429ZM29.6875 171.81679Q29.6875 171.36366 29.359375 171.06679Q29.046875 170.75429 28.296875 170.50429Q27.265625 170.17616 26.78125 169.67616Q26.3125 169.16054 26.3125 168.37929Q26.3125 167.58241 26.78125 167.06679Q27.25 166.55116 28.0625 166.45741L28.0625 165.37929L28.78125 165.37929L28.78125 166.45741Q29.609375 166.56679 30.0625 167.14491Q30.515625 167.72304 30.515625 168.72304L29.625 168.72304Q29.625 168.03554 29.296875 167.62929Q28.96875 167.22304 28.40625 167.22304Q27.828125 167.22304 27.515625 167.51991Q27.21875 167.81679 27.21875 168.36366Q27.21875 168.86366 27.53125 169.16054Q27.859375 169.45741 28.609375 169.69179Q29.359375 169.92616 29.765625 170.22304Q30.1875 170.51991 30.375 170.91054Q30.578125 171.28554 30.578125 171.80116Q30.578125 172.62929 30.078125 173.12929Q29.59375 173.62929 28.703125 173.72304L28.703125 174.66054L27.96875 174.66054L27.96875 173.72304Q27.0625 173.64491 26.546875 173.08241Q26.03125 172.51991 26.03125 171.55116L26.9375 171.55116Q26.9375 172.22304 27.296875 172.59804Q27.65625 172.95741 28.3125 172.95741Q28.953125 172.95741 29.3125 172.66054Q29.6875 172.34804 29.6875 171.81679ZM37.90625 171.25429L38.890625 171.25429L38.890625 171.98866L37.90625 171.98866L37.90625 173.64491L37.0 173.64491L37.0 171.98866L33.765625 171.98866L33.765625 171.45741L36.9375 166.53554L37.90625 166.53554L37.90625 171.25429ZM34.78125 171.25429L37.0 171.25429L37.0 167.76991L36.890625 167.97304L34.78125 171.25429ZM44.546875 170.61366Q44.546875 172.19179 44.0 172.97304Q43.46875 173.73866 42.3125 173.73866Q41.171875 173.73866 40.625 172.98866Q40.078125 172.23866 40.0625 170.73866L40.0625 169.53554Q40.0625 167.95741 40.59375 167.20741Q41.140625 166.44179 42.296875 166.44179Q43.453125 166.44179 43.984375 167.17616Q44.53125 167.91054 44.546875 169.44179L44.546875 170.61366ZM43.640625 169.37929Q43.640625 168.22304 43.3125 167.70741Q43.0 167.17616 42.296875 167.17616Q41.609375 167.17616 41.28125 167.70741Q40.96875 168.22304 40.96875 169.30116L40.96875 170.75429Q40.96875 171.91054 41.296875 172.45741Q41.640625 173.00429 42.3125 173.00429Q42.984375 173.00429 43.296875 172.48866Q43.625 171.97304 43.640625 170.86366L43.640625 169.37929ZM46.203125 173.17616Q46.203125 172.94179 46.34375 172.78554Q46.484375 172.62929 46.75 172.62929Q47.03125 172.62929 47.171875 172.78554Q47.328125 172.94179 47.328125 173.17616Q47.328125 173.39491 47.171875 173.55116Q47.03125 173.69179 46.75 173.69179Q46.484375 173.69179 46.34375 173.55116Q46.203125 173.39491 46.203125 173.17616ZM53.546875 170.61366Q53.546875 172.19179 53.0 172.97304Q52.46875 173.73866 51.3125 173.73866Q50.171875 173.73866 49.625 172.98866Q49.078125 172.23866 49.0625 170.73866L49.0625 169.53554Q49.0625 167.95741 49.59375 167.20741Q50.140625 166.44179 51.296875 166.44179Q52.453125 166.44179 52.984375 167.17616Q53.53125 167.91054 53.546875 169.44179L53.546875 170.61366ZM52.640625 169.37929Q52.640625 168.22304 52.3125 167.70741Q52.0 167.17616 51.296875 167.17616Q50.609375 167.17616 50.28125 167.70741Q49.96875 168.22304 49.96875 169.30116L49.96875 170.75429Q49.96875 171.91054 50.296875 172.45741Q50.640625 173.00429 51.3125 173.00429Q51.984375 173.00429 52.296875 172.48866Q52.625 171.97304 52.640625 170.86366L52.640625 169.37929ZM59.546875 170.61366Q59.546875 172.19179 59.0 172.97304Q58.46875 173.73866 57.3125 173.73866Q56.171875 173.73866 55.625 172.98866Q55.078125 172.23866 55.0625 170.73866L55.0625 169.53554Q55.0625 167.95741 55.59375 167.20741Q56.140625 166.44179 57.296875 166.44179Q58.453125 166.44179 58.984375 167.17616Q59.53125 167.91054 59.546875 169.44179L59.546875 170.61366ZM58.640625 169.37929Q58.640625 168.22304 58.3125 167.70741Q58.0 167.17616 57.296875 167.17616Q56.609375 167.17616 56.28125 167.70741Q55.96875 168.22304 55.96875 169.30116L55.96875 170.75429Q55.96875 171.91054 56.296875 172.45741Q56.640625 173.00429 57.3125 173.00429Q57.984375 173.00429 58.296875 172.48866Q58.625 171.97304 58.640625 170.86366L58.640625 169.37929ZM65.546875 170.61366Q65.546875 172.19179 65.0 172.97304Q64.46875 173.73866 63.3125 173.73866Q62.171875 173.73866 61.625 172.98866Q61.078125 172.23866 61.0625 170.73866L61.0625 169.53554Q61.0625 167.95741 61.59375 167.20741Q62.140625 166.44179 63.296875 166.44179Q64.453125 166.44179 64.984375 167.17616Q65.53125 167.91054 65.546875 169.44179L65.546875 170.61366ZM64.640625 169.37929Q64.640625 168.22304 64.3125 167.70741Q64.0 167.17616 63.296875 167.17616Q62.609375 167.17616 62.28125 167.70741Q61.96875 168.22304 61.96875 169.30116L61.96875 170.75429Q61.96875 171.91054 62.296875 172.45741Q62.640625 173.00429 63.3125 173.00429Q63.984375 173.00429 64.296875 172.48866Q64.625 171.97304 64.640625 170.86366L64.640625 169.37929ZM67.15625 175.06679L66.640625 174.70741Q67.09375 174.06679 67.125 173.39491L67.125 172.58241L68.0 172.58241L68.0 173.28554Q68.0 173.76991 67.75 174.26991Q67.515625 174.76991 67.15625 175.06679ZM73.546875 170.61366Q73.546875 172.19179 73.0 172.97304Q72.46875 173.73866 71.3125 173.73866Q70.171875 173.73866 69.625 172.98866Q69.078125 172.23866 69.0625 170.73866L69.0625 169.53554Q69.0625 167.95741 69.59375 167.20741Q70.140625 166.44179 71.296875 166.44179Q72.453125 166.44179 72.984375 167.17616Q73.53125 167.91054 73.546875 169.44179L73.546875 170.61366ZM72.640625 169.37929Q72.640625 168.22304 72.3125 167.70741Q72.0 167.17616 71.296875 167.17616Q70.609375 167.17616 70.28125 167.70741Q69.96875 168.22304 69.96875 169.30116L69.96875 170.75429Q69.96875 171.91054 70.296875 172.45741Q70.640625 173.00429 71.3125 173.00429Q71.984375 173.00429 72.296875 172.48866Q72.625 171.97304 72.640625 170.86366L72.640625 169.37929ZM79.546875 170.61366Q79.546875 172.19179 79.0 172.97304Q78.46875 173.73866 77.3125 173.73866Q76.171875 173.73866 75.625 172.98866Q75.078125 172.23866 75.0625 170.73866L75.0625 169.53554Q75.0625 167.95741 75.59375 167.20741Q76.140625 166.44179 77.296875 166.44179Q78.453125 166.44179 78.984375 167.17616Q79.53125 167.91054 79.546875 169.44179L79.546875 170.61366ZM78.640625 169.37929Q78.640625 168.22304 78.3125 167.70741Q78.0 167.17616 77.296875 167.17616Q76.609375 167.17616 76.28125 167.70741Q75.96875 168.22304 75.96875 169.30116L75.96875 170.75429Q75.96875 171.91054 76.296875 172.45741Q76.640625 173.00429 77.3125 173.00429Q77.984375 173.00429 78.296875 172.48866Q78.625 171.97304 78.640625 170.86366L78.640625 169.37929Z" fill-rule="nonzero"/><path fill="#000000" d="M22.9375 120.65154L21.265625 120.65154L21.265625 123.52654L20.328125 123.52654L20.328125 116.41717L22.671875 116.41717Q23.875 116.41717 24.515625 116.96404Q25.171875 117.51092 25.171875 118.55779Q25.171875 119.21404 24.8125 119.71404Q24.453125 120.19842 23.8125 120.44842L25.484375 123.46404L25.484375 123.52654L24.46875 123.52654L22.9375 120.65154ZM21.265625 119.88592L22.703125 119.88592Q23.40625 119.88592 23.8125 119.52654Q24.234375 119.16717 24.234375 118.55779Q24.234375 117.90154 23.828125 117.55779Q23.4375 117.19842 22.703125 117.18279L21.265625 117.18279L21.265625 119.88592ZM29.6875 121.69842Q29.6875 121.24529 29.359375 120.94842Q29.046875 120.63592 28.296875 120.38592Q27.265625 120.05779 26.78125 119.55779Q26.3125 119.04217 26.3125 118.26092Q26.3125 117.46404 26.78125 116.94842Q27.25 116.43279 28.0625 116.33904L28.0625 115.26092L28.78125 115.26092L28.78125 116.33904Q29.609375 116.44842 30.0625 117.02654Q30.515625 117.60467 30.515625 118.60467L29.625 118.60467Q29.625 117.91717 29.296875 117.51092Q28.96875 117.10467 28.40625 117.10467Q27.828125 117.10467 27.515625 117.40154Q27.21875 117.69842 27.21875 118.24529Q27.21875 118.74529 27.53125 119.04217Q27.859375 119.33904 28.609375 119.57342Q29.359375 119.80779 29.765625 120.10467Q30.1875 120.40154 30.375 120.79217Q30.578125 121.16717 30.578125 121.68279Q30.578125 122.51092 30.078125 123.01092Q29.59375 123.51092 28.703125 123.60467L28.703125 124.54217L27.96875 124.54217L27.96875 123.60467Q27.0625 123.52654 26.546875 122.96404Q26.03125 122.40154 26.03125 121.43279L26.9375 121.43279Q26.9375 122.10467 27.296875 122.47967Q27.65625 122.83904 28.3125 122.83904Q28.953125 122.83904 29.3125 122.54217Q29.6875 122.22967 29.6875 121.69842ZM34.5 119.96404L34.875 116.41717L38.515625 116.41717L38.515625 117.24529L35.640625 117.24529L35.421875 119.18279Q35.9375 118.88592 36.609375 118.88592Q37.578125 118.88592 38.140625 119.52654Q38.71875 120.16717 38.71875 121.26092Q38.71875 122.35467 38.125 122.99529Q37.53125 123.62029 36.46875 123.62029Q35.53125 123.62029 34.921875 123.10467Q34.328125 122.57342 34.25 121.65154L35.109375 121.65154Q35.1875 122.26092 35.53125 122.57342Q35.890625 122.88592 36.46875 122.88592Q37.09375 122.88592 37.453125 122.46404Q37.8125 122.02654 37.8125 121.27654Q37.8125 120.55779 37.421875 120.13592Q37.046875 119.69842 36.390625 119.69842Q35.8125 119.69842 35.46875 119.94842L35.234375 120.15154L34.5 119.96404ZM44.546875 120.49529Q44.546875 122.07342 44.0 122.85467Q43.46875 123.62029 42.3125 123.62029Q41.171875 123.62029 40.625 122.87029Q40.078125 122.12029 40.0625 120.62029L40.0625 119.41717Q40.0625 117.83904 40.59375 117.08904Q41.140625 116.32342 42.296875 116.32342Q43.453125 116.32342 43.984375 117.05779Q44.53125 117.79217 44.546875 119.32342L44.546875 120.49529ZM43.640625 119.26092Q43.640625 118.10467 43.3125 117.58904Q43.0 117.05779 42.296875 117.05779Q41.609375 117.05779 41.28125 117.58904Q40.96875 118.10467 40.96875 119.18279L40.96875 120.63592Q40.96875 121.79217 41.296875 122.33904Q41.640625 122.88592 42.3125 122.88592Q42.984375 122.88592 43.296875 122.37029Q43.625 121.85467 43.640625 120.74529L43.640625 119.26092ZM46.203125 123.05779Q46.203125 122.82342 46.34375 122.66717Q46.484375 122.51092 46.75 122.51092Q47.03125 122.51092 47.171875 122.66717Q47.328125 122.82342 47.328125 123.05779Q47.328125 123.27654 47.171875 123.43279Q47.03125 123.57342 46.75 123.57342Q46.484375 123.57342 46.34375 123.43279Q46.203125 123.27654 46.203125 123.05779ZM53.546875 120.49529Q53.546875 122.07342 53.0 122.85467Q52.46875 123.62029 51.3125 123.62029Q50.171875 123.62029 49.625 122.87029Q49.078125 122.12029 49.0625 120.62029L49.0625 119.41717Q49.0625 117.83904 49.59375 117.08904Q50.140625 116.32342 51.296875 116.32342Q52.453125 116.32342 52.984375 117.05779Q53.53125 117.79217 53.546875 119.32342L53.546875 120.49529ZM52.640625 119.26092Q52.640625 118.10467 52.3125 117.58904Q52.0 117.05779 51.296875 117.05779Q50.609375 117.05779 50.28125 117.58904Q49.96875 118.10467 49.96875 119.18279L49.96875 120.63592Q49.96875 121.79217 50.296875 122.33904Q50.640625 122.88592 51.3125 122.88592Q51.984375 122.88592 52.296875 122.37029Q52.625 121.85467 52.640625 120.74529L52.640625 119.26092ZM59.546875 120.49529Q59.546875 122.07342 59.0 122.85467Q58.46875 123.62029 57.3125 123.62029Q56.171875 123.62029 55.625 122.87029Q55.078125 122.12029 55.0625 120.62029L55.0625 119.41717Q55.0625 117.83904 55.59375 117.08904Q56.140625 116.32342 57.296875 116.32342Q58.453125 116.32342 58.984375 117.05779Q59.53125 117.79217 59.546875 119.32342L59.546875 120.49529ZM58.640625 119.26092Q58.640625 118.10467 58.3125 117.58904Q58.0 117.05779 57.296875 117.05779Q56.609375 117.05779 56.28125 117.58904Q55.96875 118.10467 55.96875 119.18279L55.96875 120.63592Q55.96875 121.79217 56.296875 122.33904Q56.640625 122.88592 57.3125 122.88592Q57.984375 122.88592 58.296875 122.37029Q58.625 121.85467 58.640625 120.74529L58.640625 119.26092ZM65.546875 120.49529Q65.546875 122.07342 65.0 122.85467Q64.46875 123.62029 63.3125 123.62029Q62.171875 123.62029 61.625 122.87029Q61.078125 122.12029 61.0625 120.62029L61.0625 119.41717Q61.0625 117.83904 61.59375 117.08904Q62.140625 116.32342 63.296875 116.32342Q64.453125 116.32342 64.984375 117.05779Q65.53125 117.79217 65.546875 119.32342L65.546875 120.49529ZM64.640625 119.26092Q64.640625 118.10467 64.3125 117.58904Q64.0 117.05779 63.296875 117.05779Q62.609375 117.05779 62.28125 117.58904Q61.96875 118.10467 61.96875 119.18279L61.96875 120.63592Q61.96875 121.79217 62.296875 122.33904Q62.640625 122.88592 63.3125 122.88592Q63.984375 122.88592 64.296875 122.37029Q64.625 121.85467 64.640625 120.74529L64.640625 119.26092ZM67.15625 124.94842L66.640625 124.58904Q67.09375 123.94842 67.125 123.27654L67.125 122.46404L68.0 122.46404L68.0 123.16717Q68.0 123.65154 67.75 124.15154Q67.515625 124.65154 67.15625 124.94842ZM73.546875 120.49529Q73.546875 122.07342 73.0 122.85467Q72.46875 123.62029 71.3125 123.62029Q70.171875 123.62029 69.625 122.87029Q69.078125 122.12029 69.0625 120.62029L69.0625 119.41717Q69.0625 117.83904 69.59375 117.08904Q70.140625 116.32342 71.296875 116.32342Q72.453125 116.32342 72.984375 117.05779Q73.53125 117.79217 73.546875 119.32342L73.546875 120.49529ZM72.640625 119.26092Q72.640625 118.10467 72.3125 117.58904Q72.0 117.05779 71.296875 117.05779Q70.609375 117.05779 70.28125 117.58904Q69.96875 118.10467 69.96875 119.18279L69.96875 120.63592Q69.96875 121.79217 70.296875 122.33904Q70.640625 122.88592 71.3125 122.88592Q71.984375 122.88592 72.296875 122.37029Q72.625 121.85467 72.640625 120.74529L72.640625 119.26092ZM79.546875 120.49529Q79.546875 122.07342 79.0 122.85467Q78.46875 123.62029 77.3125 123.62029Q76.171875 123.62029 75.625 122.87029Q75.078125 122.12029 75.0625 120.62029L75.0625 119.41717Q75.0625 117.83904 75.59375 117.08904Q76.140625 116.32342 77.296875 116.32342Q78.453125 116.32342 78.984375 117.05779Q79.53125 117.79217 79.546875 119.32342L79.546875 120.49529ZM78.640625 119.26092Q78.640625 118.10467 78.3125 117.58904Q78.0 117.05779 77.296875 117.05779Q76.609375 117.05779 76.28125 117.58904Q75.96875 118.10467 75.96875 119.18279L75.96875 120.63592Q75.96875 121.79217 76.296875 122.33904Q76.640625 122.88592 77.3125 122.88592Q77.984375 122.88592 78.296875 122.37029Q78.625 121.85467 78.640625 120.74529L78.640625 119.26092Z" fill-rule="nonzero"/><path fill="#000000" d="M22.9375 70.53318L21.265625 70.53318L21.265625 73.40818L20.328125 73.40818L20.328125 66.298805L22.671875 66.298805Q23.875 66.298805 24.515625 66.84568Q25.171875 67.392555 25.171875 68.43943Q25.171875 69.09568 24.8125 69.59568Q24.453125 70.080055 23.8125 70.330055L25.484375 73.34568L25.484375 73.40818L24.46875 73.40818L22.9375 70.53318ZM21.265625 69.767555L22.703125 69.767555Q23.40625 69.767555 23.8125 69.40818Q24.234375 69.048805 24.234375 68.43943Q24.234375 67.78318 23.828125 67.43943Q23.4375 67.080055 22.703125 67.06443L21.265625 67.06443L21.265625 69.767555ZM29.6875 71.580055Q29.6875 71.12693 29.359375 70.830055Q29.046875 70.517555 28.296875 70.267555Q27.265625 69.93943 26.78125 69.43943Q26.3125 68.923805 26.3125 68.142555Q26.3125 67.34568 26.78125 66.830055Q27.25 66.31443 28.0625 66.22068L28.0625 65.142555L28.78125 65.142555L28.78125 66.22068Q29.609375 66.330055 30.0625 66.90818Q30.515625 67.486305 30.515625 68.486305L29.625 68.486305Q29.625 67.798805 29.296875 67.392555Q28.96875 66.986305 28.40625 66.986305Q27.828125 66.986305 27.515625 67.28318Q27.21875 67.580055 27.21875 68.12693Q27.21875 68.62693 27.53125 68.923805Q27.859375 69.22068 28.609375 69.455055Q29.359375 69.68943 29.765625 69.986305Q30.1875 70.28318 30.375 70.673805Q30.578125 71.048805 30.578125 71.56443Q30.578125 72.392555 30.078125 72.892555Q29.59375 73.392555 28.703125 73.486305L28.703125 74.423805L27.96875 74.423805L27.96875 73.486305Q27.0625 73.40818 26.546875 72.84568Q26.03125 72.28318 26.03125 71.31443L26.9375 71.31443Q26.9375 71.986305 27.296875 72.361305Q27.65625 72.72068 28.3125 72.72068Q28.953125 72.72068 29.3125 72.423805Q29.6875 72.111305 29.6875 71.580055ZM37.640625 66.298805L37.640625 67.06443L37.46875 67.06443Q36.421875 67.080055 35.796875 67.68943Q35.171875 68.28318 35.0625 69.392555Q35.625 68.75193 36.59375 68.75193Q37.53125 68.75193 38.078125 69.40818Q38.640625 70.048805 38.640625 71.09568Q38.640625 72.18943 38.03125 72.84568Q37.4375 73.50193 36.4375 73.50193Q35.421875 73.50193 34.78125 72.72068Q34.140625 71.93943 34.140625 70.705055L34.140625 70.361305Q34.140625 68.392555 34.96875 67.361305Q35.8125 66.31443 37.46875 66.298805L37.640625 66.298805ZM36.453125 69.50193Q35.984375 69.50193 35.59375 69.78318Q35.203125 70.048805 35.046875 70.47068L35.046875 70.798805Q35.046875 71.68943 35.4375 72.22068Q35.84375 72.75193 36.4375 72.75193Q37.046875 72.75193 37.390625 72.31443Q37.75 71.861305 37.75 71.12693Q37.75 70.392555 37.390625 69.955055Q37.03125 69.50193 36.453125 69.50193ZM44.546875 70.37693Q44.546875 71.955055 44.0 72.736305Q43.46875 73.50193 42.3125 73.50193Q41.171875 73.50193 40.625 72.75193Q40.078125 72.00193 40.0625 70.50193L40.0625 69.298805Q40.0625 67.72068 40.59375 66.97068Q41.140625 66.205055 42.296875 66.205055Q43.453125 66.205055 43.984375 66.93943Q44.53125 67.673805 44.546875 69.205055L44.546875 70.37693ZM43.640625 69.142555Q43.640625 67.986305 43.3125 67.47068Q43.0 66.93943 42.296875 66.93943Q41.609375 66.93943 41.28125 67.47068Q40.96875 67.986305 40.96875 69.06443L40.96875 70.517555Q40.96875 71.673805 41.296875 72.22068Q41.640625 72.767555 42.3125 72.767555Q42.984375 72.767555 43.296875 72.25193Q43.625 71.736305 43.640625 70.62693L43.640625 69.142555ZM46.203125 72.93943Q46.203125 72.705055 46.34375 72.548805Q46.484375 72.392555 46.75 72.392555Q47.03125 72.392555 47.171875 72.548805Q47.328125 72.705055 47.328125 72.93943Q47.328125 73.15818 47.171875 73.31443Q47.03125 73.455055 46.75 73.455055Q46.484375 73.455055 46.34375 73.31443Q46.203125 73.15818 46.203125 72.93943ZM53.546875 70.37693Q53.546875 71.955055 53.0 72.736305Q52.46875 73.50193 51.3125 73.50193Q50.171875 73.50193 49.625 72.75193Q49.078125 72.00193 49.0625 70.50193L49.0625 69.298805Q49.0625 67.72068 49.59375 66.97068Q50.140625 66.205055 51.296875 66.205055Q52.453125 66.205055 52.984375 66.93943Q53.53125 67.673805 53.546875 69.205055L53.546875 70.37693ZM52.640625 69.142555Q52.640625 67.986305 52.3125 67.47068Q52.0 66.93943 51.296875 66.93943Q50.609375 66.93943 50.28125 67.47068Q49.96875 67.986305 49.96875 69.06443L49.96875 70.517555Q49.96875 71.673805 50.296875 72.22068Q50.640625 72.767555 51.3125 72.767555Q51.984375 72.767555 52.296875 72.25193Q52.625 71.736305 52.640625 70.62693L52.640625 69.142555ZM59.546875 70.37693Q59.546875 71.955055 59.0 72.736305Q58.46875 73.50193 57.3125 73.50193Q56.171875 73.50193 55.625 72.75193Q55.078125 72.00193 55.0625 70.50193L55.0625 69.298805Q55.0625 67.72068 55.59375 66.97068Q56.140625 66.205055 57.296875 66.205055Q58.453125 66.205055 58.984375 66.93943Q59.53125 67.673805 59.546875 69.205055L59.546875 70.37693ZM58.640625 69.142555Q58.640625 67.986305 58.3125 67.47068Q58.0 66.93943 57.296875 66.93943Q56.609375 66.93943 56.28125 67.47068Q55.96875 67.986305 55.96875 69.06443L55.96875 70.517555Q55.96875 71.673805 56.296875 72.22068Q56.640625 72.767555 57.3125 72.767555Q57.984375 72.767555 58.296875 72.25193Q58.625 71.736305 58.640625 70.62693L58.640625 69.142555ZM65.546875 70.37693Q65.546875 71.955055 65.0 72.736305Q64.46875 73.50193 63.3125 73.50193Q62.171875 73.50193 61.625 72.75193Q61.078125 72.00193 61.0625 70.50193L61.0625 69.298805Q61.0625 67.72068 61.59375 66.97068Q62.140625 66.205055 63.296875 66.205055Q64.453125 66.205055 64.984375 66.93943Q65.53125 67.673805 65.546875 69.205055L65.546875 70.37693ZM64.640625 69.142555Q64.640625 67.986305 64.3125 67.47068Q64.0 66.93943 63.296875 66.93943Q62.609375 66.93943 62.28125 67.47068Q61.96875 67.986305 61.96875 69.06443L61.96875 70.517555Q61.96875 71.673805 62.296875 72.22068Q62.640625 72.767555 63.3125 72.767555Q63.984375 72.767555 64.296875 72.25193Q64.625 71.736305 64.640625 70.62693L64.640625 69.142555ZM67.15625 74.830055L66.640625 74.47068Q67.09375 73.830055 67.125 73.15818L67.125 72.34568L68.0 72.34568L68.0 73.048805Q68.0 73.53318 67.75 74.03318Q67.515625 74.53318 67.15625 74.830055ZM73.546875 70.37693Q73.546875 71.955055 73.0 72.736305Q72.46875 73.50193 71.3125 73.50193Q70.171875 73.50193 69.625 72.75193Q69.078125 72.00193 69.0625 70.50193L69.0625 69.298805Q69.0625 67.72068 69.59375 66.97068Q70.140625 66.205055 71.296875 66.205055Q72.453125 66.205055 72.984375 66.93943Q73.53125 67.673805 73.546875 69.205055L73.546875 70.37693ZM72.640625 69.142555Q72.640625 67.986305 72.3125 67.47068Q72.0 66.93943 71.296875 66.93943Q70.609375 66.93943 70.28125 67.47068Q69.96875 67.986305 69.96875 69.06443L69.96875 70.517555Q69.96875 71.673805 70.296875 72.22068Q70.640625 72.767555 71.3125 72.767555Q71.984375 72.767555 72.296875 72.25193Q72.625 71.736305 72.640625 70.62693L72.640625 69.142555ZM79.546875 70.37693Q79.546875 71.955055 79.0 72.736305Q78.46875 73.50193 77.3125 73.50193Q76.171875 73.50193 75.625 72.75193Q75.078125 72.00193 75.0625 70.50193L75.0625 69.298805Q75.0625 67.72068 75.59375 66.97068Q76.140625 66.205055 77.296875 66.205055Q78.453125 66.205055 78.984375 66.93943Q79.53125 67.673805 79.546875 69.205055L79.546875 70.37693ZM78.640625 69.142555Q78.640625 67.986305 78.3125 67.47068Q78.0 66.93943 77.296875 66.93943Q76.609375 66.93943 76.28125 67.47068Q75.96875 67.986305 75.96875 69.06443L75.96875 70.517555Q75.96875 71.673805 76.296875 72.22068Q76.640625 72.767555 77.3125 72.767555Q77.984375 72.767555 78.296875 72.25193Q78.625 71.736305 78.640625 70.62693L78.640625 69.142555Z" fill-rule="nonzero"/><path fill="#000000" d="M158.9475 338.5L153.35374 338.5L153.35374 337.71875L156.30687 334.4375Q156.96312 333.6875 157.21312 333.23438Q157.46312 332.76562 157.46312 332.26562Q157.46312 331.59375 157.05687 331.17188Q156.66624 330.73438 155.97874 330.73438Q155.18187 330.73438 154.72874 331.20312Q154.27562 331.65625 154.27562 332.48438L153.1975 332.48438Q153.1975 331.29688 153.9475 330.57812Q154.71312 329.84375 155.97874 329.84375Q157.18187 329.84375 157.86937 330.46875Q158.55687 331.09375 158.55687 332.14062Q158.55687 333.39062 156.9475 335.14062L154.66624 337.60938L158.9475 337.60938L158.9475 338.5ZM165.71312 334.85938Q165.71312 336.76562 165.05687 337.70312Q164.41624 338.625 163.02562 338.625Q161.66624 338.625 161.01 337.71875Q160.35374 336.8125 160.3225 335.0L160.3225 333.5625Q160.3225 331.67188 160.96312 330.76562Q161.61937 329.84375 163.01 329.84375Q164.385 329.84375 165.04124 330.73438Q165.6975 331.60938 165.71312 333.45312L165.71312 334.85938ZM164.61937 333.375Q164.61937 332.0 164.22874 331.375Q163.85374 330.73438 163.01 330.73438Q162.18187 330.73438 161.79124 331.375Q161.41624 332.0 161.41624 333.29688L161.41624 335.03125Q161.41624 336.40625 161.80687 337.07812Q162.21312 337.73438 163.02562 337.73438Q163.8225 337.73438 164.21312 337.10938Q164.60374 336.48438 164.61937 335.15625L164.61937 333.375ZM170.91624 338.5L169.83812 338.5L169.83812 331.28125L167.65062 332.07812L167.65062 331.09375L170.76 329.92188L170.91624 329.92188L170.91624 338.5ZM178.61937 329.96875L178.61937 330.875L178.41624 330.875Q177.15062 330.90625 176.40062 331.64062Q175.65062 332.35938 175.52562 333.67188Q176.21312 332.90625 177.36937 332.90625Q178.47874 332.90625 179.15062 333.6875Q179.8225 334.46875 179.8225 335.71875Q179.8225 337.03125 179.10374 337.82812Q178.385 338.625 177.16624 338.625Q175.9475 338.625 175.18187 337.6875Q174.43187 336.73438 174.43187 335.25L174.43187 334.84375Q174.43187 332.48438 175.43187 331.23438Q176.43187 329.98438 178.41624 329.96875L178.61937 329.96875ZM177.1975 333.8125Q176.635 333.8125 176.16624 334.14062Q175.6975 334.46875 175.51 334.98438L175.51 335.375Q175.51 336.4375 175.97874 337.07812Q176.46312 337.71875 177.16624 337.71875Q177.90062 337.71875 178.3225 337.1875Q178.74437 336.64062 178.74437 335.76562Q178.74437 334.89062 178.3225 334.35938Q177.90062 333.8125 177.1975 333.8125Z" fill-rule="nonzero"/><path fill="#000000" d="M279.17065 338.5L273.5769 338.5L273.5769 337.71875L276.53003 334.4375Q277.18628 333.6875 277.43628 333.23438Q277.68628 332.76562 277.68628 332.26562Q277.68628 331.59375 277.28003 331.17188Q276.8894 330.73438 276.2019 330.73438Q275.40503 330.73438 274.9519 331.20312Q274.49878 331.65625 274.49878 332.48438L273.42065 332.48438Q273.42065 331.29688 274.17065 330.57812Q274.93628 329.84375 276.2019 329.84375Q277.40503 329.84375 278.09253 330.46875Q278.78003 331.09375 278.78003 332.14062Q278.78003 333.39062 277.17065 335.14062L274.8894 337.60938L279.17065 337.60938L279.17065 338.5ZM285.93628 334.85938Q285.93628 336.76562 285.28003 337.70312Q284.6394 338.625 283.24878 338.625Q281.8894 338.625 281.23315 337.71875Q280.5769 336.8125 280.54565 335.0L280.54565 333.5625Q280.54565 331.67188 281.18628 330.76562Q281.84253 329.84375 283.23315 329.84375Q284.60815 329.84375 285.2644 330.73438Q285.92065 331.60938 285.93628 333.45312L285.93628 334.85938ZM284.84253 333.375Q284.84253 332.0 284.4519 331.375Q284.0769 330.73438 283.23315 330.73438Q282.40503 330.73438 282.0144 331.375Q281.6394 332.0 281.6394 333.29688L281.6394 335.03125Q281.6394 336.40625 282.03003 337.07812Q282.43628 337.73438 283.24878 337.73438Q284.04565 337.73438 284.43628 337.10938Q284.8269 336.48438 284.84253 335.15625L284.84253 333.375ZM291.1394 338.5L290.06128 338.5L290.06128 331.28125L287.87378 332.07812L287.87378 331.09375L290.98315 329.92188L291.1394 329.92188L291.1394 338.5ZM300.09253 330.57812L296.56128 338.5L295.42065 338.5L298.93628 330.85938L294.3269 330.85938L294.3269 329.96875L300.09253 329.96875L300.09253 330.57812Z" fill-rule="nonzero"/><path fill="#000000" d="M399.3938 338.5L393.80005 338.5L393.80005 337.71875L396.75317 334.4375Q397.40942 333.6875 397.65942 333.23438Q397.90942 332.76562 397.90942 332.26562Q397.90942 331.59375 397.50317 331.17188Q397.11255 330.73438 396.42505 330.73438Q395.62817 330.73438 395.17505 331.20312Q394.72192 331.65625 394.72192 332.48438L393.6438 332.48438Q393.6438 331.29688 394.3938 330.57812Q395.15942 329.84375 396.42505 329.84375Q397.62817 329.84375 398.31567 330.46875Q399.00317 331.09375 399.00317 332.14062Q399.00317 333.39062 397.3938 335.14062L395.11255 337.60938L399.3938 337.60938L399.3938 338.5ZM406.15942 334.85938Q406.15942 336.76562 405.50317 337.70312Q404.86255 338.625 403.47192 338.625Q402.11255 338.625 401.4563 337.71875Q400.80005 336.8125 400.7688 335.0L400.7688 333.5625Q400.7688 331.67188 401.40942 330.76562Q402.06567 329.84375 403.4563 329.84375Q404.8313 329.84375 405.48755 330.73438Q406.1438 331.60938 406.15942 333.45312L406.15942 334.85938ZM405.06567 333.375Q405.06567 332.0 404.67505 331.375Q404.30005 330.73438 403.4563 330.73438Q402.62817 330.73438 402.23755 331.375Q401.86255 332.0 401.86255 333.29688L401.86255 335.03125Q401.86255 336.40625 402.25317 337.07812Q402.65942 337.73438 403.47192 337.73438Q404.2688 337.73438 404.65942 337.10938Q405.05005 336.48438 405.06567 335.15625L405.06567 333.375ZM411.36255 338.5L410.28442 338.5L410.28442 331.28125L408.09692 332.07812L408.09692 331.09375L411.2063 329.92188L411.36255 329.92188L411.36255 338.5ZM419.98755 332.1875Q419.98755 332.82812 419.6438 333.32812Q419.30005 333.82812 418.73755 334.10938Q419.3938 334.39062 419.78442 334.95312Q420.17505 335.5 420.17505 336.20312Q420.17505 337.29688 419.42505 337.96875Q418.69067 338.625 417.47192 338.625Q416.23755 338.625 415.48755 337.96875Q414.75317 337.29688 414.75317 336.20312Q414.75317 335.5 415.12817 334.95312Q415.50317 334.39062 416.17505 334.10938Q415.61255 333.82812 415.28442 333.32812Q414.9563 332.82812 414.9563 332.1875Q414.9563 331.10938 415.6438 330.48438Q416.3313 329.84375 417.47192 329.84375Q418.59692 329.84375 419.28442 330.48438Q419.98755 331.10938 419.98755 332.1875ZM419.09692 336.17188Q419.09692 335.45312 418.6438 335.01562Q418.19067 334.5625 417.4563 334.5625Q416.72192 334.5625 416.2688 335.01562Q415.8313 335.45312 415.8313 336.1875Q415.8313 336.90625 416.2688 337.32812Q416.7063 337.73438 417.47192 337.73438Q418.22192 337.73438 418.65942 337.3125Q419.09692 336.89062 419.09692 336.17188ZM417.47192 330.73438Q416.8313 330.73438 416.42505 331.14062Q416.03442 331.53125 416.03442 332.21875Q416.03442 332.85938 416.42505 333.26562Q416.81567 333.67188 417.4563 333.67188Q418.11255 333.67188 418.50317 333.26562Q418.8938 332.85938 418.8938 332.21875Q418.8938 331.5625 418.48755 331.15625Q418.0813 330.73438 417.47192 330.73438Z" fill-rule="nonzero"/><path fill="#000000" d="M519.61694 338.5L514.0232 338.5L514.0232 337.71875L516.9763 334.4375Q517.63257 333.6875 517.88257 333.23438Q518.13257 332.76562 518.13257 332.26562Q518.13257 331.59375 517.7263 331.17188Q517.3357 330.73438 516.6482 330.73438Q515.8513 330.73438 515.3982 331.20312Q514.94507 331.65625 514.94507 332.48438L513.86694 332.48438Q513.86694 331.29688 514.61694 330.57812Q515.38257 329.84375 516.6482 329.84375Q517.8513 329.84375 518.5388 330.46875Q519.2263 331.09375 519.2263 332.14062Q519.2263 333.39062 517.61694 335.14062L515.3357 337.60938L519.61694 337.60938L519.61694 338.5ZM526.38257 334.85938Q526.38257 336.76562 525.7263 337.70312Q525.0857 338.625 523.69507 338.625Q522.3357 338.625 521.67944 337.71875Q521.0232 336.8125 520.99194 335.0L520.99194 333.5625Q520.99194 331.67188 521.63257 330.76562Q522.2888 329.84375 523.67944 329.84375Q525.05444 329.84375 525.7107 330.73438Q526.36694 331.60938 526.38257 333.45312L526.38257 334.85938ZM525.2888 333.375Q525.2888 332.0 524.8982 331.375Q524.5232 330.73438 523.67944 330.73438Q522.8513 330.73438 522.4607 331.375Q522.0857 332.0 522.0857 333.29688L522.0857 335.03125Q522.0857 336.40625 522.4763 337.07812Q522.88257 337.73438 523.69507 337.73438Q524.49194 337.73438 524.88257 337.10938Q525.2732 336.48438 525.2888 335.15625L525.2888 333.375ZM531.5857 338.5L530.50757 338.5L530.50757 331.28125L528.32007 332.07812L528.32007 331.09375L531.42944 329.92188L531.5857 329.92188L531.5857 338.5ZM539.17944 334.75Q538.8513 335.15625 538.36694 335.40625Q537.8982 335.64062 537.3357 335.64062Q536.6013 335.64062 536.05444 335.28125Q535.50757 334.92188 535.2107 334.26562Q534.9138 333.59375 534.9138 332.79688Q534.9138 331.95312 535.2263 331.26562Q535.55444 330.57812 536.1482 330.21875Q536.75757 329.84375 537.55444 329.84375Q538.82007 329.84375 539.5388 330.79688Q540.2732 331.75 540.2732 333.375L540.2732 333.6875Q540.2732 336.1875 539.2888 337.32812Q538.30444 338.46875 536.32007 338.5L536.1013 338.5L536.1013 337.59375L536.3357 337.59375Q537.67944 337.5625 538.3982 336.89062Q539.11694 336.21875 539.17944 334.75ZM537.50757 334.75Q538.05444 334.75 538.50757 334.42188Q538.9763 334.07812 539.19507 333.59375L539.19507 333.15625Q539.19507 332.09375 538.7263 331.42188Q538.25757 330.75 537.55444 330.75Q536.8357 330.75 536.3982 331.29688Q535.9763 331.84375 535.9763 332.75Q535.9763 333.625 536.38257 334.1875Q536.80444 334.75 537.50757 334.75Z" fill-rule="nonzero"/><path fill="#000000" d="M639.8401 338.5L634.24634 338.5L634.24634 337.71875L637.19946 334.4375Q637.8557 333.6875 638.1057 333.23438Q638.3557 332.76562 638.3557 332.26562Q638.3557 331.59375 637.94946 331.17188Q637.55884 330.73438 636.87134 330.73438Q636.07446 330.73438 635.62134 331.20312Q635.1682 331.65625 635.1682 332.48438L634.0901 332.48438Q634.0901 331.29688 634.8401 330.57812Q635.6057 329.84375 636.87134 329.84375Q638.07446 329.84375 638.76196 330.46875Q639.44946 331.09375 639.44946 332.14062Q639.44946 333.39062 637.8401 335.14062L635.55884 337.60938L639.8401 337.60938L639.8401 338.5ZM646.6057 334.85938Q646.6057 336.76562 645.94946 337.70312Q645.30884 338.625 643.9182 338.625Q642.55884 338.625 641.9026 337.71875Q641.24634 336.8125 641.2151 335.0L641.2151 333.5625Q641.2151 331.67188 641.8557 330.76562Q642.51196 329.84375 643.9026 329.84375Q645.2776 329.84375 645.93384 330.73438Q646.5901 331.60938 646.6057 333.45312L646.6057 334.85938ZM645.51196 333.375Q645.51196 332.0 645.12134 331.375Q644.74634 330.73438 643.9026 330.73438Q643.07446 330.73438 642.68384 331.375Q642.30884 332.0 642.30884 333.29688L642.30884 335.03125Q642.30884 336.40625 642.69946 337.07812Q643.1057 337.73438 643.9182 337.73438Q644.7151 337.73438 645.1057 337.10938Q645.49634 336.48438 645.51196 335.15625L645.51196 333.375ZM653.8401 338.5L648.24634 338.5L648.24634 337.71875L651.19946 334.4375Q651.8557 333.6875 652.1057 333.23438Q652.3557 332.76562 652.3557 332.26562Q652.3557 331.59375 651.94946 331.17188Q651.55884 330.73438 650.87134 330.73438Q650.07446 330.73438 649.62134 331.20312Q649.1682 331.65625 649.1682 332.48438L648.0901 332.48438Q648.0901 331.29688 648.8401 330.57812Q649.6057 329.84375 650.87134 329.84375Q652.07446 329.84375 652.76196 330.46875Q653.44946 331.09375 653.44946 332.14062Q653.44946 333.39062 651.8401 335.14062L649.55884 337.60938L653.8401 337.60938L653.8401 338.5ZM660.6057 334.85938Q660.6057 336.76562 659.94946 337.70312Q659.30884 338.625 657.9182 338.625Q656.55884 338.625 655.9026 337.71875Q655.24634 336.8125 655.2151 335.0L655.2151 333.5625Q655.2151 331.67188 655.8557 330.76562Q656.51196 329.84375 657.9026 329.84375Q659.2776 329.84375 659.93384 330.73438Q660.5901 331.60938 660.6057 333.45312L660.6057 334.85938ZM659.51196 333.375Q659.51196 332.0 659.12134 331.375Q658.74634 330.73438 657.9026 330.73438Q657.07446 330.73438 656.68384 331.375Q656.30884 332.0 656.30884 333.29688L656.30884 335.03125Q656.30884 336.40625 656.69946 337.07812Q657.1057 337.73438 657.9182 337.73438Q658.7151 337.73438 659.1057 337.10938Q659.49634 336.48438 659.51196 335.15625L659.51196 333.375Z" fill-rule="nonzero"/><path fill="#000000" d="M760.06323 338.5L754.4695 338.5L754.4695 337.71875L757.4226 334.4375Q758.07886 333.6875 758.32886 333.23438Q758.57886 332.76562 758.57886 332.26562Q758.57886 331.59375 758.1726 331.17188Q757.782 330.73438 757.0945 330.73438Q756.2976 330.73438 755.8445 331.20312Q755.39136 331.65625 755.39136 332.48438L754.31323 332.48438Q754.31323 331.29688 755.06323 330.57812Q755.82886 329.84375 757.0945 329.84375Q758.2976 329.84375 758.9851 330.46875Q759.6726 331.09375 759.6726 332.14062Q759.6726 333.39062 758.06323 335.14062L755.782 337.60938L760.06323 337.60938L760.06323 338.5ZM766.82886 334.85938Q766.82886 336.76562 766.1726 337.70312Q765.532 338.625 764.14136 338.625Q762.782 338.625 762.12573 337.71875Q761.4695 336.8125 761.43823 335.0L761.43823 333.5625Q761.43823 331.67188 762.07886 330.76562Q762.7351 329.84375 764.12573 329.84375Q765.50073 329.84375 766.157 330.73438Q766.81323 331.60938 766.82886 333.45312L766.82886 334.85938ZM765.7351 333.375Q765.7351 332.0 765.3445 331.375Q764.9695 330.73438 764.12573 330.73438Q763.2976 330.73438 762.907 331.375Q762.532 332.0 762.532 333.29688L762.532 335.03125Q762.532 336.40625 762.9226 337.07812Q763.32886 337.73438 764.14136 337.73438Q764.93823 337.73438 765.32886 337.10938Q765.7195 336.48438 765.7351 335.15625L765.7351 333.375ZM774.06323 338.5L768.4695 338.5L768.4695 337.71875L771.4226 334.4375Q772.07886 333.6875 772.32886 333.23438Q772.57886 332.76562 772.57886 332.26562Q772.57886 331.59375 772.1726 331.17188Q771.782 330.73438 771.0945 330.73438Q770.2976 330.73438 769.8445 331.20312Q769.39136 331.65625 769.39136 332.48438L768.31323 332.48438Q768.31323 331.29688 769.06323 330.57812Q769.82886 329.84375 771.0945 329.84375Q772.2976 329.84375 772.9851 330.46875Q773.6726 331.09375 773.6726 332.14062Q773.6726 333.39062 772.06323 335.14062L769.782 337.60938L774.06323 337.60938L774.06323 338.5ZM779.032 338.5L777.95386 338.5L777.95386 331.28125L775.76636 332.07812L775.76636 331.09375L778.87573 329.92188L779.032 329.92188L779.032 338.5Z" fill-rule="nonzero"/><path fill="#12bbad" d="M340.5 53.472977C340.5 52.920692 340.94772 52.472977 341.5 52.472977L351.5 52.472977C352.05228 52.472977 352.5 52.920692 352.5 53.472977L352.5 63.472977C352.5 64.02526 352.05228 64.47298 351.5 64.47298L341.5 64.47298C340.94772 64.47298 340.5 64.02526 340.5 63.472977Z" fill-rule="nonzero"/><path fill="#1a1a1a" d="M367.79688 61.847977Q367.35938 62.472977 366.57812 62.785477Q365.79688 63.097977 364.76562 63.097977Q363.73438 63.097977 362.92188 62.6136Q362.10938 62.1136 361.67188 61.20735Q361.23438 60.3011 361.21875 59.1136L361.21875 58.379227Q361.21875 56.441727 362.10938 55.379227Q363.01562 54.316727 364.64062 54.316727Q365.98438 54.316727 366.79688 55.004227Q367.60938 55.691727 367.79688 56.941727L366.67188 56.941727Q366.34375 55.254227 364.65625 55.254227Q363.51562 55.254227 362.9375 56.0511Q362.35938 56.83235 362.34375 58.347977L362.34375 59.035477Q362.34375 60.472977 363.0 61.33235Q363.65625 62.1761 364.78125 62.1761Q365.40625 62.1761 365.875 62.035477Q366.35938 61.89485 366.67188 61.5511L366.67188 59.64485L364.70312 59.64485L364.70312 58.722977L367.79688 58.722977L367.79688 61.847977ZM369.03125 59.7386Q369.03125 58.816727 369.39062 58.066727Q369.76562 57.316727 370.42188 56.9261Q371.07812 56.51985 371.90625 56.51985Q373.20312 56.51985 374.0 57.410477Q374.8125 58.3011 374.8125 59.8011L374.8125 59.879227Q374.8125 60.8011 374.45312 61.535477Q374.09375 62.26985 373.4375 62.691727Q372.78125 63.097977 371.92188 63.097977Q370.64062 63.097977 369.82812 62.20735Q369.03125 61.3011 369.03125 59.816727L369.03125 59.7386ZM370.125 59.879227Q370.125 60.9261 370.60938 61.566727Q371.10938 62.20735 371.92188 62.20735Q372.75 62.20735 373.23438 61.566727Q373.71875 60.910477 373.71875 59.7386Q373.71875 58.70735 373.21875 58.066727Q372.73438 57.410477 371.90625 57.410477Q371.10938 57.410477 370.60938 58.0511Q370.125 58.6761 370.125 59.879227ZM377.5 62.972977L376.42188 62.972977L376.42188 53.972977L377.5 53.972977L377.5 62.972977ZM385.76562 62.972977L384.6875 62.972977L384.6875 55.754227L382.5 56.5511L382.5 55.566727L385.60938 54.39485L385.76562 54.39485L385.76562 62.972977ZM389.34375 62.410477Q389.34375 62.129227 389.5 61.941727Q389.67188 61.754227 390.0 61.754227Q390.34375 61.754227 390.51562 61.941727Q390.6875 62.129227 390.6875 62.410477Q390.6875 62.6761 390.51562 62.8636Q390.34375 63.035477 390.0 63.035477Q389.67188 63.035477 389.5 62.8636Q389.34375 62.6761 389.34375 62.410477ZM397.5625 59.33235Q397.5625 61.2386 396.90625 62.1761Q396.26562 63.097977 394.875 63.097977Q393.51562 63.097977 392.85938 62.191727Q392.20312 61.285477 392.17188 59.472977L392.17188 58.035477Q392.17188 56.14485 392.8125 55.2386Q393.46875 54.316727 394.85938 54.316727Q396.23438 54.316727 396.89062 55.20735Q397.54688 56.08235 397.5625 57.9261L397.5625 59.33235ZM396.46875 57.847977Q396.46875 56.472977 396.07812 55.847977Q395.70312 55.20735 394.85938 55.20735Q394.03125 55.20735 393.64062 55.847977Q393.26562 56.472977 393.26562 57.76985L393.26562 59.504227Q393.26562 60.879227 393.65625 61.5511Q394.0625 62.20735 394.875 62.20735Q395.67188 62.20735 396.0625 61.58235Q396.45312 60.95735 396.46875 59.629227L396.46875 57.847977ZM409.04688 62.972977L407.92188 62.972977L403.625 56.39485L403.625 62.972977L402.48438 62.972977L402.48438 54.441727L403.625 54.441727L407.92188 61.0511L407.92188 54.441727L409.04688 54.441727L409.04688 62.972977ZM411.03125 59.7386Q411.03125 58.816727 411.39062 58.066727Q411.76562 57.316727 412.42188 56.9261Q413.07812 56.51985 413.90625 56.51985Q415.20312 56.51985 416.0 57.410477Q416.8125 58.3011 416.8125 59.8011L416.8125 59.879227Q416.8125 60.8011 416.45312 61.535477Q416.09375 62.26985 415.4375 62.691727Q414.78125 63.097977 413.92188 63.097977Q412.64062 63.097977 411.82812 62.20735Q411.03125 61.3011 411.03125 59.816727L411.03125 59.7386ZM412.125 59.879227Q412.125 60.9261 412.60938 61.566727Q413.10938 62.20735 413.92188 62.20735Q414.75 62.20735 415.23438 61.566727Q415.71875 60.910477 415.71875 59.7386Q415.71875 58.70735 415.21875 58.066727Q414.73438 57.410477 413.90625 57.410477Q413.10938 57.410477 412.60938 58.0511Q412.125 58.6761 412.125 59.879227ZM420.40625 61.504227L421.98438 56.629227L423.09375 56.629227L420.8125 62.972977L419.98438 62.972977L417.6875 56.629227L418.79688 56.629227L420.40625 61.504227ZM424.03125 59.7386Q424.03125 58.816727 424.39062 58.066727Q424.76562 57.316727 425.42188 56.9261Q426.07812 56.51985 426.90625 56.51985Q428.20312 56.51985 429.0 57.410477Q429.8125 58.3011 429.8125 59.8011L429.8125 59.879227Q429.8125 60.8011 429.45312 61.535477Q429.09375 62.26985 428.4375 62.691727Q427.78125 63.097977 426.92188 63.097977Q425.64062 63.097977 424.82812 62.20735Q424.03125 61.3011 424.03125 59.816727L424.03125 59.7386ZM425.125 59.879227Q425.125 60.9261 425.60938 61.566727Q426.10938 62.20735 426.92188 62.20735Q427.75 62.20735 428.23438 61.566727Q428.71875 60.910477 428.71875 59.7386Q428.71875 58.70735 428.21875 58.066727Q427.73438 57.410477 426.90625 57.410477Q426.10938 57.410477 425.60938 58.0511Q425.125 58.6761 425.125 59.879227Z" fill-rule="nonzero"/><path fill="#0a403c" d="M446.5 53.472977C446.5 52.920692 446.94772 52.472977 447.5 52.472977L457.5 52.472977C458.05228 52.472977 458.5 52.920692 458.5 53.472977L458.5 63.472977C458.5 64.02526 458.05228 64.47298 457.5 64.47298L447.5 64.47298C446.94772 64.47298 446.5 64.02526 446.5 63.472977Z" fill-rule="nonzero"/><path fill="#1a1a1a" d="M473.79688 61.847977Q473.35938 62.472977 472.57812 62.785477Q471.79688 63.097977 470.76562 63.097977Q469.73438 63.097977 468.92188 62.6136Q468.10938 62.1136 467.67188 61.20735Q467.23438 60.3011 467.21875 59.1136L467.21875 58.379227Q467.21875 56.441727 468.10938 55.379227Q469.01562 54.316727 470.64062 54.316727Q471.98438 54.316727 472.79688 55.004227Q473.60938 55.691727 473.79688 56.941727L472.67188 56.941727Q472.34375 55.254227 470.65625 55.254227Q469.51562 55.254227 468.9375 56.0511Q468.35938 56.83235 468.34375 58.347977L468.34375 59.035477Q468.34375 60.472977 469.0 61.33235Q469.65625 62.1761 470.78125 62.1761Q471.40625 62.1761 471.875 62.035477Q472.35938 61.89485 472.67188 61.5511L472.67188 59.64485L470.70312 59.64485L470.70312 58.722977L473.79688 58.722977L473.79688 61.847977ZM475.03125 59.7386Q475.03125 58.816727 475.39062 58.066727Q475.76562 57.316727 476.42188 56.9261Q477.07812 56.51985 477.90625 56.51985Q479.20312 56.51985 480.0 57.410477Q480.8125 58.3011 480.8125 59.8011L480.8125 59.879227Q480.8125 60.8011 480.45312 61.535477Q480.09375 62.26985 479.4375 62.691727Q478.78125 63.097977 477.92188 63.097977Q476.64062 63.097977 475.82812 62.20735Q475.03125 61.3011 475.03125 59.816727L475.03125 59.7386ZM476.125 59.879227Q476.125 60.9261 476.60938 61.566727Q477.10938 62.20735 477.92188 62.20735Q478.75 62.20735 479.23438 61.566727Q479.71875 60.910477 479.71875 59.7386Q479.71875 58.70735 479.21875 58.066727Q478.73438 57.410477 477.90625 57.410477Q477.10938 57.410477 476.60938 58.0511Q476.125 58.6761 476.125 59.879227ZM483.5 62.972977L482.42188 62.972977L482.42188 53.972977L483.5 53.972977L483.5 62.972977ZM491.76562 62.972977L490.6875 62.972977L490.6875 55.754227L488.5 56.5511L488.5 55.566727L491.60938 54.39485L491.76562 54.39485L491.76562 62.972977ZM495.34375 62.410477Q495.34375 62.129227 495.5 61.941727Q495.67188 61.754227 496.0 61.754227Q496.34375 61.754227 496.51562 61.941727Q496.6875 62.129227 496.6875 62.410477Q496.6875 62.6761 496.51562 62.8636Q496.34375 63.035477 496.0 63.035477Q495.67188 63.035477 495.5 62.8636Q495.34375 62.6761 495.34375 62.410477ZM503.5625 59.33235Q503.5625 61.2386 502.90625 62.1761Q502.26562 63.097977 500.875 63.097977Q499.51562 63.097977 498.85938 62.191727Q498.20312 61.285477 498.17188 59.472977L498.17188 58.035477Q498.17188 56.14485 498.8125 55.2386Q499.46875 54.316727 500.85938 54.316727Q502.23438 54.316727 502.89062 55.20735Q503.54688 56.08235 503.5625 57.9261L503.5625 59.33235ZM502.46875 57.847977Q502.46875 56.472977 502.07812 55.847977Q501.70312 55.20735 500.85938 55.20735Q500.03125 55.20735 499.64062 55.847977Q499.26562 56.472977 499.26562 57.76985L499.26562 59.504227Q499.26562 60.879227 499.65625 61.5511Q500.0625 62.20735 500.875 62.20735Q501.67188 62.20735 502.0625 61.58235Q502.45312 60.95735 502.46875 59.629227L502.46875 57.847977ZM513.7969 62.972977L508.20312 62.972977L508.20312 62.191727L511.15625 58.910477Q511.8125 58.160477 512.0625 57.70735Q512.3125 57.2386 512.3125 56.7386Q512.3125 56.066727 511.90625 55.64485Q511.51562 55.20735 510.82812 55.20735Q510.03125 55.20735 509.57812 55.6761Q509.125 56.129227 509.125 56.95735L508.04688 56.95735Q508.04688 55.76985 508.79688 55.0511Q509.5625 54.316727 510.82812 54.316727Q512.03125 54.316727 512.71875 54.941727Q513.40625 55.566727 513.40625 56.6136Q513.40625 57.8636 511.79688 59.6136L509.51562 62.08235L513.7969 62.08235L513.7969 62.972977ZM520.5625 59.33235Q520.5625 61.2386 519.90625 62.1761Q519.2656 63.097977 517.875 63.097977Q516.5156 63.097977 515.8594 62.191727Q515.2031 61.285477 515.1719 59.472977L515.1719 58.035477Q515.1719 56.14485 515.8125 55.2386Q516.46875 54.316727 517.8594 54.316727Q519.2344 54.316727 519.8906 55.20735Q520.5469 56.08235 520.5625 57.9261L520.5625 59.33235ZM519.46875 57.847977Q519.46875 56.472977 519.0781 55.847977Q518.7031 55.20735 517.8594 55.20735Q517.03125 55.20735 516.6406 55.847977Q516.2656 56.472977 516.2656 57.76985L516.2656 59.504227Q516.2656 60.879227 516.65625 61.5511Q517.0625 62.20735 517.875 62.20735Q518.6719 62.20735 519.0625 61.58235Q519.4531 60.95735 519.46875 59.629227L519.46875 57.847977ZM525.7656 62.972977L524.6875 62.972977L524.6875 55.754227L522.5 56.5511L522.5 55.566727L525.6094 54.39485L525.7656 54.39485L525.7656 62.972977ZM533.46875 54.441727L533.46875 55.347977L533.2656 55.347977Q532.0 55.379227 531.25 56.1136Q530.5 56.83235 530.375 58.14485Q531.0625 57.379227 532.21875 57.379227Q533.3281 57.379227 534.0 58.160477Q534.6719 58.941727 534.6719 60.191727Q534.6719 61.504227 533.9531 62.3011Q533.2344 63.097977 532.0156 63.097977Q530.7969 63.097977 530.03125 62.160477Q529.28125 61.20735 529.28125 59.722977L529.28125 59.316727Q529.28125 56.95735 530.28125 55.70735Q531.28125 54.45735 533.2656 54.441727L533.46875 54.441727ZM532.0469 58.285477Q531.4844 58.285477 531.0156 58.6136Q530.5469 58.941727 530.3594 59.45735L530.3594 59.847977Q530.3594 60.910477 530.8281 61.5511Q531.3125 62.191727 532.0156 62.191727Q532.75 62.191727 533.1719 61.660477Q533.59375 61.1136 533.59375 60.2386Q533.59375 59.3636 533.1719 58.83235Q532.75 58.285477 532.0469 58.285477Z" fill-rule="nonzero"/><path fill="#757575" d="M31.065624 31.809433Q30.284374 32.762558 28.83125 33.293808Q27.39375 33.809433 25.628124 33.809433Q23.784374 33.809433 22.39375 32.996933Q21.003124 32.184433 20.2375 30.653183Q19.4875 29.121933 19.471874 27.059433L19.471874 26.090683Q19.471874 23.950058 20.190624 22.403183Q20.909374 20.840683 22.253124 20.012558Q23.6125 19.184433 25.425 19.184433Q27.95625 19.184433 29.378124 20.403183Q30.8 21.606308 31.065624 23.903183L28.221874 23.903183Q28.01875 22.684433 27.346874 22.121933Q26.690624 21.559433 25.51875 21.559433Q24.01875 21.559433 23.2375 22.684433Q22.45625 23.793808 22.440624 26.012558L22.440624 26.918808Q22.440624 29.168808 23.284374 30.309433Q24.14375 31.450058 25.784374 31.450058Q27.440624 31.450058 28.14375 30.746933L28.14375 28.293808L25.471874 28.293808L25.471874 26.137558L31.065624 26.137558L31.065624 31.809433ZM33.190624 28.231308Q33.190624 26.653183 33.8 25.418808Q34.409374 24.184433 35.534374 23.512558Q36.675 22.840683 38.190624 22.840683Q40.33125 22.840683 41.675 24.153183Q43.034374 25.465683 43.190624 27.700058L43.20625 28.434433Q43.20625 30.856308 41.846874 32.340683Q40.4875 33.809433 38.20625 33.809433Q35.925 33.809433 34.55 32.340683Q33.190624 30.871933 33.190624 28.356308L33.190624 28.231308ZM36.01875 28.434433Q36.01875 29.934433 36.58125 30.731308Q37.14375 31.528183 38.20625 31.528183Q39.2375 31.528183 39.8 30.746933Q40.378124 29.950058 40.378124 28.231308Q40.378124 26.746933 39.8 25.934433Q39.2375 25.121933 38.190624 25.121933Q37.14375 25.121933 36.58125 25.934433Q36.01875 26.746933 36.01875 28.434433ZM47.6125 33.606308L44.784374 33.606308L44.784374 18.606308L47.6125 18.606308L47.6125 33.606308ZM61.378124 33.606308L58.55 33.606308L58.55 22.731308L55.175 23.778183L55.175 21.481308L61.065624 19.371933L61.378124 19.371933L61.378124 33.606308ZM65.78438 32.215683Q65.78438 31.543808 66.2375 31.121933Q66.69063 30.700058 67.37813 30.700058Q68.06563 30.700058 68.51875 31.121933Q68.97188 31.543808 68.97188 32.215683Q68.97188 32.887558 68.51875 33.309433Q68.08125 33.715683 67.37813 33.715683Q66.675 33.715683 66.22188 33.309433Q65.78438 32.887558 65.78438 32.215683ZM81.08125 27.731308Q81.08125 30.668808 79.8625 32.246933Q78.64375 33.809433 76.3 33.809433Q73.97188 33.809433 72.7375 32.278183Q71.50313 30.731308 71.47188 27.871933L71.47188 25.262558Q71.47188 22.278183 72.70625 20.731308Q73.95625 19.184433 76.26875 19.184433Q78.59688 19.184433 79.83125 20.715683Q81.06563 22.246933 81.08125 25.106308L81.08125 27.731308ZM78.26875 24.856308Q78.26875 23.090683 77.78438 22.293808Q77.3 21.481308 76.26875 21.481308Q75.28438 21.481308 74.8 22.246933Q74.33125 23.012558 74.3 24.637558L74.3 28.090683Q74.3 29.840683 74.76875 30.684433Q75.25313 31.528183 76.3 31.528183Q77.33125 31.528183 77.78438 30.715683Q78.25313 29.903183 78.26875 28.231308L78.26875 24.856308ZM97.26875 33.606308L87.51875 33.606308L87.51875 31.668808L92.1125 26.762558Q93.06563 25.731308 93.51875 24.965683Q93.97188 24.184433 93.97188 23.496933Q93.97188 22.543808 93.4875 22.012558Q93.01875 21.465683 92.12813 21.465683Q91.175 21.465683 90.6125 22.121933Q90.06563 22.778183 90.06563 23.856308L87.2375 23.856308Q87.2375 22.559433 87.84688 21.496933Q88.47188 20.418808 89.59688 19.809433Q90.7375 19.184433 92.175 19.184433Q94.37813 19.184433 95.58125 20.246933Q96.8 21.293808 96.8 23.231308Q96.8 24.278183 96.25313 25.371933Q95.70625 26.465683 94.37813 27.918808L91.14375 31.325058L97.26875 31.325058L97.26875 33.606308ZM108.08125 27.731308Q108.08125 30.668808 106.8625 32.246933Q105.64375 33.809433 103.3 33.809433Q100.97188 33.809433 99.7375 32.278183Q98.50313 30.731308 98.47188 27.871933L98.47188 25.262558Q98.47188 22.278183 99.70625 20.731308Q100.95625 19.184433 103.26875 19.184433Q105.59688 19.184433 106.83125 20.715683Q108.06563 22.246933 108.08125 25.106308L108.08125 27.731308ZM105.26875 24.856308Q105.26875 23.090683 104.78438 22.293808Q104.3 21.481308 103.26875 21.481308Q102.28438 21.481308 101.8 22.246933Q101.33125 23.012558 101.3 24.637558L101.3 28.090683Q101.3 29.840683 101.76875 30.684433Q102.25313 31.528183 103.3 31.528183Q104.33125 31.528183 104.78438 30.715683Q105.25313 29.903183 105.26875 28.231308L105.26875 24.856308ZM116.37813 33.606308L113.55 33.606308L113.55 22.731308L110.175 23.778183L110.175 21.481308L116.06563 19.371933L116.37813 19.371933L116.37813 33.606308ZM128.175 19.246933L128.175 21.559433L127.89375 21.559433Q125.9875 21.590683 124.81563 22.559433Q123.65938 23.528183 123.425 25.246933Q124.55 24.090683 126.28438 24.090683Q128.12813 24.090683 129.22188 25.418808Q130.31563 26.746933 130.31563 28.918808Q130.31563 30.309433 129.72188 31.434433Q129.12813 32.543808 128.01875 33.184433Q126.925 33.809433 125.53438 33.809433Q123.28438 33.809433 121.90938 32.246933Q120.53438 30.668808 120.53438 28.075058L120.53438 27.059433Q120.53438 24.731308 121.39375 22.965683Q122.26875 21.200058 123.90938 20.231308Q125.55 19.246933 127.70625 19.246933L128.175 19.246933ZM125.425 26.356308Q124.7375 26.356308 124.175 26.715683Q123.62813 27.075058 123.3625 27.653183L123.3625 28.512558Q123.3625 29.934433 123.90938 30.731308Q124.47188 31.528183 125.47188 31.528183Q126.39375 31.528183 126.94063 30.809433Q127.50313 30.090683 127.50313 28.950058Q127.50313 27.778183 126.94063 27.075058Q126.37813 26.356308 125.425 26.356308ZM140.59688 30.153183L142.55 23.043808L145.50313 23.043808L141.94063 33.606308L139.2375 33.606308L135.675 23.043808L138.62813 23.043808L140.59688 30.153183ZM152.3625 30.684433Q152.3625 30.168808 151.84688 29.871933Q151.33125 29.575058 150.20625 29.340683Q146.425 28.543808 146.425 26.137558Q146.425 24.731308 147.59688 23.793808Q148.76875 22.840683 150.64375 22.840683Q152.65938 22.840683 153.8625 23.793808Q155.06563 24.731308 155.06563 26.246933L152.25313 26.246933Q152.25313 25.653183 151.8625 25.262558Q151.47188 24.856308 150.64375 24.856308Q149.925 24.856308 149.53438 25.184433Q149.14375 25.496933 149.14375 25.996933Q149.14375 26.465683 149.58125 26.762558Q150.03438 27.043808 151.08125 27.262558Q152.14375 27.465683 152.8625 27.731308Q155.09688 28.543808 155.09688 30.575058Q155.09688 32.012558 153.8625 32.918808Q152.62813 33.809433 150.65938 33.809433Q149.33125 33.809433 148.3 33.340683Q147.26875 32.856308 146.675 32.028183Q146.09688 31.200058 146.09688 30.246933L148.76875 30.246933Q148.81563 30.996933 149.33125 31.403183Q149.84688 31.793808 150.72188 31.793808Q151.53438 31.793808 151.94063 31.496933Q152.3625 31.184433 152.3625 30.684433ZM173.06563 31.809433Q172.28438 32.762558 170.83125 33.293808Q169.39375 33.809433 167.62813 33.809433Q165.78438 33.809433 164.39375 32.996933Q163.00313 32.184433 162.2375 30.653183Q161.4875 29.121933 161.47188 27.059433L161.47188 26.090683Q161.47188 23.950058 162.19063 22.403183Q162.90938 20.840683 164.25313 20.012558Q165.6125 19.184433 167.425 19.184433Q169.95625 19.184433 171.37813 20.403183Q172.8 21.606308 173.06563 23.903183L170.22188 23.903183Q170.01875 22.684433 169.34688 22.121933Q168.69063 21.559433 167.51875 21.559433Q166.01875 21.559433 165.2375 22.684433Q164.45625 23.793808 164.44063 26.012558L164.44063 26.918808Q164.44063 29.168808 165.28438 30.309433Q166.14375 31.450058 167.78438 31.450058Q169.44063 31.450058 170.14375 30.746933L170.14375 28.293808L167.47188 28.293808L167.47188 26.137558L173.06563 26.137558L173.06563 31.809433ZM175.19063 28.231308Q175.19063 26.653183 175.8 25.418808Q176.40938 24.184433 177.53438 23.512558Q178.675 22.840683 180.19063 22.840683Q182.33125 22.840683 183.675 24.153183Q185.03438 25.465683 185.19063 27.700058L185.20625 28.434433Q185.20625 30.856308 183.84688 32.340683Q182.4875 33.809433 180.20625 33.809433Q177.925 33.809433 176.55 32.340683Q175.19063 30.871933 175.19063 28.356308L175.19063 28.231308ZM178.01875 28.434433Q178.01875 29.934433 178.58125 30.731308Q179.14375 31.528183 180.20625 31.528183Q181.2375 31.528183 181.8 30.746933Q182.37813 29.950058 182.37813 28.231308Q182.37813 26.746933 181.8 25.934433Q181.2375 25.121933 180.19063 25.121933Q179.14375 25.121933 178.58125 25.934433Q178.01875 26.746933 178.01875 28.434433ZM189.6125 33.606308L186.78438 33.606308L186.78438 18.606308L189.6125 18.606308L189.6125 33.606308ZM203.37813 33.606308L200.55 33.606308L200.55 22.731308L197.175 23.778183L197.175 21.481308L203.06563 19.371933L203.37813 19.371933L203.37813 33.606308ZM207.78438 32.215683Q207.78438 31.543808 208.2375 31.121933Q208.69063 30.700058 209.37813 30.700058Q210.06563 30.700058 210.51875 31.121933Q210.97188 31.543808 210.97188 32.215683Q210.97188 32.887558 210.51875 33.309433Q210.08125 33.715683 209.37813 33.715683Q208.675 33.715683 208.22188 33.309433Q207.78438 32.887558 207.78438 32.215683ZM223.08125 27.731308Q223.08125 30.668808 221.8625 32.246933Q220.64375 33.809433 218.3 33.809433Q215.97188 33.809433 214.7375 32.278183Q213.50313 30.731308 213.47188 27.871933L213.47188 25.262558Q213.47188 22.278183 214.70625 20.731308Q215.95625 19.184433 218.26875 19.184433Q220.59688 19.184433 221.83125 20.715683Q223.06563 22.246933 223.08125 25.106308L223.08125 27.731308ZM220.26875 24.856308Q220.26875 23.090683 219.78438 22.293808Q219.3 21.481308 218.26875 21.481308Q217.28438 21.481308 216.8 22.246933Q216.33125 23.012558 216.3 24.637558L216.3 28.090683Q216.3 29.840683 216.76875 30.684433Q217.25313 31.528183 218.3 31.528183Q219.33125 31.528183 219.78438 30.715683Q220.25313 29.903183 220.26875 28.231308L220.26875 24.856308ZM241.37813 33.606308L238.45625 33.606308L232.75313 24.246933L232.75313 33.606308L229.81563 33.606308L229.81563 19.387558L232.75313 19.387558L238.45625 28.762558L238.45625 19.387558L241.37813 19.387558L241.37813 33.606308ZM243.19063 28.231308Q243.19063 26.653183 243.8 25.418808Q244.40938 24.184433 245.53438 23.512558Q246.675 22.840683 248.19063 22.840683Q250.33125 22.840683 251.675 24.153183Q253.03438 25.465683 253.19063 27.700058L253.20625 28.434433Q253.20625 30.856308 251.84688 32.340683Q250.4875 33.809433 248.20625 33.809433Q245.925 33.809433 244.55 32.340683Q243.19063 30.871933 243.19063 28.356308L243.19063 28.231308ZM246.01875 28.434433Q246.01875 29.934433 246.58125 30.731308Q247.14375 31.528183 248.20625 31.528183Q249.2375 31.528183 249.8 30.746933Q250.37813 29.950058 250.37813 28.231308Q250.37813 26.746933 249.8 25.934433Q249.2375 25.121933 248.19063 25.121933Q247.14375 25.121933 246.58125 25.934433Q246.01875 26.746933 246.01875 28.434433ZM258.59686 30.153183L260.55 23.043808L263.5031 23.043808L259.9406 33.606308L257.2375 33.606308L253.675 23.043808L256.6281 23.043808L258.59686 30.153183ZM264.1906 28.231308Q264.1906 26.653183 264.8 25.418808Q265.40936 24.184433 266.53436 23.512558Q267.675 22.840683 269.1906 22.840683Q271.33124 22.840683 272.675 24.153183Q274.03436 25.465683 274.1906 27.700058L274.20624 28.434433Q274.20624 30.856308 272.84686 32.340683Q271.4875 33.809433 269.20624 33.809433Q266.925 33.809433 265.55 32.340683Q264.1906 30.871933 264.1906 28.356308L264.1906 28.231308ZM267.01874 28.434433Q267.01874 29.934433 267.58124 30.731308Q268.14374 31.528183 269.20624 31.528183Q270.2375 31.528183 270.8 30.746933Q271.3781 29.950058 271.3781 28.231308Q271.3781 26.746933 270.8 25.934433Q270.2375 25.121933 269.1906 25.121933Q268.14374 25.121933 267.58124 25.934433Q267.01874 26.746933 267.01874 28.434433Z" fill-rule="nonzero"/></svg>